<?xml version="1.0" encoding="utf-8"?>
<!-- Generator: Adobe Illustrator 13.0.0, SVG Export Plug-In  -->
<!DOCTYPE svg PUBLIC "-//W3C//DTD SVG 1.1//EN" "http://www.w3.org/Graphics/SVG/1.1/DTD/svg11.dtd" [
	<!ENTITY ns_flows "http://ns.adobe.com/Flows/1.0/">
]>
<svg version="1.1"
	 xmlns="http://www.w3.org/2000/svg" xmlns:xlink="http://www.w3.org/1999/xlink" xmlns:a="http://ns.adobe.com/AdobeSVGViewerExtensions/3.0/"
	 x="0px" y="0px" width="32px" height="32px" viewBox="-7.972 -0.996 32 32" enable-background="new -7.972 -0.996 32 32"
	 xml:space="preserve">
<defs>
</defs>
<g opacity="0.01">
	<path d="M4.627,30.561h12.647v-0.525c-1.885,0-3.488-0.326-4.744-1.582c-1.256-1.26-0.527-5.795-0.527-5.795
		s1.379-0.854,2.635-2.107c1.258-1.258,3.287-4.252,1.582-11.066c-0.527-2.107,0-4.742,0.525-8.958C16.811,0.005,16.219,0,16.219,0
		H5.681c0,0-0.613,0.007-0.527,0.527c0.527,3.161,1.054,6.85,0.527,8.958c-1.704,6.814,0.324,9.808,1.582,11.066
		c1.258,1.254,2.634,2.107,2.634,2.107s0.729,4.535-0.526,5.795c-1.258,1.256-2.858,1.582-4.743,1.582V30.561z"/>
</g>
<g opacity="0.01">
	<path d="M4.43,30.561h12.647v-0.525c-1.885,0-3.488-0.326-4.744-1.582c-1.256-1.26-0.527-5.795-0.527-5.795
		s1.379-0.854,2.635-2.107c1.258-1.258,3.287-4.252,1.582-11.066c-0.527-2.107,0-4.742,0.525-8.958C16.614,0.005,16.022,0,16.022,0
		H5.483c0,0-0.613,0.007-0.527,0.527c0.527,3.161,1.054,6.85,0.527,8.958c-1.704,6.814,0.324,9.808,1.582,11.066
		c1.258,1.254,2.634,2.107,2.634,2.107s0.729,4.535-0.526,5.795c-1.258,1.256-2.858,1.582-4.743,1.582V30.561z"/>
</g>
<g opacity="0.01">
	<path d="M4.185,30.561h12.647v-0.525c-1.885,0-3.488-0.326-4.744-1.582c-1.256-1.26-0.527-5.795-0.527-5.795
		s1.379-0.854,2.635-2.107c1.258-1.258,3.287-4.252,1.582-11.066c-0.527-2.107,0-4.742,0.525-8.958C16.369,0.005,15.777,0,15.777,0
		H5.238c0,0-0.613,0.007-0.527,0.527c0.527,3.161,1.054,6.85,0.527,8.958c-1.704,6.814,0.324,9.808,1.582,11.066
		c1.258,1.254,2.634,2.107,2.634,2.107s0.729,4.535-0.526,5.795c-1.258,1.256-2.858,1.582-4.743,1.582V30.561z"/>
</g>
<g opacity="0.01">
	<path d="M3.986,30.561h12.647v-0.525c-1.885,0-3.488-0.326-4.744-1.582c-1.256-1.26-0.527-5.795-0.527-5.795
		s1.379-0.854,2.635-2.107c1.258-1.258,3.287-4.252,1.582-11.066c-0.527-2.107,0-4.742,0.525-8.958C16.17,0.005,15.579,0,15.579,0
		H5.04c0,0-0.613,0.007-0.527,0.527c0.527,3.161,1.054,6.85,0.527,8.958c-1.704,6.814,0.324,9.808,1.582,11.066
		c1.258,1.254,2.634,2.107,2.634,2.107s0.729,4.535-0.526,5.795c-1.258,1.256-2.858,1.582-4.743,1.582V30.561z"/>
</g>
<g opacity="0.01">
	<path d="M3.741,30.561h12.647v-0.525c-1.885,0-3.488-0.326-4.744-1.582c-1.256-1.26-0.527-5.795-0.527-5.795
		s1.379-0.854,2.635-2.107c1.258-1.258,3.287-4.252,1.582-11.066c-0.527-2.107,0-4.742,0.525-8.958C15.925,0.005,15.333,0,15.333,0
		H4.795c0,0-0.613,0.007-0.527,0.527c0.527,3.161,1.054,6.85,0.527,8.958c-1.704,6.814,0.324,9.808,1.582,11.066
		c1.258,1.254,2.634,2.107,2.634,2.107s0.729,4.535-0.526,5.795c-1.258,1.256-2.858,1.582-4.743,1.582V30.561z"/>
</g>
<g opacity="0.01">
	<path d="M3.543,30.561H16.19v-0.525c-1.885,0-3.488-0.326-4.744-1.582c-1.256-1.26-0.527-5.795-0.527-5.795
		s1.379-0.854,2.635-2.107c1.258-1.258,3.287-4.252,1.582-11.066c-0.527-2.107,0-4.742,0.525-8.958C15.727,0.005,15.135,0,15.135,0
		H4.597c0,0-0.613,0.007-0.527,0.527c0.527,3.161,1.054,6.85,0.527,8.958c-1.704,6.814,0.324,9.808,1.582,11.066
		c1.258,1.254,2.634,2.107,2.634,2.107s0.729,4.535-0.526,5.795c-1.258,1.256-2.858,1.582-4.743,1.582V30.561z"/>
</g>
<g opacity="0.01">
	<path d="M3.298,30.561h12.647v-0.525c-1.885,0-3.488-0.326-4.744-1.582c-1.256-1.26-0.527-5.795-0.527-5.795
		s1.379-0.854,2.635-2.107c1.258-1.258,3.287-4.252,1.582-11.066c-0.527-2.107,0-4.742,0.525-8.958C15.482,0.005,14.89,0,14.89,0
		H4.352c0,0-0.613,0.007-0.527,0.527c0.527,3.161,1.054,6.85,0.527,8.958c-1.704,6.814,0.324,9.808,1.582,11.066
		c1.258,1.254,2.634,2.107,2.634,2.107s0.729,4.535-0.526,5.795c-1.258,1.256-2.858,1.582-4.743,1.582V30.561z"/>
</g>
<g opacity="0.01">
	<path d="M3.101,30.561h12.647v-0.525c-1.885,0-3.488-0.326-4.744-1.582c-1.256-1.26-0.527-5.795-0.527-5.795
		s1.379-0.854,2.635-2.107c1.258-1.258,3.287-4.252,1.582-11.066c-0.527-2.107,0-4.742,0.525-8.958C15.285,0.005,14.693,0,14.693,0
		H4.154c0,0-0.613,0.007-0.527,0.527c0.527,3.161,1.054,6.85,0.527,8.958c-1.704,6.814,0.324,9.808,1.582,11.066
		c1.258,1.254,2.634,2.107,2.634,2.107s0.729,4.535-0.526,5.795c-1.258,1.256-2.858,1.582-4.743,1.582V30.561z"/>
</g>
<g opacity="0.1">
	<path d="M2.855,30.561h12.647v-0.525c-1.885,0-3.488-0.326-4.744-1.582c-1.256-1.26-0.527-5.795-0.527-5.795
		s1.379-0.854,2.635-2.107c1.258-1.258,3.287-4.252,1.582-11.066c-0.527-2.107,0-4.742,0.525-8.958C15.04,0.005,14.448,0,14.448,0
		H3.909c0,0-0.613,0.007-0.527,0.527c0.527,3.161,1.054,6.85,0.527,8.958c-1.704,6.814,0.324,9.808,1.582,11.066
		c1.258,1.254,2.634,2.107,2.634,2.107s0.729,4.535-0.526,5.795c-1.258,1.256-2.858,1.582-4.743,1.582V30.561z"/>
</g>
<g opacity="0.2">
	<path d="M2.658,30.561h12.647v-0.525c-1.885,0-3.488-0.326-4.744-1.582c-1.256-1.26-0.527-5.795-0.527-5.795
		s1.379-0.854,2.635-2.107c1.258-1.258,3.287-4.252,1.582-11.066c-0.527-2.107,0-4.742,0.525-8.958C14.842,0.005,14.25,0,14.25,0
		H3.712c0,0-0.613,0.007-0.527,0.527c0.527,3.161,1.054,6.85,0.527,8.958c-1.704,6.814,0.324,9.808,1.582,11.066
		c1.258,1.254,2.634,2.107,2.634,2.107s0.729,4.535-0.526,5.795c-1.258,1.256-2.858,1.582-4.743,1.582V30.561z"/>
</g>
<g opacity="0.01">
	<path d="M12.647,30.561H0v-0.525c1.885,0,3.488-0.326,4.744-1.582c1.256-1.26,0.527-5.795,0.527-5.795s-1.379-0.854-2.635-2.107
		C1.379,19.293-0.65,16.299,1.055,9.485c0.527-2.107,0-4.742-0.525-8.958C0.463,0.005,1.055,0,1.055,0h10.538
		c0,0,0.613,0.007,0.527,0.527c-0.527,3.161-1.053,6.85-0.527,8.958c1.705,6.814-0.324,9.808-1.58,11.066
		c-1.258,1.254-2.634,2.107-2.634,2.107s-0.729,4.535,0.526,5.795c1.258,1.256,2.858,1.582,4.743,1.582V30.561z"/>
</g>
<g opacity="0.01">
	<path d="M12.844,30.561H0.197v-0.525c1.885,0,3.488-0.326,4.744-1.582c1.256-1.26,0.527-5.795,0.527-5.795
		s-1.379-0.854-2.635-2.107c-1.258-1.258-3.287-4.252-1.582-11.066c0.527-2.107,0-4.742-0.525-8.958C0.66,0.005,1.252,0,1.252,0
		H11.79c0,0,0.613,0.007,0.527,0.527c-0.527,3.161-1.053,6.85-0.527,8.958c1.705,6.814-0.324,9.808-1.58,11.066
		c-1.258,1.254-2.634,2.107-2.634,2.107s-0.729,4.535,0.526,5.795c1.258,1.256,2.858,1.582,4.743,1.582V30.561z"/>
</g>
<g opacity="0.01">
	<path d="M13.088,30.561H0.442v-0.525c1.885,0,3.488-0.326,4.744-1.582c1.256-1.26,0.527-5.795,0.527-5.795
		s-1.379-0.854-2.635-2.107c-1.258-1.258-3.287-4.252-1.582-11.066c0.527-2.107,0-4.742-0.525-8.958C0.905,0.005,1.497,0,1.497,0
		h10.539c0,0,0.613,0.007,0.527,0.527c-0.527,3.161-1.055,6.85-0.527,8.958c1.703,6.814-0.324,9.808-1.582,11.066
		c-1.258,1.254-2.633,2.107-2.633,2.107s-0.729,4.535,0.526,5.795c1.257,1.256,2.857,1.582,4.742,1.582V30.561z"/>
</g>
<g opacity="0.01">
	<path d="M13.288,30.561H0.641v-0.525c1.885,0,3.488-0.326,4.744-1.582c1.256-1.26,0.527-5.795,0.527-5.795
		s-1.379-0.854-2.635-2.107C2.02,19.293-0.01,16.299,1.695,9.485c0.527-2.107,0-4.742-0.525-8.958C1.104,0.005,1.695,0,1.695,0
		h10.538c0,0,0.613,0.007,0.527,0.527c-0.527,3.161-1.053,6.85-0.527,8.958c1.705,6.814-0.324,9.808-1.58,11.066
		c-1.258,1.254-2.634,2.107-2.634,2.107s-0.729,4.535,0.527,5.795c1.258,1.256,2.857,1.582,4.742,1.582V30.561z"/>
</g>
<g opacity="0.01">
	<path d="M13.532,30.561H0.886v-0.525c1.885,0,3.488-0.326,4.744-1.582c1.256-1.26,0.527-5.795,0.527-5.795
		s-1.379-0.854-2.635-2.107C2.265,19.293,0.235,16.299,1.94,9.485c0.527-2.107,0-4.742-0.525-8.958C1.349,0.005,1.94,0,1.94,0
		h10.539c0,0,0.613,0.007,0.527,0.527c-0.527,3.161-1.055,6.85-0.527,8.958c1.703,6.814-0.324,9.808-1.582,11.066
		c-1.258,1.254-2.633,2.107-2.633,2.107s-0.729,4.535,0.526,5.795c1.258,1.256,2.857,1.582,4.742,1.582V30.561z"/>
</g>
<g opacity="0.01">
	<path d="M13.731,30.561H1.084v-0.525c1.885,0,3.488-0.326,4.744-1.582c1.256-1.26,0.527-5.795,0.527-5.795
		s-1.379-0.854-2.635-2.107c-1.258-1.258-3.287-4.252-1.582-11.066c0.527-2.107,0-4.742-0.525-8.958C1.547,0.005,2.139,0,2.139,0
		h10.538c0,0,0.613,0.007,0.527,0.527c-0.527,3.161-1.053,6.85-0.527,8.958c1.705,6.814-0.324,9.808-1.58,11.066
		c-1.258,1.254-2.634,2.107-2.634,2.107s-0.729,4.535,0.527,5.795c1.258,1.256,2.857,1.582,4.742,1.582V30.561z"/>
</g>
<g opacity="0.01">
	<path d="M13.975,30.561H1.329v-0.525c1.885,0,3.488-0.326,4.744-1.582c1.256-1.26,0.527-5.795,0.527-5.795
		s-1.379-0.854-2.635-2.107c-1.258-1.258-3.287-4.252-1.582-11.066c0.527-2.107,0-4.742-0.525-8.958C1.792,0.005,2.384,0,2.384,0
		h10.539c0,0,0.613,0.007,0.527,0.527c-0.527,3.161-1.055,6.85-0.527,8.958c1.703,6.814-0.324,9.808-1.582,11.066
		c-1.258,1.254-2.633,2.107-2.633,2.107s-0.729,4.535,0.525,5.795c1.258,1.256,2.857,1.582,4.742,1.582V30.561z"/>
</g>
<g opacity="0.01">
	<path d="M14.172,30.561H1.526v-0.525c1.885,0,3.488-0.326,4.744-1.582c1.256-1.26,0.527-5.795,0.527-5.795
		s-1.379-0.854-2.635-2.107c-1.258-1.258-3.287-4.252-1.582-11.066c0.527-2.107,0-4.742-0.525-8.958C1.989,0.005,2.581,0,2.581,0
		H13.12c0,0,0.613,0.007,0.527,0.527c-0.527,3.161-1.055,6.85-0.527,8.958c1.703,6.814-0.324,9.808-1.582,11.066
		c-1.258,1.254-2.633,2.107-2.633,2.107s-0.729,4.535,0.525,5.795c1.258,1.256,2.857,1.582,4.742,1.582V30.561z"/>
</g>
<g opacity="0.1">
	<path d="M14.418,30.561H1.771v-0.525c1.885,0,3.488-0.326,4.744-1.582c1.256-1.26,0.527-5.795,0.527-5.795
		s-1.379-0.854-2.635-2.107C3.15,19.293,1.121,16.299,2.826,9.485c0.527-2.107,0-4.742-0.525-8.958C2.234,0.005,2.826,0,2.826,0
		h10.538c0,0,0.613,0.007,0.527,0.527c-0.527,3.161-1.053,6.85-0.527,8.958c1.705,6.814-0.324,9.808-1.58,11.066
		c-1.258,1.254-2.635,2.107-2.635,2.107s-0.728,4.535,0.527,5.795c1.258,1.256,2.857,1.582,4.742,1.582V30.561z"/>
</g>
<g opacity="0.2">
	<path d="M14.616,30.561H1.969v-0.525c1.885,0,3.488-0.326,4.744-1.582c1.256-1.26,0.527-5.795,0.527-5.795
		s-1.379-0.854-2.635-2.107c-1.258-1.258-3.287-4.252-1.582-11.066c0.527-2.107,0-4.742-0.525-8.958C2.432,0.005,3.023,0,3.023,0
		h10.538c0,0,0.613,0.007,0.527,0.527c-0.527,3.161-1.053,6.85-0.527,8.958c1.705,6.814-0.324,9.808-1.58,11.066
		c-1.258,1.254-2.635,2.107-2.635,2.107s-0.729,4.535,0.527,5.795c1.258,1.256,2.857,1.582,4.742,1.582V30.561z"/>
</g>
<g>
	<path fill="#ED7200" d="M2.215,30.561h12.647v-0.525c-1.885,0-3.487-0.326-4.743-1.582c-1.257-1.26-0.527-5.795-0.527-5.795
		s1.379-0.854,2.635-2.107c1.258-1.258,3.287-4.252,1.581-11.066c-0.527-2.107,0-4.742,0.526-8.958C14.399,0.005,13.807,0,13.807,0
		H3.269c0,0-0.613,0.007-0.527,0.527c0.527,3.161,1.054,6.85,0.527,8.958c-1.704,6.814,0.324,9.808,1.581,11.066
		c1.257,1.254,2.634,2.107,2.634,2.107s0.729,4.535-0.527,5.795C5.7,29.709,4.1,30.035,2.215,30.035V30.561z"/>
</g>
<g>
	<path fill="#FFFFFF" d="M7.869,21.135h1.258c1.258,0,4.68-1.354,4.68-6.381c0-5.026-1.053-3.504-1.053-7.903
		c0-3.689,0.568-6.85,0.568-6.85H3.796c0,0,0.526,3.08,0.526,6.85c0,3.771-1.054,2.877-1.054,7.903
		C3.269,19.781,6.613,21.135,7.869,21.135z"/>
</g>
<g opacity="0.7">
	<linearGradient id="SVGID_1_" gradientUnits="userSpaceOnUse" x1="2.4897" y1="10.4873" x2="14.428" y2="13.6861">
		<stop  offset="0" style="stop-color:#FFF280"/>
		<stop  offset="0.4877" style="stop-color:#F7E666"/>
		<stop  offset="0.4918" style="stop-color:#F6D15E"/>
		<stop  offset="1" style="stop-color:#BF7A29"/>
	</linearGradient>
	<path fill="url(#SVGID_1_)" d="M7.869,21.135h1.258c1.258,0,4.68-1.354,4.68-6.381c0-5.026-1.159-4.124-1.054-8.43
		c0.026-1.063,0.153-2.337,0.153-2.337H4.231c0,0,0.112,1.325,0.091,2.337c-0.091,4.307-1.054,3.404-1.054,8.43
		C3.269,19.781,6.613,21.135,7.869,21.135z"/>
</g>
<g>
	<path fill="#ED7200" d="M13.807,0c0,0,0.592,0.005,0.526,0.527c-0.526,4.216-1.054,6.85-0.526,8.958
		c1.706,6.814-0.323,9.808-1.581,11.066c-1.256,1.254-2.635,2.107-2.635,2.107s-0.729,4.535,0.527,5.795
		c1.256,1.256,2.858,1.582,4.743,1.582v0.525H2.215v-0.525c1.885,0,3.485-0.326,4.742-1.582c1.256-1.26,0.527-5.795,0.527-5.795
		s-1.377-0.854-2.634-2.107c-1.257-1.258-3.285-4.252-1.581-11.066c0.527-2.107,0-5.796-0.527-8.958C2.655,0.007,3.269,0,3.269,0
		H13.807 M13.803,0.5H3.269c-0.006,0-0.014,0.001-0.023,0.003c0.58,3.49,1.037,6.989,0.508,9.103
		c-1.196,4.783-0.694,8.446,1.45,10.591c1.202,1.199,2.531,2.027,2.544,2.036l0.194,0.12l0.036,0.226
		c0.079,0.49,0.729,4.827-0.667,6.227c-0.601,0.601-1.272,0.996-1.961,1.255h6.375c-0.688-0.259-1.36-0.654-1.96-1.254
		c-1.397-1.4-0.746-5.738-0.668-6.228l0.037-0.226l0.193-0.12c0.014-0.009,1.348-0.841,2.545-2.036
		c2.146-2.146,2.647-5.808,1.449-10.591c-0.457-1.826-0.164-4.014,0.241-7.042c0.086-0.642,0.178-1.327,0.27-2.059
		C13.818,0.502,13.806,0.5,13.803,0.5L13.803,0.5z"/>
</g>
</svg>
