<?xml version="1.0" encoding="utf-8"?>
<!-- Generator: Adobe Illustrator 13.0.0, SVG Export Plug-In  -->
<!DOCTYPE svg PUBLIC "-//W3C//DTD SVG 1.1//EN" "http://www.w3.org/Graphics/SVG/1.1/DTD/svg11.dtd" [
	<!ENTITY ns_flows "http://ns.adobe.com/Flows/1.0/">
]>
<svg version="1.1"
	 xmlns="http://www.w3.org/2000/svg" xmlns:xlink="http://www.w3.org/1999/xlink" xmlns:a="http://ns.adobe.com/AdobeSVGViewerExtensions/3.0/"
	 x="0px" y="0px" width="32px" height="32px" viewBox="-9.302 -0.29 32 32" enable-background="new -9.302 -0.29 32 32"
	 xml:space="preserve">
<defs>
</defs>
<g opacity="0.01">
	<path d="M4.636,0.521C4.636,0,5.156,0,5.156,0h9.379c0,0,0.522,0,0.522,0.521c0,0.521,0,28.663,0,29.704
		c0,1.042-1.042,1.042-1.042,1.042H5.677c0,0-1.041,0.001-1.041-1.042C4.636,26.906,4.636,1.042,4.636,0.521z"/>
</g>
<g opacity="0.01">
	<path d="M4.428,0.521C4.428,0,4.948,0,4.948,0h9.379c0,0,0.522,0,0.522,0.521c0,0.521,0,28.663,0,29.704
		c0,1.042-1.042,1.042-1.042,1.042H5.469c0,0-1.041,0.001-1.041-1.042C4.428,26.906,4.428,1.042,4.428,0.521z"/>
</g>
<g opacity="0.01">
	<path d="M4.192,0.521C4.192,0,4.713,0,4.713,0h9.379c0,0,0.522,0,0.522,0.521c0,0.521,0,28.663,0,29.704
		c0,1.042-1.042,1.042-1.042,1.042H5.233c0,0-1.041,0.001-1.041-1.042C4.192,26.906,4.192,1.042,4.192,0.521z"/>
</g>
<g opacity="0.01">
	<path d="M3.984,0.521C3.984,0,4.505,0,4.505,0h9.379c0,0,0.522,0,0.522,0.521c0,0.521,0,28.663,0,29.704
		c0,1.042-1.042,1.042-1.042,1.042H5.025c0,0-1.041,0.001-1.041-1.042C3.984,26.906,3.984,1.042,3.984,0.521z"/>
</g>
<g opacity="0.01">
	<path d="M3.75,0.521C3.75,0,4.271,0,4.271,0h9.379c0,0,0.522,0,0.522,0.521c0,0.521,0,28.663,0,29.704
		c0,1.042-1.042,1.042-1.042,1.042H4.791c0,0-1.041,0.001-1.041-1.042C3.75,26.906,3.75,1.042,3.75,0.521z"/>
</g>
<g opacity="0.01">
	<path d="M3.542,0.521C3.542,0,4.063,0,4.063,0h9.379c0,0,0.522,0,0.522,0.521c0,0.521,0,28.663,0,29.704
		c0,1.042-1.042,1.042-1.042,1.042H4.583c0,0-1.041,0.001-1.041-1.042C3.542,26.906,3.542,1.042,3.542,0.521z"/>
</g>
<g opacity="0.01">
	<path d="M3.307,0.521C3.307,0,3.827,0,3.827,0h9.379c0,0,0.522,0,0.522,0.521c0,0.521,0,28.663,0,29.704
		c0,1.042-1.042,1.042-1.042,1.042H4.348c0,0-1.041,0.001-1.041-1.042C3.307,26.906,3.307,1.042,3.307,0.521z"/>
</g>
<g opacity="0.1">
	<path d="M2.864,0.521C2.864,0,3.385,0,3.385,0h9.379c0,0,0.522,0,0.522,0.521c0,0.521,0,28.663,0,29.704
		c0,1.042-1.042,1.042-1.042,1.042H3.905c0,0-1.041,0.001-1.041-1.042C2.864,26.906,2.864,1.042,2.864,0.521z"/>
</g>
<g opacity="0.2">
	<path d="M2.656,0.521C2.656,0,3.177,0,3.177,0h9.379c0,0,0.522,0,0.522,0.521c0,0.521,0,28.663,0,29.704
		c0,1.042-1.042,1.042-1.042,1.042H3.697c0,0-1.041,0.001-1.041-1.042C2.656,26.906,2.656,1.042,2.656,0.521z"/>
</g>
<g opacity="0.2">
	<path d="M1.979,0.521C1.979,0,2.5,0,2.5,0h9.379c0,0,0.522,0,0.522,0.521c0,0.521,0,28.663,0,29.704
		c0,1.042-1.042,1.042-1.042,1.042H3.021c0,0-1.041,0.001-1.041-1.042C1.979,26.906,1.979,1.042,1.979,0.521z"/>
</g>
<g opacity="0.1">
	<path d="M1.771,0.521C1.771,0,2.292,0,2.292,0h9.379c0,0,0.522,0,0.522,0.521c0,0.521,0,28.663,0,29.704
		c0,1.042-1.042,1.042-1.042,1.042H2.813c0,0-1.041,0.001-1.041-1.042C1.771,26.906,1.771,1.042,1.771,0.521z"/>
</g>
<g opacity="0.01">
	<path d="M1.536,0.521C1.536,0,2.057,0,2.057,0h9.379c0,0,0.522,0,0.522,0.521c0,0.521,0,28.663,0,29.704
		c0,1.042-1.042,1.042-1.042,1.042H2.577c0,0-1.041,0.001-1.041-1.042C1.536,26.906,1.536,1.042,1.536,0.521z"/>
</g>
<g opacity="0.01">
	<path d="M1.328,0.521C1.328,0,1.849,0,1.849,0h9.379c0,0,0.522,0,0.522,0.521c0,0.521,0,28.663,0,29.704
		c0,1.042-1.042,1.042-1.042,1.042H2.369c0,0-1.041,0.001-1.041-1.042C1.328,26.906,1.328,1.042,1.328,0.521z"/>
</g>
<g opacity="0.01">
	<path d="M1.094,0.521C1.094,0,1.614,0,1.614,0h9.379c0,0,0.522,0,0.522,0.521c0,0.521,0,28.663,0,29.704
		c0,1.042-1.042,1.042-1.042,1.042H2.135c0,0-1.041,0.001-1.041-1.042C1.094,26.906,1.094,1.042,1.094,0.521z"/>
</g>
<g opacity="0.01">
	<path d="M0.886,0.521C0.886,0,1.406,0,1.406,0h9.379c0,0,0.522,0,0.522,0.521c0,0.521,0,28.663,0,29.704
		c0,1.042-1.042,1.042-1.042,1.042H1.927c0,0-1.041,0.001-1.041-1.042C0.886,26.906,0.886,1.042,0.886,0.521z"/>
</g>
<g opacity="0.01">
	<path d="M0.65,0.521C0.65,0,1.171,0,1.171,0h9.379c0,0,0.522,0,0.522,0.521c0,0.521,0,28.663,0,29.704
		c0,1.042-1.042,1.042-1.042,1.042H1.691c0,0-1.041,0.001-1.041-1.042C0.65,26.906,0.65,1.042,0.65,0.521z"/>
</g>
<g opacity="0.01">
	<path d="M0,0.521C0,0,0.521,0,0.521,0h9.379c0,0,0.522,0,0.522,0.521c0,0.521,0,28.663,0,29.704c0,1.042-1.042,1.042-1.042,1.042
		H1.041c0,0-1.041,0.001-1.041-1.042C0,26.906,0,1.042,0,0.521z"/>
</g>
<g opacity="0.01">
	<path d="M0.208,0.521C0.208,0,0.729,0,0.729,0h9.379c0,0,0.522,0,0.522,0.521c0,0.521,0,28.663,0,29.704
		c0,1.042-1.042,1.042-1.042,1.042H1.249c0,0-1.041,0.001-1.041-1.042C0.208,26.906,0.208,1.042,0.208,0.521z"/>
</g>
<g>
	<path fill="#FFFFFF" d="M3.351,26.578c0,0,2.084,0.521,4.169,0.521c2.085,0,4.169-0.521,4.169-0.521l0.116-26.115H3.017
		L3.351,26.578z"/>
</g>
<g>
	<path fill="#1F509E" d="M2.309,0.521C2.309,0,2.83,0,2.83,0h0.521v26.578c0,0,1.563,0.521,4.169,0.521
		c2.604,0,4.169-0.521,4.169-0.521V0h0.52c0,0,0.522,0,0.522,0.521s0,28.663,0,29.704c0,1.042-1.042,1.042-1.042,1.042H3.351
		c0,0-1.042,0-1.042-1.042C2.309,26.906,2.309,1.042,2.309,0.521z"/>
</g>
<g>
	<linearGradient id="SVGID_1_" gradientUnits="userSpaceOnUse" x1="0.894" y1="13.8584" x2="14.1453" y2="17.4091">
		<stop  offset="0" style="stop-color:#61E8D1"/>
		<stop  offset="0.5" style="stop-color:#57ADB3"/>
		<stop  offset="0.5164" style="stop-color:#52A6B0"/>
		<stop  offset="1" style="stop-color:#3894BF"/>
	</linearGradient>
	<path fill="url(#SVGID_1_)" d="M3.351,26.578c0,0,2.084,0.521,4.169,0.521c2.085,0,4.169-0.521,4.169-0.521V4.69H3.351V26.578z"/>
</g>
<g>
	<path fill="#1F509E" d="M12.209,0c0.002,0,0.522,0,0.522,0.521s0,28.663,0,29.704c0,1.042-1.042,1.042-1.042,1.042H3.351l0,0
		c-0.004,0-1.042-0.001-1.042-1.042c0-3.319,0-29.183,0-29.704C2.309,0,2.83,0,2.83,0H12.209L12.209,0 M12.199,0.5H2.83
		C2.826,0.501,2.8,0.508,2.791,0.514l0.018,29.711c0,0.461,0.343,0.537,0.547,0.542h8.333c0.199-0.005,0.542-0.082,0.542-0.542
		V0.521C12.239,0.509,12.216,0.502,12.199,0.5L12.199,0.5z"/>
</g>
</svg>
