<?xml version="1.0" encoding="utf-8"?>
<!-- Generator: Adobe Illustrator 13.0.0, SVG Export Plug-In  -->
<!DOCTYPE svg PUBLIC "-//W3C//DTD SVG 1.1//EN" "http://www.w3.org/Graphics/SVG/1.1/DTD/svg11.dtd" [
	<!ENTITY ns_flows "http://ns.adobe.com/Flows/1.0/">
]>
<svg version="1.1"
	 xmlns="http://www.w3.org/2000/svg" xmlns:xlink="http://www.w3.org/1999/xlink" xmlns:a="http://ns.adobe.com/AdobeSVGViewerExtensions/3.0/"
	 x="0px" y="0px" width="21px" height="32px" viewBox="-0.29 -0.29 21 32" enable-background="new -0.29 -0.29 21 32"
	 xml:space="preserve">
<defs>
</defs>
<g>
	<path fill="#ED7200" d="M3.895,31.267h12.647v-0.526c-1.885,0-3.487-0.326-4.743-1.581c-1.257-1.26-0.527-5.796-0.527-5.796
		s1.379-0.853,2.635-2.107c1.258-1.257,3.287-4.251,1.581-11.065c-0.527-2.107,0-4.742,0.526-8.958
		c0.065-0.522-0.526-0.527-0.526-0.527H4.948c0,0-0.613,0.007-0.527,0.527c0.527,3.161,1.054,6.85,0.527,8.958
		C3.245,17.005,5.272,20,6.529,21.256c1.257,1.255,2.634,2.107,2.634,2.107S9.892,27.9,8.637,29.16
		c-1.257,1.255-2.857,1.581-4.742,1.581V31.267z"/>
</g>
<g>
	<path fill="#FFFFFF" d="M9.548,21.84h1.258c1.258,0,4.68-1.353,4.68-6.38c0-5.026-1.053-3.504-1.053-7.903
		c0-3.689,0.568-6.85,0.568-6.85H5.476c0,0,0.526,3.08,0.526,6.85c0,3.771-1.054,2.877-1.054,7.903
		C4.948,20.488,8.293,21.84,9.548,21.84z"/>
</g>
<g opacity="0.7">
	<linearGradient id="SVGID_1_" gradientUnits="userSpaceOnUse" x1="4.1694" y1="11.1929" x2="16.1077" y2="14.3917">
		<stop  offset="0" style="stop-color:#FFF280"/>
		<stop  offset="0.4877" style="stop-color:#F7E666"/>
		<stop  offset="0.4918" style="stop-color:#F6D15E"/>
		<stop  offset="1" style="stop-color:#BF7A29"/>
	</linearGradient>
	<path fill="url(#SVGID_1_)" d="M9.548,21.84h1.258c1.258,0,4.68-1.353,4.68-6.38c0-5.026-1.159-4.124-1.054-8.43
		c0.026-1.063,0.153-2.337,0.153-2.337H5.911c0,0,0.112,1.325,0.091,2.337c-0.091,4.307-1.054,3.404-1.054,8.43
		C4.948,20.488,8.293,21.84,9.548,21.84z"/>
</g>
<g>
	<path fill="#ED7200" d="M15.487,0.706c0,0,0.592,0.005,0.526,0.527c-0.526,4.216-1.054,6.85-0.526,8.958
		c1.706,6.814-0.323,9.809-1.581,11.065c-1.256,1.255-2.635,2.107-2.635,2.107s-0.729,4.536,0.527,5.796
		c1.256,1.255,2.858,1.581,4.743,1.581v0.526H3.895v-0.526c1.885,0,3.485-0.326,4.742-1.581c1.255-1.26,0.527-5.796,0.527-5.796
		s-1.377-0.853-2.634-2.107C5.272,20,3.245,17.005,4.948,10.191c0.527-2.107,0-5.796-0.527-8.958
		c-0.086-0.52,0.527-0.527,0.527-0.527H15.487 M15.477,1.206H4.948c-0.006,0-0.014,0.001-0.023,0.003
		c0.58,3.49,1.037,6.989,0.508,9.103c-1.196,4.784-0.695,8.446,1.45,10.591c1.202,1.2,2.531,2.027,2.544,2.036l0.194,0.12
		l0.036,0.226c0.079,0.49,0.729,4.828-0.667,6.228c-0.602,0.601-1.273,0.996-1.963,1.255h6.379
		c-0.689-0.259-1.361-0.653-1.962-1.254c-1.397-1.4-0.746-5.738-0.668-6.229l0.037-0.226l0.194-0.12
		c0.013-0.009,1.347-0.84,2.544-2.036c2.146-2.145,2.647-5.807,1.449-10.59c-0.457-1.826-0.164-4.014,0.241-7.042
		c0.086-0.642,0.178-1.327,0.27-2.059C15.5,1.208,15.488,1.207,15.477,1.206L15.477,1.206z"/>
</g>
<g display="none">
	<path display="inline" fill="#FFFFFF" d="M10.557,11.019c1.174,0,2.346-1.266,2.346-1.266l6.809-8.947H0.969l6.656,8.947
		c0,0,1.172,1.266,2.345,1.266C10.557,11.019,10.557,11.019,10.557,11.019z"/>
</g>
<g display="none">
	<path display="inline" fill="#007F2C" d="M19.94,0.264c0.588,0,0.588,0.634,0.588,0.634l-8.797,12.02c0,0-0.59,0.632-0.59,1.263
		c0,0.633,0,12.022,0,12.022s0,1.898,0.59,2.53C12.315,29.363,14.663,30,17.008,30v0.63H3.519V30c2.346,0,4.692-0.637,5.278-1.267
		c0.587-0.634,0.587-2.53,0.587-2.53s0-11.389,0-12.022c0-0.631-0.587-1.263-0.587-1.263L0,0.897c0,0,0-0.634,0.587-0.634
		C3.828,0.264,19.415,0.264,19.94,0.264 M19.94,0.764H0.587C0.569,0.77,0.554,0.78,0.542,0.792l8.643,11.809
		c0.134,0.151,0.699,0.828,0.699,1.58v12.022c0,0.35-0.035,2.13-0.72,2.87c-0.389,0.419-1.288,0.796-2.402,1.057h7.002
		c-1.114-0.261-2.012-0.638-2.399-1.057c-0.688-0.737-0.724-2.521-0.724-2.87V14.181c0-0.751,0.566-1.428,0.702-1.58l8.651-11.822
		c-0.002-0.005-0.005-0.008-0.008-0.011l0,0C19.985,0.768,19.969,0.764,19.94,0.764L19.94,0.764z"/>
</g>
<g display="none">
	<linearGradient id="SVGID_2_" gradientUnits="userSpaceOnUse" x1="3.3086" y1="4.8433" x2="15.8939" y2="8.2155">
		<stop  offset="0" style="stop-color:#ABEDBF"/>
		<stop  offset="0.5123" style="stop-color:#80DB96"/>
		<stop  offset="0.5287" style="stop-color:#74C98C"/>
		<stop  offset="1" style="stop-color:#4AA685"/>
	</linearGradient>
	<path display="inline" fill="url(#SVGID_2_)" d="M10.557,11.019c1.174,0,2.346-1.266,2.346-1.266l4.105-5.694H3.519l4.105,5.694
		c0,0,1.172,1.266,2.345,1.266C10.557,11.019,10.557,11.019,10.557,11.019z"/>
</g>
<g display="none">
	<path display="inline" fill="#007F2C" d="M19.94,0.264c-0.078,0-5.863,7.592-5.863,7.592l-1.174,1.898c0,0-1.172,1.266-2.346,1.266
		H9.969c-1.172,0-2.345-1.266-2.345-1.266l-3.52-5.061c0,0-3.354-4.429-3.518-4.429C0,0.264,0,0.897,0,0.897l8.797,12.02
		c0,0,0.587,0.632,0.587,1.263c0,0.633,0,12.022,0,12.022s0,1.898-0.587,2.53C8.211,29.363,5.865,30,3.519,30v0.63h13.489V30
		c-2.346,0-4.693-0.637-5.277-1.267c-0.59-0.632-0.59-2.53-0.59-2.53s0-11.389,0-12.022c0-0.631,0.59-1.263,0.59-1.263l8.797-12.02
		C20.528,0.897,20.528,0.264,19.94,0.264z"/>
</g>
<g display="none">
	<path display="inline" fill="#FFFFFF" d="M6.363,26.578c0,0,2.084,0.521,4.169,0.521c2.085,0,4.169-0.521,4.169-0.521l0.116-26.115
		H6.029L6.363,26.578z"/>
</g>
<g display="none">
	<path display="inline" fill="#1F509E" d="M5.321,0.521C5.321,0,5.842,0,5.842,0h0.521v26.578c0,0,1.563,0.521,4.169,0.521
		c2.605,0,4.169-0.521,4.169-0.521V0h0.52c0,0,0.522,0,0.522,0.521s0,28.663,0,29.704c0,1.042-1.042,1.042-1.042,1.042H6.363
		c0,0-1.042,0-1.042-1.042C5.321,26.906,5.321,1.042,5.321,0.521z"/>
</g>
<g display="none">
	<linearGradient id="SVGID_3_" gradientUnits="userSpaceOnUse" x1="3.9063" y1="13.8579" x2="17.1585" y2="17.4088">
		<stop  offset="0" style="stop-color:#61E8D1"/>
		<stop  offset="0.5" style="stop-color:#57ADB3"/>
		<stop  offset="0.5164" style="stop-color:#52A6B0"/>
		<stop  offset="1" style="stop-color:#3894BF"/>
	</linearGradient>
	<path display="inline" fill="url(#SVGID_3_)" d="M6.363,26.578c0,0,2.084,0.521,4.169,0.521c2.085,0,4.169-0.521,4.169-0.521V4.69
		H6.363V26.578z"/>
</g>
<g display="none">
	<path display="inline" fill="#1F509E" d="M6.674,26.155c0,0,1.996,0.498,3.992,0.498s3.992-0.498,3.992-0.498V5.197H6.674V26.155z"
		/>
</g>
<g display="none">
	<path display="inline" fill="#1F509E" d="M15.221,0c0.002,0,0.522,0,0.522,0.521s0,28.663,0,29.704
		c0,1.042-1.042,1.042-1.042,1.042H6.363l0,0c-0.004,0-1.042-0.001-1.042-1.042c0-3.319,0-29.183,0-29.704C5.321,0,5.842,0,5.842,0
		H15.221L15.221,0 M15.211,0.5H5.842c-0.004,0.001-0.03,0.008-0.039,0.013l0.018,29.711c0,0.461,0.343,0.537,0.547,0.542h8.333
		c0.199-0.005,0.542-0.082,0.542-0.542V0.521C15.251,0.509,15.228,0.502,15.211,0.5L15.211,0.5z"/>
</g>
</svg>
