<?xml version="1.0" encoding="utf-8"?>
<!-- Generator: Adobe Illustrator 13.0.0, SVG Export Plug-In  -->
<!DOCTYPE svg PUBLIC "-//W3C//DTD SVG 1.1//EN" "http://www.w3.org/Graphics/SVG/1.1/DTD/svg11.dtd" [
	<!ENTITY ns_flows "http://ns.adobe.com/Flows/1.0/">
]>
<svg version="1.1"
	 xmlns="http://www.w3.org/2000/svg" xmlns:xlink="http://www.w3.org/1999/xlink" xmlns:a="http://ns.adobe.com/AdobeSVGViewerExtensions/3.0/"
	 x="0px" y="0px" width="32px" height="32px" viewBox="-4.122 -0.553 32 32" enable-background="new -4.122 -0.553 32 32"
	 xml:space="preserve">
<defs>
</defs>
<g opacity="0.01">
	<path d="M24.388,0C23.863,0,8.277,0,5.035,0C4.448,0,4.448,0.647,4.448,0.647l8.797,12.271c0,0,0.586,0.645,0.586,1.29
		c0,0.646,0,12.272,0,12.272s0,1.937-0.586,2.584c-0.586,0.643-2.933,1.293-5.278,1.293V31h13.489v-0.643
		c-2.346,0-4.693-0.65-5.277-1.293c-0.59-0.646-0.59-2.584-0.59-2.584s0-11.626,0-12.272c0-0.645,0.59-1.29,0.59-1.29l8.797-12.271
		C24.976,0.647,24.976,0,24.388,0z"/>
</g>
<g opacity="0.01">
	<path d="M24.235,0C23.709,0,8.124,0,4.881,0C4.295,0,4.295,0.647,4.295,0.647l8.797,12.271c0,0,0.586,0.645,0.586,1.29
		c0,0.646,0,12.272,0,12.272s0,1.937-0.586,2.584c-0.586,0.643-2.933,1.293-5.278,1.293V31h13.489v-0.643
		c-2.346,0-4.693-0.65-5.277-1.293c-0.59-0.646-0.59-2.584-0.59-2.584s0-11.626,0-12.272c0-0.645,0.59-1.29,0.59-1.29l8.797-12.271
		C24.823,0.647,24.823,0,24.235,0z"/>
</g>
<g opacity="0.01">
	<path d="M23.945,0C23.419,0,7.833,0,4.592,0C4.005,0,4.005,0.647,4.005,0.647l8.797,12.271c0,0,0.586,0.645,0.586,1.29
		c0,0.646,0,12.272,0,12.272s0,1.937-0.586,2.584c-0.586,0.643-2.932,1.293-5.277,1.293V31h13.488v-0.643
		c-2.346,0-4.693-0.65-5.277-1.293c-0.59-0.646-0.59-2.584-0.59-2.584s0-11.626,0-12.272c0-0.645,0.59-1.29,0.59-1.29l8.797-12.271
		C24.533,0.647,24.533,0,23.945,0z"/>
</g>
<g opacity="0.01">
	<path d="M23.792,0C23.266,0,7.68,0,4.439,0C3.852,0,3.852,0.647,3.852,0.647l8.797,12.271c0,0,0.586,0.645,0.586,1.29
		c0,0.646,0,12.272,0,12.272s0,1.937-0.586,2.584c-0.586,0.643-2.932,1.293-5.277,1.293V31H20.86v-0.643
		c-2.346,0-4.693-0.65-5.277-1.293c-0.59-0.646-0.59-2.584-0.59-2.584s0-11.626,0-12.272c0-0.645,0.59-1.29,0.59-1.29l8.797-12.271
		C24.379,0.647,24.379,0,23.792,0z"/>
</g>
<g opacity="0.01">
	<path d="M23.501,0C22.976,0,7.39,0,4.149,0C3.562,0,3.562,0.647,3.562,0.647l8.797,12.271c0,0,0.586,0.645,0.586,1.29
		c0,0.646,0,12.272,0,12.272s0,1.937-0.586,2.584c-0.586,0.643-2.932,1.293-5.277,1.293V31H20.57v-0.643
		c-2.346,0-4.693-0.65-5.277-1.293c-0.59-0.646-0.59-2.584-0.59-2.584s0-11.626,0-12.272c0-0.645,0.59-1.29,0.59-1.29l8.797-12.271
		C24.089,0.647,24.089,0,23.501,0z"/>
</g>
<g opacity="0.01">
	<path d="M23.348,0C22.823,0,7.237,0,3.995,0C3.408,0,3.408,0.647,3.408,0.647l8.797,12.271c0,0,0.586,0.645,0.586,1.29
		c0,0.646,0,12.272,0,12.272s0,1.937-0.586,2.584c-0.586,0.643-2.932,1.293-5.277,1.293V31h13.488v-0.643
		c-2.346,0-4.693-0.65-5.277-1.293c-0.59-0.646-0.59-2.584-0.59-2.584s0-11.626,0-12.272c0-0.645,0.59-1.29,0.59-1.29l8.797-12.271
		C23.936,0.647,23.936,0,23.348,0z"/>
</g>
<g opacity="0.01">
	<path d="M23.059,0C22.534,0,6.948,0,3.706,0C3.119,0,3.119,0.647,3.119,0.647l8.797,12.271c0,0,0.586,0.645,0.586,1.29
		c0,0.646,0,12.272,0,12.272s0,1.937-0.586,2.584c-0.586,0.643-2.932,1.293-5.277,1.293V31h13.488v-0.643
		c-2.346,0-4.693-0.65-5.277-1.293c-0.59-0.646-0.59-2.584-0.59-2.584s0-11.626,0-12.272c0-0.645,0.59-1.29,0.59-1.29l8.797-12.271
		C23.647,0.647,23.647,0,23.059,0z"/>
</g>
<g opacity="0.01">
	<path d="M22.906,0C22.38,0,6.794,0,3.553,0C2.966,0,2.966,0.647,2.966,0.647l8.797,12.271c0,0,0.586,0.645,0.586,1.29
		c0,0.646,0,12.272,0,12.272s0,1.937-0.586,2.584c-0.586,0.643-2.932,1.293-5.277,1.293V31h13.488v-0.643
		c-2.346,0-4.693-0.65-5.277-1.293c-0.59-0.646-0.59-2.584-0.59-2.584s0-11.626,0-12.272c0-0.645,0.59-1.29,0.59-1.29l8.797-12.271
		C23.494,0.647,23.494,0,22.906,0z"/>
</g>
<g opacity="0.1">
	<path d="M22.617,0C22.091,0,6.505,0,3.264,0C2.677,0,2.677,0.647,2.677,0.647l8.797,12.271c0,0,0.586,0.645,0.586,1.29
		c0,0.646,0,12.272,0,12.272s0,1.937-0.586,2.584c-0.586,0.643-2.932,1.293-5.277,1.293V31h13.488v-0.643
		c-2.346,0-4.693-0.65-5.277-1.293c-0.59-0.646-0.59-2.584-0.59-2.584s0-11.626,0-12.272c0-0.645,0.59-1.29,0.59-1.29l8.797-12.271
		C23.205,0.647,23.205,0,22.617,0z"/>
</g>
<g opacity="0.2">
	<path d="M22.462,0C21.937,0,6.351,0,3.109,0C2.522,0,2.522,0.647,2.522,0.647l8.797,12.271c0,0,0.586,0.645,0.586,1.29
		c0,0.646,0,12.272,0,12.272s0,1.937-0.586,2.584c-0.586,0.643-2.932,1.293-5.277,1.293V31h13.488v-0.643
		c-2.346,0-4.693-0.65-5.277-1.293c-0.59-0.646-0.59-2.584-0.59-2.584s0-11.626,0-12.272c0-0.645,0.59-1.29,0.59-1.29L23.05,0.647
		C23.05,0.647,23.05,0,22.462,0z"/>
</g>
<g opacity="0.2">
	<path d="M21.866,0C21.34,0,5.754,0,2.513,0C1.926,0,1.926,0.647,1.926,0.647l8.797,12.271c0,0,0.586,0.645,0.586,1.29
		c0,0.646,0,12.272,0,12.272s0,1.937-0.586,2.584c-0.586,0.643-2.933,1.293-5.278,1.293V31h13.489v-0.643
		c-2.346,0-4.693-0.65-5.277-1.293c-0.59-0.646-0.59-2.584-0.59-2.584s0-11.626,0-12.272c0-0.645,0.59-1.29,0.59-1.29l8.797-12.271
		C22.454,0.647,22.454,0,21.866,0z"/>
</g>
<g opacity="0.1">
	<path d="M21.712,0C21.187,0,5.601,0,2.359,0C1.772,0,1.772,0.647,1.772,0.647l8.797,12.271c0,0,0.586,0.645,0.586,1.29
		c0,0.646,0,12.272,0,12.272s0,1.937-0.586,2.584c-0.586,0.643-2.933,1.293-5.278,1.293V31h13.489v-0.643
		c-2.346,0-4.693-0.65-5.277-1.293c-0.59-0.646-0.59-2.584-0.59-2.584s0-11.626,0-12.272c0-0.645,0.59-1.29,0.59-1.29L22.3,0.647
		C22.3,0.647,22.3,0,21.712,0z"/>
</g>
<g opacity="0.01">
	<path d="M21.422,0C20.897,0,5.311,0,2.07,0C1.483,0,1.483,0.647,1.483,0.647l8.797,12.271c0,0,0.586,0.645,0.586,1.29
		c0,0.646,0,12.272,0,12.272s0,1.937-0.586,2.584c-0.586,0.643-2.932,1.293-5.277,1.293V31h13.488v-0.643
		c-2.346,0-4.693-0.65-5.277-1.293c-0.59-0.646-0.59-2.584-0.59-2.584s0-11.626,0-12.272c0-0.645,0.59-1.29,0.59-1.29L22.01,0.647
		C22.01,0.647,22.01,0,21.422,0z"/>
</g>
<g opacity="0.01">
	<path d="M21.269,0C20.744,0,5.158,0,1.917,0C1.33,0,1.33,0.647,1.33,0.647l8.797,12.271c0,0,0.586,0.645,0.586,1.29
		c0,0.646,0,12.272,0,12.272s0,1.937-0.586,2.584c-0.586,0.643-2.932,1.293-5.277,1.293V31h13.488v-0.643
		c-2.346,0-4.693-0.65-5.277-1.293c-0.59-0.646-0.59-2.584-0.59-2.584s0-11.626,0-12.272c0-0.645,0.59-1.29,0.59-1.29l8.797-12.271
		C21.857,0.647,21.857,0,21.269,0z"/>
</g>
<g opacity="0.01">
	<path d="M20.979,0C20.454,0,4.868,0,1.626,0C1.04,0,1.04,0.647,1.04,0.647l8.797,12.271c0,0,0.586,0.645,0.586,1.29
		c0,0.646,0,12.272,0,12.272s0,1.937-0.586,2.584c-0.586,0.643-2.932,1.293-5.277,1.293V31h13.488v-0.643
		c-2.346,0-4.693-0.65-5.277-1.293c-0.59-0.646-0.59-2.584-0.59-2.584s0-11.626,0-12.272c0-0.645,0.59-1.29,0.59-1.29l8.797-12.271
		C21.567,0.647,21.567,0,20.979,0z"/>
</g>
<g opacity="0.01">
	<path d="M20.826,0C20.3,0,4.714,0,1.473,0C0.886,0,0.886,0.647,0.886,0.647l8.797,12.271c0,0,0.586,0.645,0.586,1.29
		c0,0.646,0,12.272,0,12.272s0,1.937-0.586,2.584c-0.586,0.643-2.932,1.293-5.277,1.293V31h13.488v-0.643
		c-2.346,0-4.693-0.65-5.277-1.293c-0.59-0.646-0.59-2.584-0.59-2.584s0-11.626,0-12.272c0-0.645,0.59-1.29,0.59-1.29l8.797-12.271
		C21.414,0.647,21.414,0,20.826,0z"/>
</g>
<g opacity="0.01">
	<path d="M20.537,0C20.011,0,4.425,0,1.184,0C0.597,0,0.597,0.647,0.597,0.647l8.797,12.271c0,0,0.586,0.645,0.586,1.29
		c0,0.646,0,12.272,0,12.272s0,1.937-0.586,2.584c-0.586,0.643-2.932,1.293-5.277,1.293V31h13.488v-0.643
		c-2.346,0-4.693-0.65-5.277-1.293c-0.59-0.646-0.59-2.584-0.59-2.584s0-11.626,0-12.272c0-0.645,0.59-1.29,0.59-1.29l8.797-12.271
		C21.125,0.647,21.125,0,20.537,0z"/>
</g>
<g opacity="0.01">
	<path d="M20.383,0C19.858,0,4.272,0,1.03,0C0.443,0,0.443,0.647,0.443,0.647l8.797,12.271c0,0,0.586,0.645,0.586,1.29
		c0,0.646,0,12.272,0,12.272s0,1.937-0.586,2.584c-0.586,0.643-2.932,1.293-5.277,1.293V31h13.488v-0.643
		c-2.346,0-4.693-0.65-5.277-1.293c-0.59-0.646-0.59-2.584-0.59-2.584s0-11.626,0-12.272c0-0.645,0.59-1.29,0.59-1.29l8.797-12.271
		C20.971,0.647,20.971,0,20.383,0z"/>
</g>
<g opacity="0.01">
	<path d="M20.094,0C19.569,0,3.983,0,0.741,0C0.154,0,0.154,0.647,0.154,0.647l8.797,12.271c0,0,0.586,0.645,0.586,1.29
		c0,0.646,0,12.272,0,12.272s0,1.937-0.586,2.584c-0.586,0.643-2.932,1.293-5.277,1.293V31h13.488v-0.643
		c-2.346,0-4.693-0.65-5.277-1.293c-0.59-0.646-0.59-2.584-0.59-2.584s0-11.626,0-12.272c0-0.645,0.59-1.29,0.59-1.29l8.797-12.271
		C20.682,0.647,20.682,0,20.094,0z"/>
</g>
<g opacity="0.01">
	<path d="M19.94,0C19.415,0,3.829,0,0.587,0C0,0,0,0.647,0,0.647l8.797,12.271c0,0,0.586,0.645,0.586,1.29
		c0,0.646,0,12.272,0,12.272s0,1.937-0.586,2.584c-0.586,0.643-2.932,1.293-5.277,1.293V31h13.488v-0.643
		c-2.346,0-4.693-0.65-5.277-1.293c-0.59-0.646-0.59-2.584-0.59-2.584s0-11.626,0-12.272c0-0.645,0.59-1.29,0.59-1.29l8.797-12.271
		C20.528,0.647,20.528,0,19.94,0z"/>
</g>
<g>
	<path fill="#FFFFFF" d="M12.724,10.912c1.175,0,2.347-1.284,2.347-1.284l6.809-9.077H3.137l6.656,9.077
		c0,0,1.172,1.284,2.345,1.284C12.724,10.912,12.724,10.912,12.724,10.912z"/>
</g>
<g>
	<path fill="#007F2C" d="M22.108,0c0.588,0,0.588,0.647,0.588,0.647l-8.797,12.271c0,0-0.59,0.645-0.59,1.29
		c0,0.646,0,12.272,0,12.272s0,1.938,0.59,2.584c0.584,0.643,2.932,1.293,5.277,1.293V31H5.687v-0.643
		c2.346,0,4.692-0.65,5.278-1.293c0.587-0.647,0.587-2.584,0.587-2.584s0-11.626,0-12.272c0-0.645-0.587-1.29-0.587-1.29
		L2.168,0.647c0,0,0-0.647,0.587-0.647C5.996,0,21.583,0,22.108,0 M22.108,0.5H2.755C2.734,0.508,2.719,0.522,2.706,0.54
		l8.65,12.066c0.133,0.152,0.696,0.841,0.696,1.602V26.48c0,0.355-0.035,2.168-0.716,2.92c-0.4,0.438-1.336,0.832-2.491,1.1h7.173
		c-1.154-0.268-2.09-0.661-2.488-1.1c-0.685-0.749-0.72-2.563-0.72-2.92V14.208c0-0.761,0.564-1.449,0.699-1.603l8.658-12.078
		c-0.005-0.011-0.011-0.019-0.016-0.024L22.108,0.5L22.108,0.5z"/>
</g>
<g>
	<linearGradient id="SVGID_1_" gradientUnits="userSpaceOnUse" x1="5.4639" y1="4.6812" x2="18.0492" y2="8.0534">
		<stop  offset="0" style="stop-color:#ABEDBF"/>
		<stop  offset="0.5123" style="stop-color:#80DB96"/>
		<stop  offset="0.5287" style="stop-color:#74C98C"/>
		<stop  offset="1" style="stop-color:#4AA685"/>
	</linearGradient>
	<path fill="url(#SVGID_1_)" d="M12.724,10.912c1.175,0,2.347-1.284,2.347-1.284l4.105-5.777H5.687l4.105,5.777
		c0,0,1.172,1.284,2.345,1.284C12.724,10.912,12.724,10.912,12.724,10.912z"/>
</g>
<g>
	<path fill="#007F2C" d="M22.108,0c-0.078,0-5.863,7.75-5.863,7.75l-1.174,1.938c0,0-1.172,1.292-2.347,1.292h-0.587
		c-1.172,0-2.345-1.292-2.345-1.292l-3.52-5.167c0,0-3.354-4.521-3.518-4.521C2.168,0,2.168,0.647,2.168,0.647l8.797,12.271
		c0,0,0.587,0.645,0.587,1.29c0,0.646,0,12.272,0,12.272s0,1.938-0.587,2.584c-0.586,0.643-2.932,1.293-5.278,1.293V31h13.489
		v-0.643c-2.346,0-4.693-0.65-5.277-1.293c-0.59-0.646-0.59-2.584-0.59-2.584s0-11.626,0-12.272c0-0.645,0.59-1.29,0.59-1.29
		l8.797-12.271C22.696,0.647,22.696,0,22.108,0z"/>
</g>
</svg>
