<?xml version="1.0" encoding="utf-8"?>
<!-- Generator: Adobe Illustrator 13.0.0, SVG Export Plug-In  -->
<!DOCTYPE svg PUBLIC "-//W3C//DTD SVG 1.1//EN" "http://www.w3.org/Graphics/SVG/1.1/DTD/svg11.dtd" [
	<!ENTITY ns_flows "http://ns.adobe.com/Flows/1.0/">
]>
<svg version="1.1"
	 xmlns="http://www.w3.org/2000/svg" xmlns:xlink="http://www.w3.org/1999/xlink" xmlns:a="http://ns.adobe.com/AdobeSVGViewerExtensions/3.0/"
	 x="0px" y="0px" width="21px" height="32px" viewBox="-0.29 -0.29 21 32" enable-background="new -0.29 -0.29 21 32"
	 xml:space="preserve">
<defs>
</defs>
<g display="none">
	<path display="inline" fill="#ED7200" d="M5.025,31.267h10.563V30.74c-1.584,0-2.641-0.529-3.696-1.584
		c-1.057-1.059-0.529-4.227-0.529-4.227s0.529-1.059,1.585-2.113c1.057-1.057,2.641-3.17,1.584-8.979
		c-0.574-3.161,0-11.621,0.529-12.677c0.333-0.668,0-1.056,0-1.056H5.554c0,0-0.336,0.388,0,1.056
		c0.527,1.056,1.102,9.516,0.527,12.677c-1.056,5.809,0.528,7.922,1.585,8.979c1.057,1.055,1.585,2.113,1.585,2.113
		s0.527,3.168-0.528,4.227C7.666,30.21,6.609,30.74,5.025,30.74V31.267z"/>
</g>
<g display="none">
	<path display="inline" fill="#FFFFFF" d="M9.778,23.343h1.058c1.057,0,3.169-1.584,3.169-5.811c0-4.225-0.527-3.696-0.527-7.394
		c0-3.697,1.055-10.035,1.055-10.035H6.081c0,0,1.058,6.866,1.058,10.035c0,3.169-0.53,3.169-0.53,7.394
		C6.609,21.759,8.723,23.343,9.778,23.343z"/>
</g>
<g display="none" opacity="0.7">
	<linearGradient id="SVGID_1_" gradientUnits="userSpaceOnUse" x1="3.9736" y1="11.1382" x2="15.2818" y2="14.1682">
		<stop  offset="0" style="stop-color:#FFF280"/>
		<stop  offset="0.4877" style="stop-color:#F7E666"/>
		<stop  offset="0.4918" style="stop-color:#F6D15E"/>
		<stop  offset="1" style="stop-color:#BF7A29"/>
	</linearGradient>
	<path display="inline" fill="url(#SVGID_1_)" d="M9.778,23.343h1.058c1.057,0,3.169-1.584,3.169-5.811
		c0-4.225-0.527-3.696-0.527-7.394c0-3.697,1.055-6.866,1.055-6.866H6.081c0,0,1.058,3.697,1.058,6.866
		c0,3.169-0.53,3.169-0.53,7.394C6.609,21.759,8.723,23.343,9.778,23.343z"/>
</g>
<g display="none">
	<path display="inline" fill="#ED7200" d="M15.061,0.104c0,0,0.333,0.388,0,1.056c-0.529,1.056-1.104,9.516-0.529,12.677
		c1.057,5.809-0.527,7.922-1.584,8.979c-1.056,1.055-1.585,2.111-1.585,2.111s-0.527,3.17,0.529,4.229
		c1.056,1.055,2.112,1.584,3.696,1.584v0.527H5.025V30.74c1.584,0,2.641-0.529,3.698-1.584c1.055-1.059,0.528-4.229,0.528-4.229
		s-0.528-1.057-1.585-2.111c-1.057-1.057-2.641-3.17-1.585-8.979c0.575-3.161,0-11.621-0.527-12.677c-0.336-0.668,0-1.056,0-1.056
		H15.061 M14.708,0.604H5.905c0.002,0.083,0.026,0.193,0.096,0.332c0.643,1.289,1.131,9.916,0.572,12.991
		c-1.091,6.001,0.753,7.843,1.447,8.536c1.102,1.1,1.656,2.195,1.679,2.242l0.034,0.066l0.012,0.074
		c0.058,0.352,0.535,3.459-0.667,4.664c-0.564,0.563-1.128,0.977-1.733,1.258h5.926c-0.604-0.281-1.168-0.695-1.731-1.258
		c-1.204-1.205-0.728-4.313-0.669-4.664l0.013-0.074l0.033-0.066c0.023-0.047,0.578-1.143,1.679-2.242
		c0.694-0.693,2.537-2.535,1.445-8.536c-0.56-3.08-0.069-11.706,0.574-12.99C14.683,0.797,14.707,0.687,14.708,0.604L14.708,0.604z"
		/>
</g>
<g display="none">
	<path display="inline" fill="#FFFFFF" d="M10.557,10.234c1.174,0,2.346-1.173,2.346-1.173l6.809-8.294H0.969l6.656,8.294
		c0,0,1.172,1.173,2.345,1.173C10.557,10.234,10.557,10.234,10.557,10.234z"/>
</g>
<g display="none">
	<path display="inline" fill="#007F2C" d="M19.94,0.264c0.588,0,0.588,0.587,0.588,0.587l-8.797,11.144c0,0-0.59,0.585-0.59,1.171
		c0,0.587,0,11.146,0,11.146s0,1.76,0.59,2.346c0.584,0.584,2.932,1.174,5.277,1.174v0.584H3.519v-0.584
		c2.346,0,4.692-0.59,5.278-1.174c0.587-0.588,0.587-2.346,0.587-2.346s0-10.559,0-11.146c0-0.585-0.587-1.171-0.587-1.171L0,0.851
		c0,0,0-0.587,0.587-0.587C3.828,0.264,19.415,0.264,19.94,0.264 M19.94,0.764H0.587c-0.007,0-0.013,0-0.019,0l8.604,10.9
		c0.139,0.144,0.711,0.783,0.711,1.501v11.146c0,0.328-0.035,2-0.733,2.699c-0.351,0.35-1.117,0.668-2.082,0.904h6.389
		c-0.965-0.236-1.73-0.555-2.08-0.904c-0.7-0.697-0.736-2.371-0.736-2.699V13.166c0-0.718,0.574-1.357,0.713-1.502l8.605-10.899
		C19.954,0.764,19.948,0.764,19.94,0.764L19.94,0.764z"/>
</g>
<g display="none">
	<linearGradient id="SVGID_2_" gradientUnits="userSpaceOnUse" x1="3.3721" y1="4.332" x2="15.9574" y2="7.7043">
		<stop  offset="0" style="stop-color:#ABEDBF"/>
		<stop  offset="0.5123" style="stop-color:#80DB96"/>
		<stop  offset="0.5287" style="stop-color:#74C98C"/>
		<stop  offset="1" style="stop-color:#4AA685"/>
	</linearGradient>
	<path display="inline" fill="url(#SVGID_2_)" d="M10.557,10.234c1.174,0,2.346-1.173,2.346-1.173l4.105-5.279H3.519l4.105,5.279
		c0,0,1.172,1.173,2.345,1.173C10.557,10.234,10.557,10.234,10.557,10.234z"/>
</g>
<g display="none">
	<path display="inline" fill="#007F2C" d="M19.94,0.264c-0.078,0-5.863,7.038-5.863,7.038l-1.174,1.759c0,0-1.172,1.173-2.346,1.173
		H9.969c-1.172,0-2.345-1.173-2.345-1.173l-3.52-4.692c0,0-3.354-4.105-3.518-4.105C0,0.264,0,0.851,0,0.851l8.797,11.144
		c0,0,0.587,0.585,0.587,1.171c0,0.587,0,11.146,0,11.146s0,1.76-0.587,2.346c-0.586,0.584-2.932,1.174-5.278,1.174v0.584h13.489
		v-0.584c-2.346,0-4.693-0.59-5.277-1.174c-0.59-0.586-0.59-2.346-0.59-2.346s0-10.559,0-11.146c0-0.585,0.59-1.171,0.59-1.171
		l8.797-11.144C20.528,0.851,20.528,0.264,19.94,0.264z"/>
</g>
<g>
	<path fill="#FFFFFF" d="M6.363,26.578c0,0,2.084,0.521,4.169,0.521c2.085,0,4.169-0.521,4.169-0.521l0.116-26.115H6.029
		L6.363,26.578z"/>
</g>
<g>
	<path fill="#1F509E" d="M5.321,0.521C5.321,0,5.842,0,5.842,0h0.521v26.578c0,0,1.563,0.521,4.169,0.521
		c2.605,0,4.169-0.521,4.169-0.521V0h0.52c0,0,0.522,0,0.522,0.521s0,28.663,0,29.704c0,1.042-1.042,1.042-1.042,1.042H6.363
		c0,0-1.042,0-1.042-1.042C5.321,26.906,5.321,1.042,5.321,0.521z"/>
</g>
<g>
	<linearGradient id="SVGID_3_" gradientUnits="userSpaceOnUse" x1="3.9063" y1="13.8579" x2="17.1585" y2="17.4088">
		<stop  offset="0" style="stop-color:#61E8D1"/>
		<stop  offset="0.5" style="stop-color:#57ADB3"/>
		<stop  offset="0.5164" style="stop-color:#52A6B0"/>
		<stop  offset="1" style="stop-color:#3894BF"/>
	</linearGradient>
	<path fill="url(#SVGID_3_)" d="M6.363,26.578c0,0,2.084,0.521,4.169,0.521c2.085,0,4.169-0.521,4.169-0.521V4.69H6.363V26.578z"/>
</g>
<g display="none">
	<path display="inline" fill="#1F509E" d="M6.674,26.155c0,0,1.996,0.498,3.992,0.498s3.992-0.498,3.992-0.498V5.197H6.674V26.155z"
		/>
</g>
<g>
	<path fill="#1F509E" d="M15.221,0c0.002,0,0.522,0,0.522,0.521s0,28.663,0,29.704c0,1.042-1.042,1.042-1.042,1.042H6.363l0,0
		c-0.004,0-1.042-0.001-1.042-1.042c0-3.319,0-29.183,0-29.704C5.321,0,5.842,0,5.842,0H15.221L15.221,0 M15.211,0.5H5.842
		c-0.004,0.001-0.03,0.008-0.039,0.013l0.018,29.711c0,0.461,0.343,0.537,0.547,0.542h8.333c0.199-0.005,0.542-0.082,0.542-0.542
		V0.521C15.251,0.509,15.228,0.502,15.211,0.5L15.211,0.5z"/>
</g>
</svg>
