<?xml version="1.0" encoding="utf-8"?>
<!-- Generator: Adobe Illustrator 13.0.0, SVG Export Plug-In  -->
<!DOCTYPE svg PUBLIC "-//W3C//DTD SVG 1.1//EN" "http://www.w3.org/Graphics/SVG/1.1/DTD/svg11.dtd" [
	<!ENTITY ns_flows "http://ns.adobe.com/Flows/1.0/">
]>
<svg version="1.1"
	 xmlns="http://www.w3.org/2000/svg" xmlns:xlink="http://www.w3.org/1999/xlink" xmlns:a="http://ns.adobe.com/AdobeSVGViewerExtensions/3.0/"
	 x="0px" y="0px" width="45px" height="50px" viewBox="0 0.048 45 50" enable-background="new 0 0.048 45 50" xml:space="preserve">
<defs>
</defs>
<g>
	<linearGradient id="SVGID_1_" gradientUnits="userSpaceOnUse" x1="14.8574" y1="25.2021" x2="30.6353" y2="25.2021">
		<stop  offset="0" style="stop-color:#999999"/>
		<stop  offset="0.0246" style="stop-color:#C8CFC8"/>
		<stop  offset="0.2" style="stop-color:#E9EAED"/>
		<stop  offset="0.2173" style="stop-color:#EBECEF"/>
		<stop  offset="0.375" style="stop-color:#FAFAFB"/>
		<stop  offset="0.5054" style="stop-color:#FFFFFF"/>
		<stop  offset="0.5138" style="stop-color:#FDFDFD"/>
		<stop  offset="0.5906" style="stop-color:#EEEFF1"/>
		<stop  offset="0.6541" style="stop-color:#E9EAED"/>
		<stop  offset="0.6723" style="stop-color:#E9EAEC"/>
		<stop  offset="0.8622" style="stop-color:#E9EBE7"/>
		<stop  offset="0.959" style="stop-color:#E9EBE7"/>
		<stop  offset="1" style="stop-color:#999999"/>
	</linearGradient>
	<path fill="url(#SVGID_1_)" d="M30.073,48.716h-0.074h-7.256h-7.253h-0.074v-0.074v-0.557v-0.074h0.074
		c0.066,0,6.625-0.04,6.625-3.272V39.29c0.002-3.081,0.002-6.161,0.002-6.831c-0.002-0.59-0.464-0.952-0.912-1.303
		c-0.363-0.283-0.703-0.549-0.765-0.918c-0.462-2.777-1.482-6.066-2.561-9.548c-1.486-4.792-3.021-9.746-3.021-13.346
		c-0.002-4.464,0-5.582,0-5.582V1.688h0.074h15.628h0.074v0.074v5.582c0,3.6-1.534,8.554-3.021,13.346
		c-1.078,3.482-2.099,6.771-2.561,9.548c-0.062,0.369-0.402,0.638-0.763,0.92c-0.45,0.349-0.911,0.711-0.914,1.301
		c0.003,0.33,0.003,3.439,0,6.604l-0.002,5.676c0,3.232,6.557,3.272,6.623,3.272h0.074v0.074v0.557V48.716L30.073,48.716z"/>
	<path fill="#D9DBDC" d="M30.561,1.763c0,0,0,0.559,0,5.581c0,6.139-4.465,16.186-5.582,22.882
		c-0.128,0.776-1.673,1.116-1.675,2.231c0.002,0.557-0.003,8.954-0.003,12.28c0,3.348,6.697,3.348,6.697,3.348v0.556h-7.255H15.49
		v-0.556c0,0,6.697,0,6.697-3.348c0-3.35,0.004-11.164,0.002-12.28c-0.001-1.115-1.545-1.455-1.675-2.231
		c-1.116-6.697-5.581-16.744-5.583-22.882c-0.001-4.465,0-5.581,0-5.581H30.561 M30.711,1.613h-0.15H14.932h-0.15v0.15
		c0,0-0.001,1.116,0,5.581c0.001,3.612,1.538,8.572,3.025,13.369c1.079,3.48,2.098,6.767,2.56,9.538
		c0.066,0.397,0.418,0.673,0.791,0.964c0.433,0.339,0.881,0.689,0.882,1.243c0.001,0.631,0,3.402-0.001,6.298l-0.001,5.982
		c0,3.161-6.482,3.197-6.547,3.197h-0.15v0.15v0.556v0.15h0.15h7.253h7.255h0.15v-0.15v-0.556v-0.15h-0.15
		c-0.065,0-6.547-0.038-6.547-3.197l0.001-6.135c0.002-3,0.003-5.831,0.002-6.146c0.001-0.553,0.448-0.903,0.882-1.241
		c0.373-0.292,0.725-0.567,0.791-0.965c0.462-2.77,1.479-6.055,2.558-9.533c1.488-4.799,3.026-9.761,3.026-13.374V1.763V1.613
		L30.711,1.613z"/>
</g>
<linearGradient id="SVGID_2_" gradientUnits="userSpaceOnUse" x1="16.0508" y1="16.2866" x2="29.4438" y2="16.2866">
	<stop  offset="0" style="stop-color:#999999"/>
	<stop  offset="0.0246" style="stop-color:#C8CFC8"/>
	<stop  offset="0.2" style="stop-color:#E9EAED"/>
	<stop  offset="0.2173" style="stop-color:#EBECEF"/>
	<stop  offset="0.375" style="stop-color:#FAFAFB"/>
	<stop  offset="0.5054" style="stop-color:#FFFFFF"/>
	<stop  offset="0.5138" style="stop-color:#FDFDFD"/>
	<stop  offset="0.5906" style="stop-color:#EEEFF1"/>
	<stop  offset="0.6541" style="stop-color:#E9EAED"/>
	<stop  offset="0.6723" style="stop-color:#E9EAEC"/>
	<stop  offset="0.8622" style="stop-color:#E9EBE7"/>
	<stop  offset="0.959" style="stop-color:#E9EBE7"/>
	<stop  offset="1" style="stop-color:#999999"/>
</linearGradient>
<path fill="url(#SVGID_2_)" d="M22.188,30.783c0,0-0.427,0.22-0.557-0.557c-1.116-6.697-5.579-16.744-5.58-22.882
	c-0.001-4.465,0-5.581,0-5.581h13.393c0,0,0,0.559,0,5.581c0,6.139-4.465,16.186-5.581,22.882c-0.129,0.776-0.557,0.557-0.56,0.557
	H22.188z"/>
<linearGradient id="SVGID_3_" gradientUnits="userSpaceOnUse" x1="16.0508" y1="16.2866" x2="29.4438" y2="16.2866">
	<stop  offset="0" style="stop-color:#999999"/>
	<stop  offset="0.0246" style="stop-color:#C8CFC8"/>
	<stop  offset="0.2" style="stop-color:#E9EAED"/>
	<stop  offset="0.2173" style="stop-color:#EBECEF"/>
	<stop  offset="0.375" style="stop-color:#FAFAFB"/>
	<stop  offset="0.5054" style="stop-color:#FFFFFF"/>
	<stop  offset="0.5138" style="stop-color:#FDFDFD"/>
	<stop  offset="0.5906" style="stop-color:#EEEFF1"/>
	<stop  offset="0.6541" style="stop-color:#E9EAED"/>
	<stop  offset="0.6723" style="stop-color:#E9EAEC"/>
	<stop  offset="0.8622" style="stop-color:#E9EBE7"/>
	<stop  offset="0.959" style="stop-color:#E9EBE7"/>
	<stop  offset="1" style="stop-color:#999999"/>
</linearGradient>
<path fill="url(#SVGID_3_)" d="M22.188,30.783c0,0-0.427,0.22-0.557-0.557c-1.116-6.697-5.579-16.744-5.58-22.882
	c-0.001-4.465,0-5.581,0-5.581h13.393c0,0,0,0.559,0,5.581c0,6.139-4.465,16.186-5.581,22.882c-0.129,0.776-0.557,0.557-0.56,0.557
	H22.188z"/>
<path opacity="0.3" fill="#FFFFFF" d="M22.188,30.783c0,0-0.427,0.22-0.557-0.557c-1.116-6.697-5.579-16.744-5.58-22.882
	c-0.001-4.465,0-5.581,0-5.581h13.393c0,0,0,0.559,0,5.581c0,6.139-4.465,16.186-5.581,22.882c-0.129,0.776-0.557,0.557-0.56,0.557
	H22.188z"/>
<rect x="16.05" y="1.7" fill="#8C8C8C" width="13.394" height="0.127"/>
<linearGradient id="SVGID_4_" gradientUnits="userSpaceOnUse" x1="22.6582" y1="49.311" x2="22.9958" y2="45.4521">
	<stop  offset="0" style="stop-color:#828282"/>
	<stop  offset="0.3967" style="stop-color:#A7A7A7"/>
	<stop  offset="1" style="stop-color:#FFFFFF"/>
</linearGradient>
<path fill="url(#SVGID_4_)" d="M15.476,48.125c-0.084,0.002-0.318,0.53,0,0.558c0.317,0.026,2.987-0.042,7.591,0
	c0,0,5.268,0.137,6.92,0c0.346-0.041,0.016-0.597,0.016-0.597c-5.581,0-6.153-1.636-6.153-1.636
	c0.556,0.559-0.561,0.559-1.117,0.559c-1.186,0,0.061-0.559-1.117-0.559C21.615,46.45,19.956,48.085,15.476,48.125z"/>
<linearGradient id="SVGID_5_" gradientUnits="userSpaceOnUse" x1="17.1367" y1="47.1772" x2="22.8091" y2="47.1772">
	<stop  offset="0" style="stop-color:#828282"/>
	<stop  offset="0.3967" style="stop-color:#A7A7A7"/>
	<stop  offset="1" style="stop-color:#FFFFFF"/>
</linearGradient>
<path fill="url(#SVGID_5_)" d="M22.216,46.267l0.593,0.152l-2.853,1.666c0,0-3.156-0.017-2.79,0
	C19.398,48.173,22.216,46.267,22.216,46.267z"/>
<linearGradient id="SVGID_6_" gradientUnits="userSpaceOnUse" x1="28.9546" y1="47.3247" x2="22.748" y2="47.3247">
	<stop  offset="0" style="stop-color:#828282"/>
	<stop  offset="0.3967" style="stop-color:#A7A7A7"/>
	<stop  offset="1" style="stop-color:#FFFFFF"/>
</linearGradient>
<path fill="url(#SVGID_6_)" d="M23.614,46.624l-0.866-0.06l3.907,1.521c0,0,2.632-0.101,2.265-0.089
	C26.096,48.085,23.614,46.624,23.614,46.624z"/>
<path fill="#C0C0C0" d="M24.673,47.526c0,0-1.875,0.686-3.185,0.248C20.177,47.338,22.174,49.021,24.673,47.526z"/>
<linearGradient id="SVGID_7_" gradientUnits="userSpaceOnUse" x1="23.4858" y1="25.1396" x2="22.3687" y2="32.4019">
	<stop  offset="0" style="stop-color:#F2F9FD"/>
	<stop  offset="0.1541" style="stop-color:#F2F9FD"/>
	<stop  offset="0.1973" style="stop-color:#646464"/>
	<stop  offset="0.3892" style="stop-color:#747474"/>
	<stop  offset="0.7" style="stop-color:#828282"/>
	<stop  offset="0.8243" style="stop-color:#A7A7A7"/>
	<stop  offset="1" style="stop-color:#FFFFFF"/>
</linearGradient>
<path fill="url(#SVGID_7_)" d="M23.306,31.901c0,0-1.118-1.221-1.118,0c0-1.118-1.673-1.675-1.673-1.675s2.791,1.116,4.464-0.56
	C24.211,30.438,23.371,31.282,23.306,31.901z"/>
<path fill="#1E1E1E" d="M24.779,47.162c0,0-0.493,0.387-1.709,0.232c0,0-1.449-0.117-1.734-0.367
	c-0.287-0.251-0.262,0.386-0.262,0.386l1.058,0.187c0,0-0.14-0.145,0.475-0.139c0.611,0.006,0.377,0.074,0.221,0.109
	C22.668,47.603,25.041,47.73,24.779,47.162z"/>
<linearGradient id="SVGID_8_" gradientUnits="userSpaceOnUse" x1="18.9355" y1="-10.5161" x2="18.9355" y2="15.7161">
	<stop  offset="0" style="stop-color:#F2F9FD"/>
	<stop  offset="0.1541" style="stop-color:#F2F9FD"/>
	<stop  offset="0.1973" style="stop-color:#646464"/>
	<stop  offset="0.3892" style="stop-color:#747474"/>
	<stop  offset="0.7" style="stop-color:#828282"/>
	<stop  offset="0.8243" style="stop-color:#A7A7A7"/>
	<stop  offset="1" style="stop-color:#FFFFFF"/>
</linearGradient>
<path opacity="0.6" fill="url(#SVGID_8_)" d="M17.801,1.763c-0.043,4.604-0.112,12.786-0.052,13.265
	c0.083,0.67,1.09,0.922,2.18,1.175c0.061-0.794,0.166-9.655,0.218-14.432c-0.458,0.003-0.877,0.005-1.234,0.005
	C18.37,1.775,17.971,1.771,17.801,1.763L17.801,1.763z"/>
<linearGradient id="SVGID_9_" gradientUnits="userSpaceOnUse" x1="-277.2852" y1="324.8257" x2="-277.1269" y2="324.8257" gradientTransform="matrix(0 247.2094 247.2094 0 -80276.4141 68537.9766)">
	<stop  offset="0" style="stop-color:#F2F9FD"/>
	<stop  offset="0.1541" style="stop-color:#F2F9FD"/>
	<stop  offset="0.1973" style="stop-color:#646464"/>
	<stop  offset="0.3892" style="stop-color:#747474"/>
	<stop  offset="0.7" style="stop-color:#828282"/>
	<stop  offset="0.8243" style="stop-color:#A7A7A7"/>
	<stop  offset="1" style="stop-color:#FFFFFF"/>
</linearGradient>
<path fill="url(#SVGID_9_)" d="M27.212,15.157c0,3.644-1.53,3.422-1.675,4.465c-0.146,1.04-1.673,4.391-3.349,4.465l0.559,0.557
	c-1.671,0-2.792-7.255-2.792-7.255l-1.115-0.501c0.015,0.209,0.058,0.62,0.146,1.148c0.603,3.099,1.528,4.376,2.086,6.608
	c0.13,0.518,0.563,2.7,1.116,2.79c0.485,0.081,0.165,0,0.559,0c1.461,0,1.84-2.303,2.231-3.347
	c1.676-4.465,3.349-10.605,3.349-10.605L27.212,15.157z"/>
<linearGradient id="SVGID_10_" gradientUnits="userSpaceOnUse" x1="23.3062" y1="15.7139" x2="23.3062" y2="30.2261">
	<stop  offset="0" style="stop-color:#F2F9FD"/>
	<stop  offset="0.1541" style="stop-color:#F2F9FD"/>
	<stop  offset="0.1973" style="stop-color:#646464"/>
	<stop  offset="0.3892" style="stop-color:#747474"/>
	<stop  offset="0.7" style="stop-color:#828282"/>
	<stop  offset="0.8243" style="stop-color:#A7A7A7"/>
	<stop  offset="1" style="stop-color:#FFFFFF"/>
</linearGradient>
<path fill="url(#SVGID_10_)" d="M19.957,22.971c1.116,2.79,1.571,4.056,2.233,6.14c0.587,1.85,0.946,0.322,1.673-1.118
	c0.924-1.824,2.244-5.439,2.792-7.813c-1.675,7.254-3.349,10.046-3.907,10.046C21.651,30.226,21.631,27.993,19.957,22.971z"/>
<path fill="#404040" d="M23.301,46.271c-0.558,0.145-1.405,0.054-1.618-0.175c-0.049-0.052-0.069-0.124-0.044-0.182L21.61,45.92
	c-0.028,0.07-0.014,0.139,0.042,0.2c0.226,0.242,1.046,0.378,1.626,0.226c0.333-0.087,0.542-0.237,0.584-0.439h-0.008
	C23.806,46.143,23.522,46.215,23.301,46.271z"/>
<linearGradient id="SVGID_11_" gradientUnits="userSpaceOnUse" x1="21.0718" y1="38.8765" x2="23.3056" y2="38.8765">
	<stop  offset="0" style="stop-color:#828282"/>
	<stop  offset="0.3967" style="stop-color:#A7A7A7"/>
	<stop  offset="1" style="stop-color:#FFFFFF"/>
</linearGradient>
<path fill="url(#SVGID_11_)" d="M22.188,32.458c0,0,0.001-1.117,0.559-0.557v6.137v7.256c0,0-0.559,1.118-0.559,0.559
	C22.188,45.293,22.188,32.458,22.188,32.458z"/>
<rect y="49.291" opacity="0" fill="#FFFFFF" width="45.176" height="0.987"/>
<rect opacity="0" fill="#FFFFFF" width="45.176" height="1.035"/>
</svg>
