<?xml version="1.0" encoding="utf-8"?>
<!-- Generator: Adobe Illustrator 13.0.0, SVG Export Plug-In . SVG Version: 6.00 Build 14948)  -->
<!DOCTYPE svg PUBLIC "-//W3C//DTD SVG 1.1//EN" "http://www.w3.org/Graphics/SVG/1.1/DTD/svg11.dtd">
<svg version="1.1" xmlns="http://www.w3.org/2000/svg" xmlns:xlink="http://www.w3.org/1999/xlink" x="0px" y="0px" width="45px"
	 height="50px" viewBox="0 0 45 50" enable-background="new 0 0 45 50" xml:space="preserve">
<g id="Calque_4" display="none">
	
		<image display="inline" overflow="visible" width="130" height="200" xlink:href="ballon.jpg"  transform="matrix(0.2126 0 0 0.2126 8.415 3.1792)">
	</image>
</g>
<g id="Calque_2">
	<g>
		<linearGradient id="SVGID_1_" gradientUnits="userSpaceOnUse" x1="13.2246" y1="24.2178" x2="31.3311" y2="24.2178">
			<stop  offset="0" style="stop-color:#999999"/>
			<stop  offset="0.0246" style="stop-color:#C8CFC8"/>
			<stop  offset="0.2" style="stop-color:#E9EAED"/>
			<stop  offset="0.2173" style="stop-color:#EBECEF"/>
			<stop  offset="0.375" style="stop-color:#FAFAFB"/>
			<stop  offset="0.5054" style="stop-color:#FFFFFF"/>
			<stop  offset="0.5138" style="stop-color:#FDFDFD"/>
			<stop  offset="0.5906" style="stop-color:#EEEFF1"/>
			<stop  offset="0.6541" style="stop-color:#E9EAED"/>
			<stop  offset="0.6723" style="stop-color:#E9EAEC"/>
			<stop  offset="0.8622" style="stop-color:#E9EBE7"/>
			<stop  offset="0.959" style="stop-color:#E9EBE7"/>
			<stop  offset="1" style="stop-color:#999999"/>
		</linearGradient>
		<path fill="url(#SVGID_1_)" d="M30.284,42.23H30.21h-7.53h-7.973h-0.074v-0.074v-0.559v-0.069l0.068-0.005
			c0.045-0.004,4.429-0.342,6.162-1.644c0.354-0.264,0.766-0.867,0.766-1.71V24.881c0-0.824-1.195-1.257-1.607-1.257
			c-1.403,0.002-3.859-1.634-5.379-4.279c-1.252-2.18-2.804-6.78,0.886-13.103l13.353-0.037c3.866,6.28,2.307,10.998,1.038,13.253
			c-1.444,2.573-3.733,4.166-5.023,4.166c-0.37,0-1.347,0.388-1.347,1.257V38.17c0,0.933,0.725,1.545,0.947,1.71
			c1.735,1.302,5.68,1.64,5.72,1.644l0.067,0.005v0.069v0.559V42.23L30.284,42.23z"/>
		<path fill="#D9DBDC" d="M28.881,6.279c6.2,10.185-1.326,17.272-3.985,17.272h-0.001h-0.001c-0.442,0-1.419,0.445-1.419,1.331
			c0,2.8,0,12.846,0,13.287c0,0.887,0.623,1.506,0.978,1.771c1.771,1.329,5.758,1.658,5.758,1.658v0.557h-7.529h-7.973v-0.557
			c0,0,4.429-0.329,6.201-1.658c0.354-0.266,0.794-0.885,0.794-1.771c0-0.441,0-10.487,0-13.287c0-0.885-1.235-1.331-1.679-1.331
			c0,0,0,0-0.001,0s-0.001,0-0.001,0c-2.659,0-10.628-6.644-4.428-17.272H28.881 M28.965,6.129h-0.084H15.594h-0.086l-0.043,0.074
			c-3.707,6.355-2.147,10.983-0.888,13.176c1.533,2.669,4.02,4.321,5.445,4.321c0.394,0,1.531,0.406,1.531,1.181v13.287
			c0,0.813-0.396,1.397-0.734,1.651c-1.716,1.287-6.078,1.625-6.122,1.629l-0.139,0.01v0.14v0.557v0.15h0.15h7.973h7.529h0.15v-0.15
			v-0.557v-0.138l-0.138-0.012c-0.04-0.003-3.964-0.341-5.681-1.629c-0.215-0.161-0.917-0.757-0.917-1.651V24.882
			c0-0.779,0.89-1.181,1.269-1.181c1.313,0,3.633-1.607,5.092-4.203c1.275-2.271,2.846-7.018-0.977-13.297L28.965,6.129
			L28.965,6.129z"/>
	</g>
	<linearGradient id="SVGID_2_" gradientUnits="userSpaceOnUse" x1="13.6846" y1="15.082" x2="30.9658" y2="15.082">
		<stop  offset="0" style="stop-color:#999999"/>
		<stop  offset="0.0246" style="stop-color:#C8CFC8"/>
		<stop  offset="0.2" style="stop-color:#E9EAED"/>
		<stop  offset="0.2173" style="stop-color:#EBECEF"/>
		<stop  offset="0.375" style="stop-color:#FAFAFB"/>
		<stop  offset="0.5054" style="stop-color:#FFFFFF"/>
		<stop  offset="0.5138" style="stop-color:#FDFDFD"/>
		<stop  offset="0.5906" style="stop-color:#EEEFF1"/>
		<stop  offset="0.6541" style="stop-color:#E9EAED"/>
		<stop  offset="0.6723" style="stop-color:#E9EAEC"/>
		<stop  offset="0.8622" style="stop-color:#E9EBE7"/>
		<stop  offset="0.959" style="stop-color:#E9EBE7"/>
		<stop  offset="1" style="stop-color:#999999"/>
	</linearGradient>
	<path fill="url(#SVGID_2_)" d="M22.146,23.11c0-0.443-2.657,0-5.315-1.772c-2.58-1.72-4.872-7.972-1.329-14.616h13.287
		c3.986,5.758,1.772,12.402-0.886,14.616c-2.657,2.214-4.872,1.329-4.872,1.772S22.146,23.553,22.146,23.11z"/>
	<linearGradient id="SVGID_3_" gradientUnits="userSpaceOnUse" x1="13.8428" y1="15.0479" x2="30.793" y2="15.0479">
		<stop  offset="0" style="stop-color:#999999"/>
		<stop  offset="0.0246" style="stop-color:#C8CFC8"/>
		<stop  offset="0.2" style="stop-color:#E9EAED"/>
		<stop  offset="0.2173" style="stop-color:#EBECEF"/>
		<stop  offset="0.375" style="stop-color:#FAFAFB"/>
		<stop  offset="0.5054" style="stop-color:#FFFFFF"/>
		<stop  offset="0.5138" style="stop-color:#FDFDFD"/>
		<stop  offset="0.5906" style="stop-color:#EEEFF1"/>
		<stop  offset="0.6541" style="stop-color:#E9EAED"/>
		<stop  offset="0.6723" style="stop-color:#E9EAEC"/>
		<stop  offset="0.8622" style="stop-color:#E9EBE7"/>
		<stop  offset="0.959" style="stop-color:#E9EBE7"/>
		<stop  offset="1" style="stop-color:#999999"/>
	</linearGradient>
	<path fill="url(#SVGID_3_)" d="M22.146,22.667c0,0-1.329,1.23-1.329,0.443c0-0.886-0.443,0.443-3.543-1.771
		c-3.603-2.573-4.872-8.415-1.329-14.616h12.402c3.543,3.986,3.101,11.516-0.443,14.173c-2.769,2.076-3.489,1.329-3.543,2.215
		c-0.048,0.785-1.326-0.443-1.329-0.443L22.146,22.667z"/>
	<path opacity="0.3" fill="#FFFFFF" d="M20.817,22.806c0-0.443-1.771-0.139-3.544-1.024c-2.377-1.188-5.315-7.972-1.771-15.059
		h13.287c4.43,7.087,0.366,13.782-2.214,15.502c-1.33,0.886-2.657,0.139-2.657,0.582C23.918,23.691,20.817,23.691,20.817,22.806z"/>
	<rect x="15.945" y="6.722" fill="#8C8C8C" width="12.401" height="0.127"/>
</g>
<g id="Calque_3">
	<linearGradient id="SVGID_4_" gradientUnits="userSpaceOnUse" x1="22.396" y1="42.7832" x2="22.7347" y2="38.9115">
		<stop  offset="0" style="stop-color:#828282"/>
		<stop  offset="0.3967" style="stop-color:#A7A7A7"/>
		<stop  offset="1" style="stop-color:#FFFFFF"/>
	</linearGradient>
	<path fill="url(#SVGID_4_)" d="M15.221,41.712c-0.084,0-0.318,0.416,0,0.443c0.317,0.025,3.206-0.483,7.81-0.442
		c0,0,4.991,0.414,6.644,0.277c0.346-0.041,0.158-0.277,0.158-0.277c-3.116-0.125-5.916-1.771-5.916-1.771
		c-0.886,0.443-0.329,0.442-0.886,0.442c-1.186,0-1.329-0.442-1.771-0.442C21.26,39.941,19.045,41.713,15.221,41.712z"/>
	<linearGradient id="SVGID_5_" gradientUnits="userSpaceOnUse" x1="17.2734" y1="40.6826" x2="21.7026" y2="40.6826">
		<stop  offset="0" style="stop-color:#828282"/>
		<stop  offset="0.3967" style="stop-color:#A7A7A7"/>
		<stop  offset="1" style="stop-color:#FFFFFF"/>
	</linearGradient>
	<path fill="url(#SVGID_5_)" d="M21.11,39.941l0.593,0.152l-2.019,1.324c0,0-2.743-0.014-2.376,0.002
		C19.539,41.508,21.11,39.941,21.11,39.941z"/>
	<linearGradient id="SVGID_6_" gradientUnits="userSpaceOnUse" x1="27.1875" y1="40.8369" x2="23.3174" y2="40.8369">
		<stop  offset="0" style="stop-color:#828282"/>
		<stop  offset="0.3967" style="stop-color:#A7A7A7"/>
		<stop  offset="1" style="stop-color:#FFFFFF"/>
	</linearGradient>
	<path fill="url(#SVGID_6_)" d="M23.475,39.941l-0.157,0.02l1.925,1.771c0,0,2.229-0.02,1.915-0.02
		C24.943,41.713,23.475,39.941,23.475,39.941z"/>
	<path fill="#737373" d="M23.487,39.25c0,0-0.332,0.641-0.861,0.486c0,0-0.861,0.031-0.909-0.352c-0.05-0.4,0.046,0.395,0.046,0.395
		l0.454,0.162c0,0-0.061-0.145,0.207-0.139c0.266,0.006,0.164,0.074,0.096,0.109C22.451,39.945,23.601,39.818,23.487,39.25z"/>
	<path fill="#C0C0C0" d="M23.475,23.799h-1.772C21.998,24.242,23.18,23.799,23.475,23.799z"/>
	<linearGradient id="SVGID_7_" gradientUnits="userSpaceOnUse" x1="22.7886" y1="21.5425" x2="22.5213" y2="23.2799">
		<stop  offset="0" style="stop-color:#F2F9FD"/>
		<stop  offset="0.1541" style="stop-color:#F2F9FD"/>
		<stop  offset="0.1973" style="stop-color:#646464"/>
		<stop  offset="0.3892" style="stop-color:#747474"/>
		<stop  offset="0.7" style="stop-color:#828282"/>
		<stop  offset="0.8243" style="stop-color:#A7A7A7"/>
		<stop  offset="1" style="stop-color:#FFFFFF"/>
	</linearGradient>
	<path fill="url(#SVGID_7_)" d="M22.453,23.062c0,0-0.546,0-0.272,0c-0.818,0-1.363-0.221-1.363-0.221s2.169-0.39,3.544,0
		C23.582,22.62,22.453,23.282,22.453,23.062z"/>
	<linearGradient id="SVGID_8_" gradientUnits="userSpaceOnUse" x1="14.2202" y1="-14.7417" x2="17.5757" y2="18.1455">
		<stop  offset="0" style="stop-color:#F2F9FD"/>
		<stop  offset="0.1541" style="stop-color:#F2F9FD"/>
		<stop  offset="0.1973" style="stop-color:#646464"/>
		<stop  offset="0.3892" style="stop-color:#747474"/>
		<stop  offset="0.7" style="stop-color:#828282"/>
		<stop  offset="0.8243" style="stop-color:#A7A7A7"/>
		<stop  offset="1" style="stop-color:#FFFFFF"/>
	</linearGradient>
	<path opacity="0.6" fill="url(#SVGID_8_)" d="M16.831,6.73c-2.657,4.864-1.337,14.179,1.329,15.494
		c0.606,0.299,1.495,1.069,0.434,0.153c-2.214-1.911-3.977-10.34-0.98-15.647c-0.225,0.398,0.215,0.005-0.143,0.005
		c-0.542,0,0.935,0.004,0.765-0.005H16.831z"/>
	
		<linearGradient id="SVGID_9_" gradientUnits="userSpaceOnUse" x1="-277.2036" y1="324.7764" x2="-277.1463" y2="324.7764" gradientTransform="matrix(0 247.2094 247.2094 0 -80264.4609 68537.8125)">
		<stop  offset="0" style="stop-color:#F2F9FD"/>
		<stop  offset="0.1541" style="stop-color:#F2F9FD"/>
		<stop  offset="0.1973" style="stop-color:#646464"/>
		<stop  offset="0.3892" style="stop-color:#747474"/>
		<stop  offset="0.7" style="stop-color:#828282"/>
		<stop  offset="0.8243" style="stop-color:#A7A7A7"/>
		<stop  offset="1" style="stop-color:#FFFFFF"/>
	</linearGradient>
	<path fill="url(#SVGID_9_)" d="M26.62,21.401c-1.429,0.718-1.403,0.243-1.501,1.131c-0.098,0.886-0.011,0.232-1.147,0.295
		l-0.343,0.258c-1.132,0-1.212,0.201-2.112,0.201c-1.711,0-3.602-1.508-3.902-1.508c0,0-1.321-1.26-0.901-0.754
		c0.876,1.059,4.203,3.015,5.705,2.638c0.354-0.089,0.334,0.296,0.978-0.112c0.298-0.189,0.111,0,0.379,0
		c0.991,0,2.57-1.329,3.198-1.854c0.901-0.754,0.901-0.754,2.702-3.016C29.675,18.681,28.121,20.647,26.62,21.401z"/>
	<linearGradient id="SVGID_10_" gradientUnits="userSpaceOnUse" x1="23.2646" y1="35.0635" x2="23.9633" y2="35.0635">
		<stop  offset="0" style="stop-color:#828282"/>
		<stop  offset="0.3967" style="stop-color:#A7A7A7"/>
		<stop  offset="1" style="stop-color:#FFFFFF"/>
	</linearGradient>
	<path fill="url(#SVGID_10_)" d="M23.475,38.169c0-0.885,0-7.846,0-7.529c0,7.087-0.443,7.529-0.443,7.529
		c0.676,1.328,0.886,1.329,0.886,1.329C24.142,39.498,23.475,39.498,23.475,38.169z"/>
	<rect x="0" y="44.268" opacity="0" fill="#FFFFFF" width="45.176" height="0.988"/>
	<rect x="0" y="-0.048" opacity="0" fill="#FFFFFF" width="45.176" height="1.035"/>
</g>
</svg>
