<?xml version="1.0" encoding="utf-8"?>
<!-- Generator: Adobe Illustrator 13.0.0, SVG Export Plug-In . SVG Version: 6.00 Build 14948)  -->
<!DOCTYPE svg PUBLIC "-//W3C//DTD SVG 1.1//EN" "http://www.w3.org/Graphics/SVG/1.1/DTD/svg11.dtd">
<svg version="1.1" xmlns="http://www.w3.org/2000/svg" xmlns:xlink="http://www.w3.org/1999/xlink" x="0px" y="0px" width="45px"
	 height="50px" viewBox="0 0 45 50" enable-background="new 0 0 45 50" xml:space="preserve">
<g id="Calque_5" display="none">
	
		<image display="inline" overflow="visible" width="800" height="800" xlink:href="I-Grande-5899-coupette-margarita-xxl-verre-1-7-litres.net.jpg"  transform="matrix(0.0426 0 0 0.0426 5.3145 13.3667)">
	</image>
</g>
<g id="Calque_2">
	<g>
		<linearGradient id="SVGID_1_" gradientUnits="userSpaceOnUse" x1="7.4556" y1="25.7676" x2="37.2793" y2="25.7676">
			<stop  offset="0" style="stop-color:#999999"/>
			<stop  offset="0.0246" style="stop-color:#C8CFC8"/>
			<stop  offset="0.2" style="stop-color:#E9EAED"/>
			<stop  offset="0.2173" style="stop-color:#EBECEF"/>
			<stop  offset="0.375" style="stop-color:#FAFAFB"/>
			<stop  offset="0.5054" style="stop-color:#FFFFFF"/>
			<stop  offset="0.5138" style="stop-color:#FDFDFD"/>
			<stop  offset="0.5906" style="stop-color:#EEEFF1"/>
			<stop  offset="0.6541" style="stop-color:#E9EAED"/>
			<stop  offset="0.6723" style="stop-color:#E9EAEC"/>
			<stop  offset="0.8622" style="stop-color:#E9EBE7"/>
			<stop  offset="0.959" style="stop-color:#E9EBE7"/>
			<stop  offset="1" style="stop-color:#999999"/>
		</linearGradient>
		<path fill="url(#SVGID_1_)" d="M30.636,42.674h-0.074h-7.972h-8.416H14.1V42.6v-0.557v-0.07l0.068-0.004
			c1.686-0.125,4.36-0.547,4.36-1.143c0-0.32,0.25-0.396,0.491-0.473c0.373-0.119,0.839-0.262,0.839-1.297
			c0-0.223,0.175-0.348,0.36-0.479c0.246-0.174,0.524-0.371,0.524-0.852c0-0.127-0.037-0.773-0.089-1.703
			c-0.132-2.422-0.354-6.477-0.354-8.484c0-2.529-0.761-3.048-1.641-3.646c-1.099-0.748-2.344-1.598-2.344-6.541
			c0-0.74-1.125-1.132-2.55-1.625c-2.661-0.925-6.308-2.191-6.308-6.791V8.862H7.53h29.675h0.074v0.074
			c0,4.599-3.646,5.865-6.308,6.791c-1.425,0.493-2.551,0.884-2.551,1.625c0,4.943-1.245,5.793-2.346,6.541
			c-0.88,0.599-1.641,1.117-1.641,3.646c0,2.008-0.223,6.063-0.354,8.484c-0.052,0.93-0.089,1.576-0.089,1.703
			c0,0.48,0.28,0.678,0.525,0.852c0.186,0.131,0.361,0.256,0.361,0.479c0,1.039,0.468,1.188,0.843,1.305
			c0.239,0.074,0.484,0.152,0.484,0.465c0,0.596,2.676,1.018,4.362,1.143l0.068,0.004v0.07V42.6V42.674L30.636,42.674z"/>
		<path fill="#D9DBDC" d="M37.205,8.937c0,7.086-8.858,6.201-8.858,8.416c0,8.858-3.986,4.429-3.986,10.187
			c0,2.801-0.443,9.746-0.443,10.188c0,0.887,0.886,0.885,0.886,1.328c0,1.773,1.329,1.096,1.329,1.773
			c0,0.885,4.43,1.215,4.43,1.215V42.6h-7.973h-8.416v-0.557c0,0,4.429-0.33,4.429-1.215c0-0.691,1.329,0,1.329-1.773
			c0-0.443,0.886-0.441,0.886-1.328c0-0.441-0.443-7.387-0.443-10.188c0-5.758-3.986-1.328-3.986-10.187
			c0-2.215-8.858-1.329-8.858-8.416H37.205 M37.355,8.787h-0.15H7.529h-0.15v0.15c0,4.652,3.675,5.928,6.359,6.86
			c1.396,0.485,2.5,0.868,2.5,1.556c0,4.983,1.264,5.844,2.378,6.602c0.863,0.587,1.608,1.095,1.608,3.585
			c0,2.01,0.223,6.063,0.356,8.486c0.05,0.918,0.087,1.58,0.087,1.701c0,0.441-0.25,0.619-0.492,0.789
			c-0.193,0.137-0.394,0.277-0.394,0.539c0,0.98-0.417,1.111-0.785,1.227c-0.242,0.076-0.543,0.17-0.543,0.547
			c0,0.461-2.227,0.912-4.291,1.066l-0.139,0.01v0.139V42.6v0.15h0.15h8.416h7.973h0.15V42.6v-0.557v-0.139l-0.14-0.01
			c-2.063-0.154-4.29-0.605-4.29-1.066c0-0.369-0.299-0.463-0.539-0.539c-0.37-0.115-0.79-0.248-0.79-1.234
			c0-0.262-0.2-0.402-0.394-0.539c-0.242-0.17-0.492-0.348-0.492-0.789c0-0.121,0.036-0.783,0.087-1.701
			c0.133-2.424,0.356-6.477,0.356-8.486c0-2.49,0.745-2.998,1.607-3.585c1.115-0.758,2.379-1.618,2.379-6.602
			c0-0.688,1.103-1.07,2.499-1.556c2.684-0.932,6.359-2.208,6.359-6.86V8.787L37.355,8.787z"/>
	</g>
	<linearGradient id="SVGID_2_" gradientUnits="userSpaceOnUse" x1="7.9727" y1="18.4595" x2="36.7617" y2="18.4595">
		<stop  offset="0" style="stop-color:#999999"/>
		<stop  offset="0.0246" style="stop-color:#C8CFC8"/>
		<stop  offset="0.2" style="stop-color:#E9EAED"/>
		<stop  offset="0.2173" style="stop-color:#EBECEF"/>
		<stop  offset="0.375" style="stop-color:#FAFAFB"/>
		<stop  offset="0.5054" style="stop-color:#FFFFFF"/>
		<stop  offset="0.5138" style="stop-color:#FDFDFD"/>
		<stop  offset="0.5906" style="stop-color:#EEEFF1"/>
		<stop  offset="0.6541" style="stop-color:#E9EAED"/>
		<stop  offset="0.6723" style="stop-color:#E9EAEC"/>
		<stop  offset="0.8622" style="stop-color:#E9EBE7"/>
		<stop  offset="0.959" style="stop-color:#E9EBE7"/>
		<stop  offset="1" style="stop-color:#999999"/>
	</linearGradient>
	<path fill="url(#SVGID_2_)" d="M21.703,27.539c0,0-0.886-0.443-0.886-1.328c0-3.986-3.986-0.886-3.986-8.859
		c0-3.1-8.415-0.886-8.858-7.972h28.789c-0.442,6.201-8.858,4.873-8.858,7.973c0,7.973-3.986,4.872-3.986,8.858
		c0,0.885-0.882,1.328-0.886,1.328H21.703z"/>
	<linearGradient id="SVGID_3_" gradientUnits="userSpaceOnUse" x1="8.4155" y1="19.123" x2="36.3193" y2="19.123">
		<stop  offset="0" style="stop-color:#999999"/>
		<stop  offset="0.0246" style="stop-color:#C8CFC8"/>
		<stop  offset="0.2" style="stop-color:#E9EAED"/>
		<stop  offset="0.2173" style="stop-color:#EBECEF"/>
		<stop  offset="0.375" style="stop-color:#FAFAFB"/>
		<stop  offset="0.5054" style="stop-color:#FFFFFF"/>
		<stop  offset="0.5138" style="stop-color:#FDFDFD"/>
		<stop  offset="0.5906" style="stop-color:#EEEFF1"/>
		<stop  offset="0.6541" style="stop-color:#E9EAED"/>
		<stop  offset="0.6723" style="stop-color:#E9EAEC"/>
		<stop  offset="0.8622" style="stop-color:#E9EBE7"/>
		<stop  offset="0.959" style="stop-color:#E9EBE7"/>
		<stop  offset="1" style="stop-color:#999999"/>
	</linearGradient>
	<path fill="url(#SVGID_3_)" d="M21.374,28.838c0,0-0.566,0.23-0.557-0.557c0.071-6.501-3.986-3.906-3.986-10.045
		c0-4.427-8.416-2.656-8.415-8.858h27.904c0,6.203-8.416,4.874-8.416,8.858c0,6.139-4.429,3.544-4.04,10.045
		c0.047,0.785-0.557,0.557-0.56,0.557H21.374z"/>
	<path opacity="0.3" fill="#FFFFFF" d="M21.703,27.539c0,0-0.886,0-0.886-0.886c0-6.201-3.986-1.329-3.986-9.301
		c0-2.658-7.529-1.329-7.972-7.973h27.018c0,6.201-7.973,4.872-7.973,7.973c0,7.972-3.986,3.543-3.986,9.301
		c0,0.886-0.883,0.886-0.886,0.886H21.703z"/>
	<rect x="7.973" y="9.252" fill="#8C8C8C" width="28.789" height="0.127"/>
</g>
<g id="Calque_3">
	<linearGradient id="SVGID_4_" gradientUnits="userSpaceOnUse" x1="22.2324" y1="43.2656" x2="22.4986" y2="40.2232">
		<stop  offset="0" style="stop-color:#828282"/>
		<stop  offset="0.3967" style="stop-color:#A7A7A7"/>
		<stop  offset="1" style="stop-color:#FFFFFF"/>
	</linearGradient>
	<path fill="url(#SVGID_4_)" d="M14.616,42.156c-0.084,0-0.318,0.416,0,0.443c0.317,0.025,3.847-0.207,8.451-0.166
		c0,0,5.24,0.137,6.893,0c0.346-0.041,0.158-0.277,0.158-0.277c-3.116-0.125-3.986-0.887-3.986-0.887
		c-0.886,0.443-2.986,0.443-3.543,0.443c-1.186,0-2.809-0.443-3.986-0.443C18.603,41.27,17.273,42.156,14.616,42.156z"/>
	<linearGradient id="SVGID_5_" gradientUnits="userSpaceOnUse" x1="23.2959" y1="40.4814" x2="24.7275" y2="40.0035">
		<stop  offset="0" style="stop-color:#828282"/>
		<stop  offset="0.3967" style="stop-color:#A7A7A7"/>
		<stop  offset="1" style="stop-color:#FFFFFF"/>
	</linearGradient>
	<path fill="url(#SVGID_5_)" d="M23.031,39.396c0.886,0.885,1.009,1.771,1.329,1.771c0.886,0,1.329-0.443,1.329-0.443
		c-1.329-0.443-0.886-0.887-1.329-1.771C24.641,39.514,23.031,39.396,23.031,39.396z"/>
	<linearGradient id="SVGID_6_" gradientUnits="userSpaceOnUse" x1="15.9111" y1="41.6113" x2="19.6382" y2="41.6113">
		<stop  offset="0" style="stop-color:#828282"/>
		<stop  offset="0.3967" style="stop-color:#A7A7A7"/>
		<stop  offset="1" style="stop-color:#FFFFFF"/>
	</linearGradient>
	<path fill="url(#SVGID_6_)" d="M19.045,41.168l0.593,0.152l-1.317,0.727c0,0-2.743-0.014-2.376,0.002
		C18.177,42.137,19.045,41.168,19.045,41.168z"/>
	<linearGradient id="SVGID_7_" gradientUnits="userSpaceOnUse" x1="28.5107" y1="41.6279" x2="24.8027" y2="41.6279">
		<stop  offset="0" style="stop-color:#828282"/>
		<stop  offset="0.3967" style="stop-color:#A7A7A7"/>
		<stop  offset="1" style="stop-color:#FFFFFF"/>
	</linearGradient>
	<path fill="url(#SVGID_7_)" d="M25.246,41.168h-0.443l1.329,0.885c0,0,2.712,0.043,2.345,0.035
		C26.574,42.053,25.246,41.168,25.246,41.168z"/>
	<path fill="#C0C0C0" d="M24.36,38.51c0,0-1.772,0.443-3.543,0C19.476,38.176,21.704,39.586,24.36,38.51z"/>
	<linearGradient id="SVGID_8_" gradientUnits="userSpaceOnUse" x1="23.2061" y1="18.9072" x2="22.0014" y2="26.7379">
		<stop  offset="0" style="stop-color:#F2F9FD"/>
		<stop  offset="0.1541" style="stop-color:#F2F9FD"/>
		<stop  offset="0.1973" style="stop-color:#646464"/>
		<stop  offset="0.3892" style="stop-color:#747474"/>
		<stop  offset="0.7" style="stop-color:#828282"/>
		<stop  offset="0.8243" style="stop-color:#A7A7A7"/>
		<stop  offset="1" style="stop-color:#FFFFFF"/>
	</linearGradient>
	<path fill="url(#SVGID_8_)" d="M23.574,26.089c0,0-2.348-1.201-2.348,0.02c0-1.117-1.673-1.674-1.673-1.674s4.021,1.096,5.693-0.58
		C24.479,24.626,23.639,25.47,23.574,26.089z"/>
	<path fill="#737373" d="M24.781,40.033c0,0-0.906,0.641-2.351,0.486c0,0-2.35,0.031-2.481-0.352
		c-0.137-0.4,0.125,0.395,0.125,0.395l1.24,0.162c0,0-0.167-0.145,0.564-0.139c0.727,0.006,0.448,0.074,0.262,0.109
		C21.953,40.729,25.09,40.602,24.781,40.033z"/>
	<linearGradient id="SVGID_9_" gradientUnits="userSpaceOnUse" x1="11.751" y1="-5.2358" x2="13.9653" y2="16.4673">
		<stop  offset="0" style="stop-color:#F2F9FD"/>
		<stop  offset="0.1541" style="stop-color:#F2F9FD"/>
		<stop  offset="0.1973" style="stop-color:#646464"/>
		<stop  offset="0.3892" style="stop-color:#747474"/>
		<stop  offset="0.7" style="stop-color:#828282"/>
		<stop  offset="0.8243" style="stop-color:#A7A7A7"/>
		<stop  offset="1" style="stop-color:#FFFFFF"/>
	</linearGradient>
	<path opacity="0.6" fill="url(#SVGID_9_)" d="M10.098,9.278c0.532,6.201,6.733,3.543,6.742,9.148
		c0.001,0.676,0.434,1.555,0.434,0.153c0-6.201-6.093-2.215-6.394-9.301c0.02,0.457,0.215,0.005-0.143,0.005
		c-0.542,0,0.935,0.004,0.765-0.005H10.098z"/>
	
		<linearGradient id="SVGID_10_" gradientUnits="userSpaceOnUse" x1="-277.2061" y1="324.7734" x2="-277.1406" y2="324.7734" gradientTransform="matrix(0 247.2094 247.2094 0 -80264.4609 68537.8125)">
		<stop  offset="0" style="stop-color:#F2F9FD"/>
		<stop  offset="0.1541" style="stop-color:#F2F9FD"/>
		<stop  offset="0.1973" style="stop-color:#646464"/>
		<stop  offset="0.3892" style="stop-color:#747474"/>
		<stop  offset="0.7" style="stop-color:#828282"/>
		<stop  offset="0.8243" style="stop-color:#A7A7A7"/>
		<stop  offset="1" style="stop-color:#FFFFFF"/>
	</linearGradient>
	<path fill="url(#SVGID_10_)" d="M26.575,20.199c0,3.644,0.145-0.6,0,0.443c-0.145,1.041-1.777,2.771-3.454,2.846l0.56,0.557
		c-1.672,0-1.535,0.293-2.864,0.293s-3.689-3.805-3.689-3.805c0.015,0.209-0.144,0.698,0.146,1.147
		c0.97,1.51,2.215,2.215,3.101,3.102c0.377,0.377,2.013,0.289,2.961-0.189c0.439-0.223,0.165,0,0.56,0
		c1.461,0,3.124-1.648,3.124-2.762c0-2.658,0.442-2.516,0.442-2.516L26.575,20.199z"/>
	
		<linearGradient id="SVGID_11_" gradientUnits="userSpaceOnUse" x1="32.5908" y1="1.937" x2="32.5908" y2="18.9298" gradientTransform="matrix(-0.2842 -0.9588 0.9588 -0.2842 18.9082 51.5795)">
		<stop  offset="0" style="stop-color:#F2F9FD"/>
		<stop  offset="0.1541" style="stop-color:#F2F9FD"/>
		<stop  offset="0.1973" style="stop-color:#646464"/>
		<stop  offset="0.3892" style="stop-color:#747474"/>
		<stop  offset="0.7" style="stop-color:#828282"/>
		<stop  offset="0.8243" style="stop-color:#A7A7A7"/>
		<stop  offset="1" style="stop-color:#FFFFFF"/>
	</linearGradient>
	<path fill="url(#SVGID_11_)" d="M28.347,16.807c-0.442,0-2.172,0.995-3.544,0.886c-1.935-0.153-3.986-0.006-5.757,0
		c-1.772,0.006-0.736-0.748-3.101-1.329c1.771,0.436,3.543,0.88,6.201,0.88C24.36,17.245,27.461,16.807,28.347,16.807z"/>
	<linearGradient id="SVGID_12_" gradientUnits="userSpaceOnUse" x1="22.5957" y1="36.9854" x2="23.9453" y2="36.9854">
		<stop  offset="0" style="stop-color:#828282"/>
		<stop  offset="0.3967" style="stop-color:#A7A7A7"/>
		<stop  offset="1" style="stop-color:#FFFFFF"/>
	</linearGradient>
	<path fill="url(#SVGID_12_)" d="M23.917,38.148c0.002-0.885,0.063-3.053,0-2.738c-0.442,2.215-1.771,1.883-1.771,1.883
		c1.329,1.328,0.443,1.299,0.443,1.299C23.031,38.592,23.916,38.563,23.917,38.148z"/>
	<rect x="0" y="44.268" opacity="0" fill="#FFFFFF" width="45.176" height="0.988"/>
	<rect x="0" y="-0.048" opacity="0" fill="#FFFFFF" width="45.176" height="1.035"/>
</g>
</svg>
