<?xml version="1.0" encoding="utf-8"?>
<!-- Generator: Adobe Illustrator 13.0.0, SVG Export Plug-In . SVG Version: 6.00 Build 14948)  -->
<!DOCTYPE svg PUBLIC "-//W3C//DTD SVG 1.1//EN" "http://www.w3.org/Graphics/SVG/1.1/DTD/svg11.dtd">
<svg version="1.1" xmlns="http://www.w3.org/2000/svg" xmlns:xlink="http://www.w3.org/1999/xlink" x="0px" y="0px" width="45px"
	 height="50px" viewBox="0 0 45 50" enable-background="new 0 0 45 50" xml:space="preserve">
<g id="Calque_5">
</g>
<g id="Calque_2">
	<g>
		<linearGradient id="SVGID_1_" gradientUnits="userSpaceOnUse" x1="13.2129" y1="25.3262" x2="31.9639" y2="25.3262">
			<stop  offset="0" style="stop-color:#999999"/>
			<stop  offset="0.0246" style="stop-color:#C8CFC8"/>
			<stop  offset="0.2" style="stop-color:#E9EAED"/>
			<stop  offset="0.2173" style="stop-color:#EBECEF"/>
			<stop  offset="0.375" style="stop-color:#FAFAFB"/>
			<stop  offset="0.5054" style="stop-color:#FFFFFF"/>
			<stop  offset="0.5138" style="stop-color:#FDFDFD"/>
			<stop  offset="0.5906" style="stop-color:#EEEFF1"/>
			<stop  offset="0.6541" style="stop-color:#E9EAED"/>
			<stop  offset="0.6723" style="stop-color:#E9EAEC"/>
			<stop  offset="0.8622" style="stop-color:#E9EBE7"/>
			<stop  offset="0.959" style="stop-color:#E9EBE7"/>
			<stop  offset="1" style="stop-color:#999999"/>
		</linearGradient>
		<path fill="url(#SVGID_1_)" d="M31.964,47.546H31.89h-9.301h-9.301h-0.074v-0.074v-0.557c1.992-0.557,4.872-1.495,4.872-2.102
			c0-0.392,0.26-0.418,0.468-0.438c0.233-0.025,0.418-0.044,0.418-0.448c0-0.23,0.25-0.348,0.538-0.484
			c0.369-0.175,0.79-0.373,0.79-0.843c0-0.122-0.088-0.204-0.243-0.339c-0.272-0.234-0.641-0.557-0.641-1.433
			c0-1.215,0.406-1.623,0.676-1.893c0.125-0.124,0.208-0.206,0.208-0.322v-0.886c-0.049,0-3.548-2.66-4.427-5.291
			c-1.41-4.237-0.786-8.829-0.181-13.271c0.319-2.351,0.623-4.573,0.623-6.685c0-4.398-2.186-9.221-2.208-9.27l-0.049-0.105h0.118
			h16.388h0.124l-0.059,0.109c-0.021,0.042-2.206,4.32-2.206,9.266c0,2.204,0.388,4.53,0.796,6.994
			c0.72,4.338,1.464,8.822,0.087,12.961c-0.798,2.394-3.895,4.979-4.427,5.325l0.002,0.852c0,0.109,0.072,0.186,0.206,0.32
			c0.271,0.268,0.679,0.674,0.679,1.895c0,0.876-0.369,1.198-0.642,1.433c-0.154,0.135-0.243,0.217-0.243,0.339
			c0,0.47,0.421,0.668,0.79,0.843c0.288,0.137,0.538,0.254,0.538,0.484c0,0.406,0.186,0.427,0.42,0.454
			c0.209,0.022,0.464,0.052,0.464,0.433c0,0.606,2.881,1.545,4.817,2.029l0.056,0.629V47.546L31.964,47.546z"/>
		<path fill="#D9DBDC" d="M30.562,3.18c0,0-2.215,4.279-2.215,9.301c0,6.139,3.032,13.491,0.886,19.931
			c-0.886,2.657-4.429,5.314-4.43,5.314c0,0.104,0.001,0.887,0.001,0.887c0,0.442,0.886,0.433,0.886,2.214
			c0,1.328-0.886,1.329-0.886,1.771c0,0.886,1.328,0.886,1.328,1.329c0,0.886,0.886,0.209,0.886,0.886
			c0,0.886,4.872,2.102,4.872,2.102v0.556h-9.301h-9.301v-0.556c0,0,4.872-1.216,4.872-2.102c0-0.691,0.886,0,0.886-0.886
			c0-0.443,1.329-0.443,1.329-1.329c0-0.442-0.886-0.443-0.886-1.771c0-1.771,0.886-1.771,0.886-2.214c0,0,0-0.649,0-0.887
			c0,0-3.543-2.657-4.429-5.314c-2.147-6.441,0.444-13.792,0.443-19.931c-0.001-4.465-2.215-9.301-2.215-9.301H30.562 M30.808,3.03
			h-0.246H14.173H13.94l0.097,0.212c0.022,0.048,2.2,4.859,2.201,9.239c0,2.105-0.302,4.324-0.621,6.672
			c-0.606,4.45-1.232,9.052,0.186,13.307c0.837,2.512,3.933,4.966,4.421,5.341v0.813c0,0.082-0.061,0.146-0.186,0.271
			c-0.279,0.279-0.7,0.7-0.7,1.943c0,0.91,0.402,1.259,0.668,1.49c0.143,0.123,0.217,0.192,0.217,0.281
			c0,0.394-0.31,0.569-0.748,0.776c-0.299,0.141-0.581,0.274-0.581,0.553c0,0.335-0.117,0.347-0.349,0.371
			c-0.201,0.021-0.537,0.055-0.537,0.515c0,0.481-2.419,1.372-4.758,1.956l-0.114,0.028v0.117v0.556v0.15h0.15h9.301h9.301h0.15
			v-0.15v-0.556v-0.117l-0.114-0.028c-2.339-0.584-4.758-1.475-4.758-1.956c0-0.45-0.333-0.486-0.532-0.509
			c-0.235-0.025-0.354-0.039-0.354-0.377c0-0.278-0.282-0.412-0.581-0.553c-0.438-0.207-0.747-0.383-0.747-0.776
			c0-0.089,0.074-0.158,0.217-0.281c0.267-0.231,0.669-0.58,0.669-1.49c0-1.251-0.423-1.67-0.702-1.946
			c-0.124-0.124-0.184-0.187-0.184-0.268l-0.001-0.814c0.718-0.469,3.64-2.995,4.422-5.339c1.385-4.156,0.639-8.65-0.084-12.997
			c-0.408-2.46-0.794-4.784-0.794-6.982c0-4.929,2.176-9.19,2.197-9.232L30.808,3.03L30.808,3.03z"/>
	</g>
	<linearGradient id="SVGID_2_" gradientUnits="userSpaceOnUse" x1="15.0591" y1="20.6748" x2="29.7793" y2="20.6748">
		<stop  offset="0" style="stop-color:#999999"/>
		<stop  offset="0.0246" style="stop-color:#C8CFC8"/>
		<stop  offset="0.2" style="stop-color:#E9EAED"/>
		<stop  offset="0.2173" style="stop-color:#EBECEF"/>
		<stop  offset="0.375" style="stop-color:#FAFAFB"/>
		<stop  offset="0.5054" style="stop-color:#FFFFFF"/>
		<stop  offset="0.5138" style="stop-color:#FDFDFD"/>
		<stop  offset="0.5906" style="stop-color:#EEEFF1"/>
		<stop  offset="0.6541" style="stop-color:#E9EAED"/>
		<stop  offset="0.6723" style="stop-color:#E9EAEC"/>
		<stop  offset="0.8622" style="stop-color:#E9EBE7"/>
		<stop  offset="0.959" style="stop-color:#E9EBE7"/>
		<stop  offset="1" style="stop-color:#999999"/>
	</linearGradient>
	<path fill="url(#SVGID_2_)" d="M22.146,37.727c0,0-5.315-2.657-6.201-6.2c-1.644-6.573,0.886-12.464,0.886-18.603
		c0-4.872-1.771-9.301-1.771-9.301h14.616c0,0-1.771,4.279-1.771,9.301c0,6.139,3.101,11.958,1.329,18.603
		c-0.92,3.45-6.197,6.2-6.201,6.2H22.146z"/>
	<linearGradient id="SVGID_3_" gradientUnits="userSpaceOnUse" x1="15.0591" y1="23.5547" x2="29.6748" y2="23.5547">
		<stop  offset="0" style="stop-color:#999999"/>
		<stop  offset="0.0246" style="stop-color:#C8CFC8"/>
		<stop  offset="0.2" style="stop-color:#E9EAED"/>
		<stop  offset="0.2173" style="stop-color:#EBECEF"/>
		<stop  offset="0.375" style="stop-color:#FAFAFB"/>
		<stop  offset="0.5054" style="stop-color:#FFFFFF"/>
		<stop  offset="0.5138" style="stop-color:#FDFDFD"/>
		<stop  offset="0.5906" style="stop-color:#EEEFF1"/>
		<stop  offset="0.6541" style="stop-color:#E9EAED"/>
		<stop  offset="0.6723" style="stop-color:#E9EAEC"/>
		<stop  offset="0.8622" style="stop-color:#E9EBE7"/>
		<stop  offset="0.959" style="stop-color:#E9EBE7"/>
		<stop  offset="1" style="stop-color:#999999"/>
	</linearGradient>
	<path fill="url(#SVGID_3_)" d="M22.189,43.455c0,0-0.566,0.231-0.557-0.557c0.071-6.5-4.8-24.279-4.801-30.417
		c-0.001-4.465-1.771-8.858-1.771-8.858h14.616c0,0-1.771,3.836-1.771,8.858c0,6.139-4.429,23.917-4.04,30.417
		c0.047,0.786-0.557,0.557-0.56,0.557H22.189z"/>
	<path opacity="0.3" fill="#FFFFFF" d="M22.146,37.727c0,0-5.758-3.1-6.201-5.757c-1.116-6.697,1.33-14.236,1.329-20.375
		c-0.001-4.465-1.771-7.53-1.771-7.53h13.73c0,0-1.771,2.507-1.771,7.53c0,6.139,3.476,13.933,1.328,20.375
		c-0.886,2.657-5.755,5.758-5.758,5.758L22.146,37.727z"/>
	<rect x="14.953" y="3.623" fill="#8C8C8C" width="14.722" height="0.127"/>
</g>
<g id="Calque_3">
	<linearGradient id="SVGID_4_" gradientUnits="userSpaceOnUse" x1="22.5884" y1="48.0283" x2="22.9436" y2="43.9678">
		<stop  offset="0" style="stop-color:#828282"/>
		<stop  offset="0.3967" style="stop-color:#A7A7A7"/>
		<stop  offset="1" style="stop-color:#FFFFFF"/>
	</linearGradient>
	<path fill="url(#SVGID_4_)" d="M14.335,46.748c-0.084,0.007-0.318,0.53,0,0.558c0.317,0.026,4.128-0.042,8.732,0
		c0,0,6.284,0.137,7.937,0c0.346-0.041,0.016-0.597,0.016-0.597c-3.116-0.124-4.444-1.452-4.444-1.452
		c-0.886,0.442-3.286,0.375-3.843,0.375c-1.186,0-2.952-0.375-4.13-0.375C18.603,45.257,16.388,46.585,14.335,46.748z"/>
	<linearGradient id="SVGID_5_" gradientUnits="userSpaceOnUse" x1="15.4683" y1="45.9229" x2="19.9312" y2="45.9229">
		<stop  offset="0" style="stop-color:#828282"/>
		<stop  offset="0.3967" style="stop-color:#A7A7A7"/>
		<stop  offset="1" style="stop-color:#FFFFFF"/>
	</linearGradient>
	<path fill="url(#SVGID_5_)" d="M19.338,45.257l0.593,0.152l-2.053,1.173c0,0-2.743-0.014-2.376,0.003
		C17.734,46.673,19.338,45.257,19.338,45.257z"/>
	<linearGradient id="SVGID_6_" gradientUnits="userSpaceOnUse" x1="28.9541" y1="46.1602" x2="25.2461" y2="46.1602">
		<stop  offset="0" style="stop-color:#828282"/>
		<stop  offset="0.3967" style="stop-color:#A7A7A7"/>
		<stop  offset="1" style="stop-color:#FFFFFF"/>
	</linearGradient>
	<path fill="url(#SVGID_6_)" d="M25.689,45.699h-0.443l1.329,0.886c0,0,2.712,0.042,2.345,0.035
		C27.018,46.585,25.689,45.699,25.689,45.699z"/>
	<path fill="#C0C0C0" d="M25.246,45.257c0,0-2.658,0.442-4.429,0C19.476,44.922,22.589,46.332,25.246,45.257z"/>
	<linearGradient id="SVGID_7_" gradientUnits="userSpaceOnUse" x1="23.3447" y1="31.4102" x2="22.2278" y2="38.6711">
		<stop  offset="0" style="stop-color:#F2F9FD"/>
		<stop  offset="0.1541" style="stop-color:#F2F9FD"/>
		<stop  offset="0.1973" style="stop-color:#646464"/>
		<stop  offset="0.3892" style="stop-color:#747474"/>
		<stop  offset="0.7" style="stop-color:#828282"/>
		<stop  offset="0.8243" style="stop-color:#A7A7A7"/>
		<stop  offset="1" style="stop-color:#FFFFFF"/>
	</linearGradient>
	<path fill="url(#SVGID_7_)" d="M23.165,38.17c0,0-1.118-1.221-1.118,0c0-1.118-1.673-1.675-1.673-1.675s2.792,1.116,4.463-0.56
		C24.069,36.707,23.229,37.551,23.165,38.17z"/>
	<path fill="#737373" d="M24.779,42.35c0,0-0.5,0.642-1.944,0.487c0,0-2.35,0.031-2.481-0.353c-0.137-0.4,0.125,0.396,0.125,0.396
		l1.24,0.162c0,0-0.167-0.145,0.564-0.139c0.727,0.006,0.448,0.074,0.262,0.109C22.357,43.046,25.089,42.918,24.779,42.35z"/>
	<linearGradient id="SVGID_8_" gradientUnits="userSpaceOnUse" x1="17.9214" y1="-8.6104" x2="17.9214" y2="17.9004">
		<stop  offset="0" style="stop-color:#F2F9FD"/>
		<stop  offset="0.1541" style="stop-color:#F2F9FD"/>
		<stop  offset="0.1973" style="stop-color:#646464"/>
		<stop  offset="0.3892" style="stop-color:#747474"/>
		<stop  offset="0.7" style="stop-color:#828282"/>
		<stop  offset="0.8243" style="stop-color:#A7A7A7"/>
		<stop  offset="1" style="stop-color:#FFFFFF"/>
	</linearGradient>
	<path opacity="0.6" fill="url(#SVGID_8_)" d="M15.945,3.799c1.772,4.253,2.635,11.186,1.772,14.44c-0.173,0.653,2.118-1.06,1.76,0
		c0.897-2.657,0.249-7.529-0.874-14.432c0.073,0.452,0.215,0.005-0.143,0.005c-0.542,0-0.941-0.004-1.111-0.013H15.945z"/>
	
		<linearGradient id="SVGID_9_" gradientUnits="userSpaceOnUse" x1="-277.272" y1="324.7764" x2="-277.0864" y2="324.7764" gradientTransform="matrix(0 247.2094 247.2094 0 -80264.4609 68537.8125)">
		<stop  offset="0" style="stop-color:#F2F9FD"/>
		<stop  offset="0.1541" style="stop-color:#F2F9FD"/>
		<stop  offset="0.1973" style="stop-color:#646464"/>
		<stop  offset="0.3892" style="stop-color:#747474"/>
		<stop  offset="0.7" style="stop-color:#828282"/>
		<stop  offset="0.8243" style="stop-color:#A7A7A7"/>
		<stop  offset="1" style="stop-color:#FFFFFF"/>
	</linearGradient>
	<path fill="url(#SVGID_9_)" d="M28.347,25.325c0,3.644-0.741,4.272-0.886,5.315c-0.145,1.04-2.019,3.355-3.695,3.43l0.56,0.557
		c-1.672,0-5.723-1.714-5.723-1.714l-1.115-0.501c0.015,0.209-0.144,0.697,0.146,1.147c0.97,1.51,2.298,2.396,3.184,3.281
		c0.377,0.377,2.214,0,3.163-0.479c0.439-0.222,0.165,0,0.56,0c1.461,0,3.417-3.349,3.808-4.392
		c1.676-4.466-0.443-11.516-0.443-11.516L28.347,25.325z"/>
	<linearGradient id="SVGID_10_" gradientUnits="userSpaceOnUse" x1="26.4287" y1="3.2969" x2="26.4287" y2="23.0664">
		<stop  offset="0" style="stop-color:#F2F9FD"/>
		<stop  offset="0.1541" style="stop-color:#F2F9FD"/>
		<stop  offset="0.1973" style="stop-color:#646464"/>
		<stop  offset="0.3892" style="stop-color:#747474"/>
		<stop  offset="0.7" style="stop-color:#828282"/>
		<stop  offset="0.8243" style="stop-color:#A7A7A7"/>
		<stop  offset="1" style="stop-color:#FFFFFF"/>
	</linearGradient>
	<path fill="url(#SVGID_10_)" d="M26.575,21.782c1.116,2.79-0.001-2.215,0-3.101c0.002-1.94-1.194-3.826-0.887-5.758
		c0.321-2.02,0.296-1.18,0.887-3.543c-0.887,3.543-0.443,3.881-0.443,4.872C26.132,15.581,28.25,26.803,26.575,21.782z"/>
	<path fill="#636363" d="M23.798,39.359c-1.002,0.145-2.524,0.054-2.908-0.175c-0.088-0.052-0.505-0.132-0.461-0.189l-0.051,0.006
		c-0.051,0.07,0.356,0.146,0.458,0.208c0.406,0.242,1.88,0.378,2.921,0.226c0.6-0.087,0.975-0.237,1.05-0.439h-0.014
		C24.705,39.231,24.194,39.304,23.798,39.359z"/>
	<linearGradient id="SVGID_11_" gradientUnits="userSpaceOnUse" x1="24.3604" y1="40.8125" x2="25.6895" y2="40.8125">
		<stop  offset="0" style="stop-color:#828282"/>
		<stop  offset="0.3967" style="stop-color:#A7A7A7"/>
		<stop  offset="1" style="stop-color:#FFFFFF"/>
	</linearGradient>
	<path fill="url(#SVGID_11_)" d="M25.689,40.827c0-0.886-0.661-1.998-0.887-1.771c-0.442,0.443-0.886,0.442-0.886,0.442
		c1.329,1.329,0,3.101,0,3.101C24.359,42.599,25.689,41.817,25.689,40.827z"/>
	<rect x="0" y="49.242" opacity="0" fill="#FFFFFF" width="45.176" height="0.987"/>
	<rect x="0" y="-0.048" opacity="0" fill="#FFFFFF" width="45.176" height="1.035"/>
	<path fill="#616161" d="M24.519,44.674c-1.603,0.145-4.038,0.054-4.65-0.175c-0.141-0.052-0.809-0.132-0.739-0.189l-0.082,0.006
		c-0.081,0.07,0.57,0.146,0.733,0.208c0.649,0.242,3.006,0.378,4.672,0.226c0.959-0.087,1.559-0.237,1.679-0.439H26.11
		C25.97,44.546,25.152,44.618,24.519,44.674z"/>
	<linearGradient id="SVGID_12_" gradientUnits="userSpaceOnUse" x1="23.6533" y1="43.8877" x2="25.1794" y2="43.3783">
		<stop  offset="0" style="stop-color:#828282"/>
		<stop  offset="0.3967" style="stop-color:#A7A7A7"/>
		<stop  offset="1" style="stop-color:#FFFFFF"/>
	</linearGradient>
	<path fill="url(#SVGID_12_)" d="M23.475,43.042c0.886,0.886,0.565,1.329,0.886,1.329c0.886,0,1.771-0.443,1.771-0.443
		c-2.215-0.886-0.886-0.443-1.329-1.329C25.083,43.159,23.475,43.042,23.475,43.042z"/>
</g>
</svg>
