<?xml version="1.0" encoding="utf-8"?>
<!-- Generator: Adobe Illustrator 13.0.0, SVG Export Plug-In  -->
<!DOCTYPE svg PUBLIC "-//W3C//DTD SVG 1.1//EN" "http://www.w3.org/Graphics/SVG/1.1/DTD/svg11.dtd" [
	<!ENTITY ns_flows "http://ns.adobe.com/Flows/1.0/">
]>
<svg version="1.1"
	 xmlns="http://www.w3.org/2000/svg" xmlns:xlink="http://www.w3.org/1999/xlink" xmlns:a="http://ns.adobe.com/AdobeSVGViewerExtensions/3.0/"
	 x="0px" y="0px" width="45px" height="50px" viewBox="0 0.183 45 50" enable-background="new 0 0.183 45 50" xml:space="preserve">
<defs>
</defs>
<linearGradient id="SVGID_1_" gradientUnits="userSpaceOnUse" x1="17.7163" y1="25.2979" x2="30.1182" y2="25.2979">
	<stop  offset="0" style="stop-color:#999999"/>
	<stop  offset="0.1025" style="stop-color:#C8CFC8"/>
	<stop  offset="0.2" style="stop-color:#E9EAED"/>
	<stop  offset="0.2173" style="stop-color:#EBECEF"/>
	<stop  offset="0.375" style="stop-color:#FAFAFB"/>
	<stop  offset="0.5054" style="stop-color:#FFFFFF"/>
	<stop  offset="0.5138" style="stop-color:#FDFDFD"/>
	<stop  offset="0.5906" style="stop-color:#EEEFF1"/>
	<stop  offset="0.6541" style="stop-color:#E9EAED"/>
	<stop  offset="0.6704" style="stop-color:#E9EAEC"/>
	<stop  offset="0.8402" style="stop-color:#E9EBE7"/>
	<stop  offset="0.877" style="stop-color:#E9EBE7"/>
	<stop  offset="1" style="stop-color:#999999"/>
</linearGradient>
<path fill="url(#SVGID_1_)" stroke="#D9DBDC" stroke-width="0.15" d="M30.118,16.439v17.275c0,0,0,0.443-6.201,0.443
	c-6.201,0-6.2-0.443-6.2-0.443l0-17.275c0,0,6.644,0,6.201,0H30.118z"/>
<linearGradient id="SVGID_2_" gradientUnits="userSpaceOnUse" x1="18.6021" y1="23.9688" x2="29.2324" y2="23.9688">
	<stop  offset="0" style="stop-color:#999999"/>
	<stop  offset="0.0246" style="stop-color:#C8CFC8"/>
	<stop  offset="0.2" style="stop-color:#E9EAED"/>
	<stop  offset="0.2173" style="stop-color:#EBECEF"/>
	<stop  offset="0.375" style="stop-color:#FAFAFB"/>
	<stop  offset="0.5054" style="stop-color:#FFFFFF"/>
	<stop  offset="0.5138" style="stop-color:#FDFDFD"/>
	<stop  offset="0.5906" style="stop-color:#EEEFF1"/>
	<stop  offset="0.6541" style="stop-color:#E9EAED"/>
	<stop  offset="0.6723" style="stop-color:#E9EAEC"/>
	<stop  offset="0.8622" style="stop-color:#E9EBE7"/>
	<stop  offset="0.959" style="stop-color:#E9EBE7"/>
	<stop  offset="1" style="stop-color:#999999"/>
</linearGradient>
<path fill="url(#SVGID_2_)" d="M29.232,16.439v14.617c0,0,0,0.443-5.315,0.443c-5.314,0-5.314-0.441-5.314-0.441l0-14.619
	c0,0,5.758,0,5.315,0H29.232z"/>
<path opacity="0.3" fill="#FFFFFF" d="M29.232,16.439v14.617c0,0-0.443,0.443-5.315,0.443c-5.314,0-5.314-0.441-5.314-0.441
	l0-14.619c0,0,5.758,0,5.315,0H29.232z"/>
<rect x="18.603" y="16.439" fill="#8C8C8C" width="10.63" height="0.127"/>
<linearGradient id="SVGID_3_" gradientUnits="userSpaceOnUse" x1="23.7109" y1="34.2402" x2="24.0787" y2="30.0368">
	<stop  offset="0" style="stop-color:#828282"/>
	<stop  offset="0.3967" style="stop-color:#A7A7A7"/>
	<stop  offset="1" style="stop-color:#FFFFFF"/>
</linearGradient>
<path fill="url(#SVGID_3_)" d="M18.603,31.493c-0.057,0-0.287,2.191-0.068,2.221c0.218,0.023,2.413,0.4,5.565,0.443
	c0,0,3.819-0.307,4.95-0.443c0.236-0.041,0.176-2.221,0.176-2.221s-1.219,0.449-5.468,0.449
	C19.508,31.942,18.603,31.493,18.603,31.493z"/>
<linearGradient id="SVGID_4_" gradientUnits="userSpaceOnUse" x1="28.2979" y1="29.6221" x2="28.6166" y2="33.125">
	<stop  offset="0" style="stop-color:#828282"/>
	<stop  offset="0.3967" style="stop-color:#A7A7A7"/>
	<stop  offset="1" style="stop-color:#FFFFFF"/>
</linearGradient>
<path fill="url(#SVGID_4_)" d="M28.346,31.499h0.886l-0.194,1.822c0,0-1.771,0.883-0.886,0
	C29.719,31.757,28.346,31.499,28.346,31.499z"/>
<linearGradient id="SVGID_5_" gradientUnits="userSpaceOnUse" x1="21.2915" y1="32.6055" x2="18.6025" y2="32.6055">
	<stop  offset="0" style="stop-color:#828282"/>
	<stop  offset="0.3967" style="stop-color:#A7A7A7"/>
	<stop  offset="1" style="stop-color:#FFFFFF"/>
</linearGradient>
<path fill="url(#SVGID_5_)" d="M19.488,31.497h-0.886v1.773c0,0,3.026,0.43,2.658,0.439C18.439,33.798,19.488,31.497,19.488,31.497z
	"/>
<path fill="#C0C0C0" d="M27.157,33.399c0,0-5.425,0.439-6.201,0C20.181,32.968,22.702,34.286,27.157,33.399z"/>
<linearGradient id="SVGID_6_" gradientUnits="userSpaceOnUse" x1="24.1055" y1="29.7256" x2="23.4773" y2="33.8093">
	<stop  offset="0" style="stop-color:#F2F9FD"/>
	<stop  offset="0.1541" style="stop-color:#F2F9FD"/>
	<stop  offset="0.1973" style="stop-color:#646464"/>
	<stop  offset="0.3892" style="stop-color:#747474"/>
	<stop  offset="0.7" style="stop-color:#828282"/>
	<stop  offset="0.8243" style="stop-color:#A7A7A7"/>
	<stop  offset="1" style="stop-color:#FFFFFF"/>
</linearGradient>
<path fill="url(#SVGID_6_)" d="M25.525,33.271c0,0-2.937-0.443-3.823,0c0.886-0.443,0-0.885,0-0.885s0.551,0.859,3.987,0
	C23.918,32.829,24.803,32.827,25.525,33.271z"/>
<linearGradient id="SVGID_7_" gradientUnits="userSpaceOnUse" x1="20.6353" y1="9.1289" x2="20.6353" y2="25.6933">
	<stop  offset="0" style="stop-color:#F2F9FD"/>
	<stop  offset="0.1541" style="stop-color:#F2F9FD"/>
	<stop  offset="0.1973" style="stop-color:#646464"/>
	<stop  offset="0.3892" style="stop-color:#747474"/>
	<stop  offset="0.7" style="stop-color:#828282"/>
	<stop  offset="0.8243" style="stop-color:#A7A7A7"/>
	<stop  offset="1" style="stop-color:#FFFFFF"/>
</linearGradient>
<path opacity="0.6" fill="url(#SVGID_7_)" d="M20.06,16.882c0.314,9.744,0.314,6.007,0.315,9.019c0,0.674,0.77-2.354,0.885-1.24
	c-0.443-4.28,0.315-1.135,0-7.779c0,0,0.138,0.013-0.22,0.013c-0.541,0-0.939-0.004-1.109-0.013H20.06z"/>
<linearGradient id="SVGID_8_" gradientUnits="userSpaceOnUse" x1="-277.1226" y1="323.4268" x2="-277.1103" y2="323.4268" gradientTransform="matrix(-0.2296 247.2094 214.2323 0.1989 -69328.1797 68471.5313)">
	<stop  offset="0" style="stop-color:#F2F9FD"/>
	<stop  offset="0.1541" style="stop-color:#F2F9FD"/>
	<stop  offset="0.1973" style="stop-color:#646464"/>
	<stop  offset="0.3892" style="stop-color:#747474"/>
	<stop  offset="0.7" style="stop-color:#828282"/>
	<stop  offset="0.8243" style="stop-color:#A7A7A7"/>
	<stop  offset="1" style="stop-color:#FFFFFF"/>
</linearGradient>
<path fill="url(#SVGID_8_)" d="M28.347,30.372c-0.443,0.441-1.281-0.002-1.771,0c-0.779-0.002-0.085-0.074-1.329,0h-1.771
	c-1.24-0.002-2.67-0.01-2.67-0.01l-1.316,0.443c0.01,0.209,1.577,0.443,1.974,0.443c0.987,0.002,1.316,0.002,1.974,0.002
	c0.396,0,1.455,0.121,1.863,0.213c0.359,0.078,0.123,0,0.416,0.002c1.084,0,0.477-0.209,1.303-0.209c0.443,0,0.886,0,0.886,0
	L28.347,30.372z"/>
<linearGradient id="SVGID_9_" gradientUnits="userSpaceOnUse" x1="23.918" y1="15.7251" x2="23.918" y2="31.9413">
	<stop  offset="0" style="stop-color:#F2F9FD"/>
	<stop  offset="0.1541" style="stop-color:#F2F9FD"/>
	<stop  offset="0.1973" style="stop-color:#646464"/>
	<stop  offset="0.3892" style="stop-color:#747474"/>
	<stop  offset="0.7" style="stop-color:#828282"/>
	<stop  offset="0.8243" style="stop-color:#A7A7A7"/>
	<stop  offset="1" style="stop-color:#FFFFFF"/>
</linearGradient>
<path fill="url(#SVGID_9_)" d="M18.603,23.372c0,3.543,0.295,7.53,0.295,7.53c0.764,1.566,9.317,1.195,10.04,0
	c0,0,0-7.086,0.295-10.186c-0.229,2.391-0.494,9.53-0.886,9.745c-3.249,1.771-8.586,0.441-8.858,0.441
	C19.193,30.901,19.193,29.13,18.603,23.372z"/>
<path fill="#404040" d="M23.923,32.198c-0.324,0.145-1.137-0.014-1.261-0.242c-0.028-0.051-0.974,0.055-0.96,0h0.701
	c-0.017,0.07,0.742,0.383,0.775,0.443c0.132,0.244,0.394,0.027,0.732-0.123c0.192-0.088,2.195-0.119,2.221-0.32h-2.179
	C23.926,32.192,24.052,32.142,23.923,32.198z"/>
<rect y="49.113" opacity="0" fill="#FFFFFF" width="45.177" height="0.987"/>
<rect opacity="0" fill="#FFFFFF" width="45.177" height="1.035"/>
</svg>
