<?xml version="1.0" encoding="utf-8"?>
<!-- Generator: Adobe Illustrator 13.0.0, SVG Export Plug-In . SVG Version: 6.00 Build 14948)  -->
<!DOCTYPE svg PUBLIC "-//W3C//DTD SVG 1.1//EN" "http://www.w3.org/Graphics/SVG/1.1/DTD/svg11.dtd">
<svg version="1.1" xmlns="http://www.w3.org/2000/svg" xmlns:xlink="http://www.w3.org/1999/xlink" x="0px" y="0px" width="45px"
	 height="50px" viewBox="0 0 45 50" enable-background="new 0 0 45 50" xml:space="preserve">
<g id="Calque_4" display="none">
	
		<image display="inline" overflow="visible" width="300" height="300" xlink:href="glencairn.jpg"  transform="matrix(0.102 0 0 0.102 7.0513 12.9233)">
	</image>
</g>
<g id="Calque_2">
	<g>
		<linearGradient id="SVGID_1_" gradientUnits="userSpaceOnUse" x1="14.2114" y1="28.7041" x2="30.5186" y2="28.7041">
			<stop  offset="0" style="stop-color:#999999"/>
			<stop  offset="0.0246" style="stop-color:#C8CFC8"/>
			<stop  offset="0.2" style="stop-color:#E9EAED"/>
			<stop  offset="0.2173" style="stop-color:#EBECEF"/>
			<stop  offset="0.375" style="stop-color:#FAFAFB"/>
			<stop  offset="0.5054" style="stop-color:#FFFFFF"/>
			<stop  offset="0.5138" style="stop-color:#FDFDFD"/>
			<stop  offset="0.5906" style="stop-color:#EEEFF1"/>
			<stop  offset="0.6541" style="stop-color:#E9EAED"/>
			<stop  offset="0.6723" style="stop-color:#E9EAEC"/>
			<stop  offset="0.8622" style="stop-color:#E9EBE7"/>
			<stop  offset="0.959" style="stop-color:#E9EBE7"/>
			<stop  offset="1" style="stop-color:#999999"/>
		</linearGradient>
		<path fill="url(#SVGID_1_)" d="M27.977,42.787L27.9,42.785l-5.313-0.111H16.83h-0.074V42.6v-0.556c0-1.925,0.552-2.786,1.04-3.546
			c0.392-0.608,0.731-1.136,0.731-2.1c0-0.402-0.797-1.191-1.642-2.027c-0.921-0.911-1.965-1.945-2.338-2.816
			c-0.645-1.507-0.27-2.883,0.354-5.164c0.686-2.503,1.624-5.931,1.854-11.698l0.002-0.072h0.072h10.632h0.069l0.005,0.068
			c0.449,5.612,1.454,9.016,2.188,11.501c0.703,2.38,1.127,3.815,0.462,5.365c-0.373,0.871-1.416,1.905-2.337,2.816
			c-0.845,0.836-1.642,1.625-1.642,2.027c0,0.956,0.334,1.483,0.719,2.093c0.492,0.781,1.051,1.665,1.051,3.663v0.557V42.787
			L27.977,42.787z"/>
		<path fill="#D9DBDC" d="M27.461,14.695c0.887,11.073,3.986,13.731,2.657,16.831c-0.72,1.679-3.986,3.986-3.986,4.872
			c0,2.215,1.771,2.215,1.771,5.758v0.557L22.589,42.6h-5.758v-0.557c0-3.431,1.772-3.431,1.772-5.646
			c0-0.886-3.267-3.193-3.986-4.872c-1.329-3.101,1.772-5.758,2.215-16.831H27.461 M27.6,14.545h-0.139h-10.63h-0.144l-0.006,0.144
			c-0.23,5.758-1.167,9.182-1.851,11.681c-0.628,2.297-1.008,3.683-0.352,5.215c0.379,0.884,1.429,1.923,2.354,2.839
			c0.796,0.788,1.62,1.604,1.62,1.974c0,0.942-0.333,1.46-0.718,2.06c-0.494,0.769-1.054,1.64-1.054,3.586V42.6v0.15h0.15h5.758
			l5.312,0.112l0.153,0.003v-0.153v-0.557c0-2.022-0.565-2.916-1.064-3.704c-0.379-0.601-0.707-1.119-0.707-2.054
			c0-0.371,0.823-1.186,1.619-1.974c0.926-0.916,1.976-1.955,2.354-2.839c0.676-1.576,0.249-3.022-0.459-5.417
			c-0.733-2.482-1.737-5.88-2.187-11.485L27.6,14.545L27.6,14.545z"/>
	</g>
	<linearGradient id="SVGID_2_" gradientUnits="userSpaceOnUse" x1="14.7612" y1="24.4551" x2="29.9463" y2="24.4551">
		<stop  offset="0" style="stop-color:#999999"/>
		<stop  offset="0.0246" style="stop-color:#C8CFC8"/>
		<stop  offset="0.2" style="stop-color:#E9EAED"/>
		<stop  offset="0.2173" style="stop-color:#EBECEF"/>
		<stop  offset="0.375" style="stop-color:#FAFAFB"/>
		<stop  offset="0.5054" style="stop-color:#FFFFFF"/>
		<stop  offset="0.5138" style="stop-color:#FDFDFD"/>
		<stop  offset="0.5906" style="stop-color:#EEEFF1"/>
		<stop  offset="0.6541" style="stop-color:#E9EAED"/>
		<stop  offset="0.6723" style="stop-color:#E9EAEC"/>
		<stop  offset="0.8622" style="stop-color:#E9EBE7"/>
		<stop  offset="0.959" style="stop-color:#E9EBE7"/>
		<stop  offset="1" style="stop-color:#999999"/>
	</linearGradient>
	<path fill="url(#SVGID_2_)" d="M22.146,33.74c-0.442,0-5.965,0.333-7.086-2.657c-1.329-3.544,2.215-8.859,2.215-15.945h9.744
		c0,6.201,3.986,12.845,2.658,15.945c-1.362,3.18-7.529,2.657-7.087,2.657C22.589,33.74,22.146,33.74,22.146,33.74z"/>
	<linearGradient id="SVGID_3_" gradientUnits="userSpaceOnUse" x1="14.9883" y1="24.5269" x2="29.8057" y2="24.5269">
		<stop  offset="0" style="stop-color:#999999"/>
		<stop  offset="0.0246" style="stop-color:#C8CFC8"/>
		<stop  offset="0.2" style="stop-color:#E9EAED"/>
		<stop  offset="0.2173" style="stop-color:#EBECEF"/>
		<stop  offset="0.375" style="stop-color:#FAFAFB"/>
		<stop  offset="0.5054" style="stop-color:#FFFFFF"/>
		<stop  offset="0.5138" style="stop-color:#FDFDFD"/>
		<stop  offset="0.5906" style="stop-color:#EEEFF1"/>
		<stop  offset="0.6541" style="stop-color:#E9EAED"/>
		<stop  offset="0.6723" style="stop-color:#E9EAEC"/>
		<stop  offset="0.8622" style="stop-color:#E9EBE7"/>
		<stop  offset="0.959" style="stop-color:#E9EBE7"/>
		<stop  offset="1" style="stop-color:#999999"/>
	</linearGradient>
	<path fill="url(#SVGID_3_)" d="M22.146,33.74c0,0-2.657,0.886-5.757-1.329c-3.603-2.572,0.885-11.071,0.886-17.273h9.744
		c0,6.203,4.833,14.722,1.772,17.273c-2.656,2.217-6.197,1.329-6.201,1.329H22.146z"/>
	<path opacity="0.3" fill="#FFFFFF" d="M21.703,33.74c0,0-3.986,0.886-6.201-2.657c-1.409-2.254,1.772-9.302,1.772-15.945h9.744
		c0,6.201,3.754,13.696,2.215,16.388c-1.772,3.101-6.198,2.215-6.201,2.215H21.703z"/>
	<rect x="17.274" y="15.01" fill="#8C8C8C" width="9.744" height="0.127"/>
</g>
<g id="Calque_3">
	<linearGradient id="SVGID_4_" gradientUnits="userSpaceOnUse" x1="22.2095" y1="42.5879" x2="22.5586" y2="38.5969">
		<stop  offset="0" style="stop-color:#828282"/>
		<stop  offset="0.3967" style="stop-color:#A7A7A7"/>
		<stop  offset="1" style="stop-color:#FFFFFF"/>
	</linearGradient>
	<path fill="url(#SVGID_4_)" d="M17.274,41.27c0,0.085-0.318,0.858,0,0.886c0.317,0.025,0.268-0.041,4.872,0
		c0,0,3.219,0.137,4.872,0c0.346-0.041,0.443-0.886,0.443-0.886c0.051-0.886-0.443-1.328-0.443-1.328
		c-1.771,0.443-3.873,0.442-4.429,0.442c-1.186,0-3.543,0.001-4.872-0.442C17.717,39.941,17.274,40.384,17.274,41.27z"/>
	<path fill="#737373" d="M25.66,37.283c0,0-1.235,0.641-3.204,0.486c0,0-3.201,0.031-3.379-0.352c-0.186-0.4,0.17,0.395,0.17,0.395
		l1.69,0.162c0,0-0.228-0.145,0.769-0.139c0.99,0.006,0.61,0.074,0.357,0.109C21.806,37.979,26.081,37.852,25.66,37.283z"/>
	<linearGradient id="SVGID_5_" gradientUnits="userSpaceOnUse" x1="22.668" y1="31.4355" x2="22.1867" y2="34.5643">
		<stop  offset="0" style="stop-color:#F2F9FD"/>
		<stop  offset="0.1541" style="stop-color:#F2F9FD"/>
		<stop  offset="0.1973" style="stop-color:#646464"/>
		<stop  offset="0.3892" style="stop-color:#747474"/>
		<stop  offset="0.7" style="stop-color:#828282"/>
		<stop  offset="0.8243" style="stop-color:#A7A7A7"/>
		<stop  offset="1" style="stop-color:#FFFFFF"/>
	</linearGradient>
	<path fill="url(#SVGID_5_)" d="M22.088,34.207c0,0-0.886,0-0.443,0c-1.329,0-2.214-0.443-2.214-0.443s3.523-0.782,5.758,0
		C23.925,33.321,22.088,34.649,22.088,34.207z"/>
	<linearGradient id="SVGID_6_" gradientUnits="userSpaceOnUse" x1="14.3691" y1="-6.3228" x2="17.7458" y2="26.7723">
		<stop  offset="0" style="stop-color:#F2F9FD"/>
		<stop  offset="0.1541" style="stop-color:#F2F9FD"/>
		<stop  offset="0.1973" style="stop-color:#646464"/>
		<stop  offset="0.3892" style="stop-color:#747474"/>
		<stop  offset="0.7" style="stop-color:#828282"/>
		<stop  offset="0.8243" style="stop-color:#A7A7A7"/>
		<stop  offset="1" style="stop-color:#FFFFFF"/>
	</linearGradient>
	<path opacity="0.6" fill="url(#SVGID_6_)" d="M18.194,15.163c0.532,6.201-4.515,14.606-1.847,15.92
		c0.605,0.299,1.494,1.069,0.434,0.153c-2.215-1.91,2.496-8.987,2.196-16.074c0.02,0.457,0.215,0.005-0.143,0.005
		C18.292,15.167,18.194,15.163,18.194,15.163z"/>
	
		<linearGradient id="SVGID_7_" gradientUnits="userSpaceOnUse" x1="-277.1553" y1="324.7764" x2="-277.0966" y2="324.7764" gradientTransform="matrix(0 247.2094 247.2094 0 -80264.4609 68537.8125)">
		<stop  offset="0" style="stop-color:#F2F9FD"/>
		<stop  offset="0.1541" style="stop-color:#F2F9FD"/>
		<stop  offset="0.1973" style="stop-color:#646464"/>
		<stop  offset="0.3892" style="stop-color:#747474"/>
		<stop  offset="0.7" style="stop-color:#828282"/>
		<stop  offset="0.8243" style="stop-color:#A7A7A7"/>
		<stop  offset="1" style="stop-color:#FFFFFF"/>
	</linearGradient>
	<path fill="url(#SVGID_7_)" d="M26.292,33.876c-1.526,0.654-2.813-0.102-2.917,0.708c-0.104,0.809-1.008,0.511-1.97,0.511
		c-1.827,0-3.847-1.376-4.167-1.376c0,0-1.409-1.149-0.961-0.687c0.936,0.966,4.079,3.354,5.682,3.01
		c0.378-0.081,1.59-0.083,1.875-0.083c1.058,0,2.62-1.271,3.291-1.75c0.961-0.687,1.068-1.251,2.992-3.315
		C30.117,30.894,27.895,33.188,26.292,33.876z"/>
	<linearGradient id="SVGID_8_" gradientUnits="userSpaceOnUse" x1="25.3896" y1="38.252" x2="26.8066" y2="38.252">
		<stop  offset="0" style="stop-color:#828282"/>
		<stop  offset="0.3967" style="stop-color:#A7A7A7"/>
		<stop  offset="1" style="stop-color:#FFFFFF"/>
	</linearGradient>
	<path fill="url(#SVGID_8_)" d="M26.667,38.626c-0.625-0.875-0.792-2.066-0.792-1.75c0,1.208-0.958,1-0.958,1
		c0.417,0.708,1.668,1.804,1.668,1.804C26.81,39.68,26.907,38.963,26.667,38.626z"/>
	<rect x="0" y="44.268" opacity="0" fill="#FFFFFF" width="45.176" height="0.988"/>
	<rect x="0" y="-0.048" opacity="0" fill="#FFFFFF" width="45.176" height="1.035"/>
</g>
</svg>
