<?xml version="1.0" encoding="utf-8"?>
<!-- Generator: Adobe Illustrator 13.0.0, SVG Export Plug-In  -->
<!DOCTYPE svg PUBLIC "-//W3C//DTD SVG 1.1//EN" "http://www.w3.org/Graphics/SVG/1.1/DTD/svg11.dtd" [
	<!ENTITY ns_flows "http://ns.adobe.com/Flows/1.0/">
]>
<svg version="1.1"
	 xmlns="http://www.w3.org/2000/svg" xmlns:xlink="http://www.w3.org/1999/xlink" xmlns:a="http://ns.adobe.com/AdobeSVGViewerExtensions/3.0/"
	 x="0px" y="0px" width="45px" height="50px" viewBox="0 0.132 45 50" enable-background="new 0 0.132 45 50" xml:space="preserve">
<defs>
</defs>
<linearGradient id="SVGID_1_" gradientUnits="userSpaceOnUse" x1="16.3887" y1="25.0254" x2="31.4478" y2="25.0254">
	<stop  offset="0" style="stop-color:#999999"/>
	<stop  offset="0.1025" style="stop-color:#C8CFC8"/>
	<stop  offset="0.2" style="stop-color:#E9EAED"/>
	<stop  offset="0.2173" style="stop-color:#EBECEF"/>
	<stop  offset="0.375" style="stop-color:#FAFAFB"/>
	<stop  offset="0.5054" style="stop-color:#FFFFFF"/>
	<stop  offset="0.5138" style="stop-color:#FDFDFD"/>
	<stop  offset="0.5906" style="stop-color:#EEEFF1"/>
	<stop  offset="0.6541" style="stop-color:#E9EAED"/>
	<stop  offset="0.6704" style="stop-color:#E9EAEC"/>
	<stop  offset="0.8402" style="stop-color:#E9EBE7"/>
	<stop  offset="0.877" style="stop-color:#E9EBE7"/>
	<stop  offset="1" style="stop-color:#999999"/>
</linearGradient>
<path fill="url(#SVGID_1_)" stroke="#D9DBDC" stroke-width="0.15" d="M31.448,2.658l-0.001,44.291c0,0,0,0.443-7.529,0.443
	s-7.529-0.443-7.529-0.443l0-44.292c0,0,7.973,0,7.529,0H31.448z"/>
<linearGradient id="SVGID_2_" gradientUnits="userSpaceOnUse" x1="17.2422" y1="23.0322" x2="30.5933" y2="23.0322">
	<stop  offset="0" style="stop-color:#999999"/>
	<stop  offset="0.0246" style="stop-color:#C8CFC8"/>
	<stop  offset="0.2" style="stop-color:#E9EAED"/>
	<stop  offset="0.2173" style="stop-color:#EBECEF"/>
	<stop  offset="0.375" style="stop-color:#FAFAFB"/>
	<stop  offset="0.5054" style="stop-color:#FFFFFF"/>
	<stop  offset="0.5138" style="stop-color:#FDFDFD"/>
	<stop  offset="0.5906" style="stop-color:#EEEFF1"/>
	<stop  offset="0.6541" style="stop-color:#E9EAED"/>
	<stop  offset="0.6723" style="stop-color:#E9EAEC"/>
	<stop  offset="0.8622" style="stop-color:#E9EBE7"/>
	<stop  offset="0.959" style="stop-color:#E9EBE7"/>
	<stop  offset="1" style="stop-color:#999999"/>
</linearGradient>
<path fill="url(#SVGID_2_)" d="M30.562,2.658l-0.001,40.305c0,0,0.886,0.443-6.644,0.443s-6.643-0.443-6.643-0.443l0-40.305
	c0,0,7.087,0,6.644,0H30.562z"/>
<path opacity="0.3" fill="#FFFFFF" d="M30.562,2.658l-0.001,40.305c0,0,0.886,0.443-6.644,0.443s-6.643-0.443-6.643-0.443l0-40.305
	c0,0,7.087,0,6.644,0H30.562z"/>
<rect x="17.274" y="2.658" fill="#8C8C8C" width="13.287" height="0.127"/>
<linearGradient id="SVGID_3_" gradientUnits="userSpaceOnUse" x1="23.6694" y1="47.5283" x2="24.2076" y2="41.3772">
	<stop  offset="0" style="stop-color:#828282"/>
	<stop  offset="0.3967" style="stop-color:#A7A7A7"/>
	<stop  offset="1" style="stop-color:#FFFFFF"/>
</linearGradient>
<path fill="url(#SVGID_3_)" d="M17.223,43.406c-0.057,0.001-0.218,3.515,0,3.543c0.218,0.024,3.632,0.396,6.784,0.438
	c0,0,5.331-0.3,6.462-0.438c0.236-0.041,0.107-3.543,0.107-3.543s-2.73,0.443-6.979,0.443C19.348,43.85,17.223,43.406,17.223,43.406
	z"/>
<linearGradient id="SVGID_4_" gradientUnits="userSpaceOnUse" x1="29.1782" y1="41.2373" x2="29.6216" y2="46.1094">
	<stop  offset="0" style="stop-color:#828282"/>
	<stop  offset="0.3967" style="stop-color:#A7A7A7"/>
	<stop  offset="1" style="stop-color:#FFFFFF"/>
</linearGradient>
<path fill="url(#SVGID_4_)" d="M29.233,43.85h0.886v2.657c0,0-1.771,0.883-0.886,0C30.8,44.943,29.233,43.85,29.233,43.85z"/>
<linearGradient id="SVGID_5_" gradientUnits="userSpaceOnUse" x1="20.3745" y1="45.4004" x2="17.6855" y2="45.4004">
	<stop  offset="0" style="stop-color:#828282"/>
	<stop  offset="0.3967" style="stop-color:#A7A7A7"/>
	<stop  offset="1" style="stop-color:#FFFFFF"/>
</linearGradient>
<path fill="url(#SVGID_5_)" d="M18.551,43.907l-0.865-0.058v2.659c0,0,3.026,0.43,2.658,0.44
	C17.522,47.037,18.551,43.907,18.551,43.907z"/>
<path fill="#C0C0C0" d="M28.347,46.507c0,0-8.135,0.438-8.911,0C18.66,46.074,23.892,47.393,28.347,46.507z"/>
<linearGradient id="SVGID_6_" gradientUnits="userSpaceOnUse" x1="24.5962" y1="39.0264" x2="23.3064" y2="47.4106">
	<stop  offset="0" style="stop-color:#F2F9FD"/>
	<stop  offset="0.1541" style="stop-color:#F2F9FD"/>
	<stop  offset="0.1973" style="stop-color:#646464"/>
	<stop  offset="0.3892" style="stop-color:#747474"/>
	<stop  offset="0.7" style="stop-color:#828282"/>
	<stop  offset="0.8243" style="stop-color:#A7A7A7"/>
	<stop  offset="1" style="stop-color:#FFFFFF"/>
</linearGradient>
<path fill="url(#SVGID_6_)" d="M26.413,46.507c0,0-3.354-0.35-5.431,0c2.633-0.443-0.164-2.215-0.164-2.215s2.317,0.843,5.758,0
	C24.766,44.735,24.766,45.621,26.413,46.507z"/>
<linearGradient id="SVGID_7_" gradientUnits="userSpaceOnUse" x1="20.5566" y1="-22.4634" x2="20.5566" y2="33.0754">
	<stop  offset="0" style="stop-color:#F2F9FD"/>
	<stop  offset="0.1541" style="stop-color:#F2F9FD"/>
	<stop  offset="0.1973" style="stop-color:#646464"/>
	<stop  offset="0.3892" style="stop-color:#747474"/>
	<stop  offset="0.7" style="stop-color:#828282"/>
	<stop  offset="0.8243" style="stop-color:#A7A7A7"/>
	<stop  offset="1" style="stop-color:#FFFFFF"/>
</linearGradient>
<path opacity="0.6" fill="url(#SVGID_7_)" d="M19.981,3.534c0.314,9.744,0.314,27.46,0.315,30.472c0,0.675,0.77-2.354,0.885-1.24
	c-0.443-4.278,0.315-22.588,0-29.232c0,0,0.138,0.013-0.22,0.013c-0.541,0-0.939-0.004-1.109-0.013H19.981z"/>
<linearGradient id="SVGID_8_" gradientUnits="userSpaceOnUse" x1="-277.0811" y1="323.376" x2="-277.0633" y2="323.376" gradientTransform="matrix(-0.2296 247.2094 214.2323 0.1989 -69317.3047 68471.375)">
	<stop  offset="0" style="stop-color:#F2F9FD"/>
	<stop  offset="0.1541" style="stop-color:#F2F9FD"/>
	<stop  offset="0.1973" style="stop-color:#646464"/>
	<stop  offset="0.3892" style="stop-color:#747474"/>
	<stop  offset="0.7" style="stop-color:#828282"/>
	<stop  offset="0.8243" style="stop-color:#A7A7A7"/>
	<stop  offset="1" style="stop-color:#FFFFFF"/>
</linearGradient>
<path fill="url(#SVGID_8_)" d="M29.676,41.195c-0.659,0.887-1.157,0.442-1.646,0.443c-0.78-0.001-1.388-0.077-2.632-0.003
	l-0.986-0.001c-1.24-0.002-4.935-0.005-4.935-0.005l-1.316,0.442c0.01,0.209,1.577,0.443,1.974,0.444
	c0.987,0.001,1.316,0.001,1.974,0.001c0.397,0,1.455,0.122,1.864,0.214c0.359,0.078,0.123,0,0.415,0.001
	c1.085,0.001,1.5-0.211,2.327-0.21c1.476,0.002,2.962-0.44,2.962-0.44L29.676,41.195z"/>
<linearGradient id="SVGID_9_" gradientUnits="userSpaceOnUse" x1="23.9185" y1="27.3438" x2="23.9185" y2="43.56">
	<stop  offset="0" style="stop-color:#F2F9FD"/>
	<stop  offset="0.1541" style="stop-color:#F2F9FD"/>
	<stop  offset="0.1973" style="stop-color:#646464"/>
	<stop  offset="0.3892" style="stop-color:#747474"/>
	<stop  offset="0.7" style="stop-color:#828282"/>
	<stop  offset="0.8243" style="stop-color:#A7A7A7"/>
	<stop  offset="1" style="stop-color:#FFFFFF"/>
</linearGradient>
<path fill="url(#SVGID_9_)" d="M17.717,34.991c0,3.543,0.295,7.529,0.295,7.529c0.764,1.566,11.089,1.195,11.812,0
	c0,0,0-7.087,0.295-10.187c-0.229,2.392-0.494,9.53-0.886,9.744c-3.249,1.771-10.358,0.442-10.63,0.442
	C18.308,42.521,18.308,40.749,17.717,34.991z"/>
<path fill="#404040" d="M24.367,44.535c-0.324,0.145-1.137-0.015-1.261-0.242c-0.028-0.051-3.631-0.388-3.617-0.443l3.358,0.443
	c-0.017,0.07,0.742,0.383,0.775,0.442c0.132,0.244,0.394,0.027,0.732-0.123c0.192-0.088,4.409-0.562,4.435-0.763l-4.393,0.443
	C24.37,44.528,24.496,44.479,24.367,44.535z"/>
<rect y="49.113" opacity="0" fill="#FFFFFF" width="45.176" height="0.987"/>
<rect opacity="0" fill="#FFFFFF" width="45.176" height="1.035"/>
</svg>
