<?xml version="1.0" encoding="utf-8"?>
<!-- Generator: Adobe Illustrator 13.0.0, SVG Export Plug-In  -->
<!DOCTYPE svg PUBLIC "-//W3C//DTD SVG 1.1//EN" "http://www.w3.org/Graphics/SVG/1.1/DTD/svg11.dtd" [
	<!ENTITY ns_flows "http://ns.adobe.com/Flows/1.0/">
]>
<svg version="1.1"
	 xmlns="http://www.w3.org/2000/svg" xmlns:xlink="http://www.w3.org/1999/xlink" xmlns:a="http://ns.adobe.com/AdobeSVGViewerExtensions/3.0/"
	 x="0px" y="0px" width="45px" height="50px" viewBox="0 0.132 45 50" enable-background="new 0 0.132 45 50" xml:space="preserve">
<defs>
</defs>
<g>
	<linearGradient id="SVGID_1_" gradientUnits="userSpaceOnUse" x1="14.543" y1="25.3115" x2="32.8486" y2="25.3115">
		<stop  offset="0" style="stop-color:#999999"/>
		<stop  offset="0.1025" style="stop-color:#C8CFC8"/>
		<stop  offset="0.2" style="stop-color:#E9EAED"/>
		<stop  offset="0.2173" style="stop-color:#EBECEF"/>
		<stop  offset="0.375" style="stop-color:#FAFAFB"/>
		<stop  offset="0.5054" style="stop-color:#FFFFFF"/>
		<stop  offset="0.5138" style="stop-color:#FDFDFD"/>
		<stop  offset="0.5906" style="stop-color:#EEEFF1"/>
		<stop  offset="0.6541" style="stop-color:#E9EAED"/>
		<stop  offset="0.6704" style="stop-color:#E9EAEC"/>
		<stop  offset="0.8402" style="stop-color:#E9EBE7"/>
		<stop  offset="0.877" style="stop-color:#E9EBE7"/>
		<stop  offset="1" style="stop-color:#999999"/>
	</linearGradient>
	<path fill="url(#SVGID_1_)" d="M14.543,48.798v-0.076v-0.443v-0.074h0.072c0.084-0.002,8.341-0.235,8.341-3.471v-0.427
		c0-0.419,0.002-0.986,0-1.788c0-0.573-0.243-0.794-0.476-1.007c-0.2-0.183-0.409-0.373-0.409-0.765c0-0.854,0-0.854-0.422-1.274
		c-0.118-0.117-0.26-1.449-0.668-5.541c-0.969-9.696-2.986-29.871-5.959-31.523l-0.037-0.509V1.825h0.074h17.275h0.074v0.074v0.443
		c-3.012,1.718-5.028,21.893-5.997,31.589c-0.408,4.092-0.551,5.424-0.668,5.541c-0.423,0.421-0.423,0.421-0.423,1.274
		c0,0.392-0.209,0.582-0.408,0.765c-0.233,0.213-0.477,0.434-0.477,1.007v2.215c0,3.233,8.257,3.469,8.342,3.471h0.071v0.074v0.441
		v0.076l-0.074-0.002l-9.023-0.046l-9.134,0.048L14.543,48.798L14.543,48.798z"/>
	<path fill="#D9DBDC" d="M32.333,1.899v0.443c-3.986,2.214-6.2,36.634-6.644,37.078s-0.443,0.442-0.443,1.328
		c0,0.787-0.885,0.655-0.886,1.771c0.001,0.556,0,1.772,0,2.215c0,3.345,8.415,3.543,8.415,3.543v0.442l-9.024-0.045l-9.135,0.046
		v-0.442c0,0,8.415-0.198,8.415-3.544c0-0.442,0.003-1.1,0-2.215c0-1.116-0.886-0.984-0.886-1.771c0-0.886,0-0.885-0.443-1.328
		S19.045,4.557,15.059,2.342V1.899H32.333 M32.483,1.75h-0.15H15.059h-0.15v0.15v0.443v0.088l0.077,0.043
		c2.939,1.632,4.953,21.786,5.92,31.471c0.447,4.475,0.556,5.447,0.69,5.582c0.399,0.399,0.399,0.399,0.399,1.222
		c0,0.426,0.23,0.636,0.434,0.82c0.232,0.211,0.452,0.411,0.452,0.951c0.002,0.803,0.001,1.367,0,1.786l0,0.429
		c0,3.162-8.186,3.392-8.269,3.394l-0.146,0.004v0.146v0.442v0.15h0.151l9.135-0.046l9.022,0.045h0.151v-0.15v-0.442v-0.146
		l-0.146-0.004c-0.083-0.002-8.269-0.231-8.269-3.393v-0.523V42.52c0-0.54,0.22-0.739,0.451-0.951
		c0.203-0.185,0.435-0.395,0.435-0.82c0-0.822,0-0.822,0.397-1.221c0.136-0.136,0.244-1.109,0.691-5.587
		c0.968-9.684,2.981-29.834,5.921-31.467l0.077-0.043V2.342V1.899V1.75L32.483,1.75z"/>
</g>
<linearGradient id="SVGID_2_" gradientUnits="userSpaceOnUse" x1="15.9448" y1="21.1025" x2="31.4473" y2="21.1025">
	<stop  offset="0" style="stop-color:#999999"/>
	<stop  offset="0.0246" style="stop-color:#C8CFC8"/>
	<stop  offset="0.2" style="stop-color:#E9EAED"/>
	<stop  offset="0.2173" style="stop-color:#EBECEF"/>
	<stop  offset="0.375" style="stop-color:#FAFAFB"/>
	<stop  offset="0.5054" style="stop-color:#FFFFFF"/>
	<stop  offset="0.5138" style="stop-color:#FDFDFD"/>
	<stop  offset="0.5906" style="stop-color:#EEEFF1"/>
	<stop  offset="0.6541" style="stop-color:#E9EAED"/>
	<stop  offset="0.6723" style="stop-color:#E9EAEC"/>
	<stop  offset="0.8622" style="stop-color:#E9EBE7"/>
	<stop  offset="0.959" style="stop-color:#E9EBE7"/>
	<stop  offset="1" style="stop-color:#999999"/>
</linearGradient>
<path fill="url(#SVGID_2_)" d="M23.475,40.306c0,0-0.886-0.443-0.886-0.886c0-0.443-2.657-34.863-6.644-37.078V1.899h15.502v0.443
	c-3.986,2.214-6.645,36.634-6.645,37.078c0,0.442-0.886,0.886-0.886,0.886H23.475z"/>
<path opacity="0.3" fill="#FFFFFF" d="M23.475,40.306c0,0-0.886-0.443-0.886-0.886c0-0.443-2.657-34.863-6.644-37.078V1.899h15.502
	v0.443c-3.986,2.214-6.645,36.634-6.645,37.078c0,0.442-0.886,0.886-0.886,0.886H23.475z"/>
<rect x="15.945" y="1.772" fill="#8C8C8C" width="15.502" height="0.127"/>
<linearGradient id="SVGID_3_" gradientUnits="userSpaceOnUse" x1="23.6162" y1="49.4502" x2="23.9668" y2="45.4426">
	<stop  offset="0" style="stop-color:#828282"/>
	<stop  offset="0.3967" style="stop-color:#A7A7A7"/>
	<stop  offset="1" style="stop-color:#FFFFFF"/>
</linearGradient>
<path fill="url(#SVGID_3_)" d="M15.163,48.283c-0.088,0.001-0.227,0.409,0.111,0.438c0.336,0.024,3.945-0.048,8.821-0.006
	c0,0,6.32,0.144,8.068,0.006c0.366-0.041,0.026-0.438,0.026-0.438c-5.91,0-7.269-1.798-7.269-1.798
	c0.589,0.557-0.592,0.557-1.183,0.557c-1.255,0,0.065-0.557-1.182-0.557C22.557,46.485,19.908,48.243,15.163,48.283z"/>
<linearGradient id="SVGID_4_" gradientUnits="userSpaceOnUse" x1="17.7168" y1="47.3682" x2="23.3848" y2="47.3682">
	<stop  offset="0" style="stop-color:#828282"/>
	<stop  offset="0.3967" style="stop-color:#A7A7A7"/>
	<stop  offset="1" style="stop-color:#FFFFFF"/>
</linearGradient>
<path fill="url(#SVGID_4_)" d="M22.792,46.459l0.593,0.151l-2.851,1.664c0,0-3.153-0.016-2.788,0
	C19.977,48.361,22.792,46.459,22.792,46.459z"/>
<linearGradient id="SVGID_5_" gradientUnits="userSpaceOnUse" x1="30.1182" y1="47.5176" x2="23.916" y2="47.5176">
	<stop  offset="0" style="stop-color:#828282"/>
	<stop  offset="0.3967" style="stop-color:#A7A7A7"/>
	<stop  offset="1" style="stop-color:#FFFFFF"/>
</linearGradient>
<path fill="url(#SVGID_5_)" d="M24.781,46.815l-0.865-0.058l3.904,1.52c0,0,2.631-0.099,2.263-0.088
	C27.262,48.277,24.781,46.815,24.781,46.815z"/>
<path fill="#C0C0C0" d="M26.132,47.392c0,0-1.871,0.686-3.182,0.247C21.64,47.206,23.635,48.887,26.132,47.392z"/>
<linearGradient id="SVGID_6_" gradientUnits="userSpaceOnUse" x1="24.127" y1="37.1563" x2="23.4521" y2="41.543">
	<stop  offset="0" style="stop-color:#F2F9FD"/>
	<stop  offset="0.1541" style="stop-color:#F2F9FD"/>
	<stop  offset="0.1973" style="stop-color:#646464"/>
	<stop  offset="0.3892" style="stop-color:#747474"/>
	<stop  offset="0.7" style="stop-color:#828282"/>
	<stop  offset="0.8243" style="stop-color:#A7A7A7"/>
	<stop  offset="1" style="stop-color:#FFFFFF"/>
</linearGradient>
<path fill="url(#SVGID_6_)" d="M24.402,41.191c0,0-1.32-0.559-1.383-0.001c0.139-1.234,0.012-0.442-0.443-1.328
	c0,0,0.597,1.673,2.269,0C24.079,40.631,24.467,40.574,24.402,41.191z"/>
<path fill="#1E1E1E" d="M25.407,47.144c0,0-0.434,0.384-1.505,0.231c0,0-1.273-0.118-1.525-0.367
	c-0.252-0.25-0.231,0.384-0.231,0.384l0.931,0.188c0,0-0.123-0.144,0.417-0.138s0.331,0.073,0.194,0.108
	C23.551,47.584,25.639,47.709,25.407,47.144z"/>
<linearGradient id="SVGID_7_" gradientUnits="userSpaceOnUse" x1="20.5952" y1="-15.1865" x2="20.5952" y2="22.7704">
	<stop  offset="0" style="stop-color:#F2F9FD"/>
	<stop  offset="0.1541" style="stop-color:#F2F9FD"/>
	<stop  offset="0.1973" style="stop-color:#646464"/>
	<stop  offset="0.3892" style="stop-color:#747474"/>
	<stop  offset="0.7" style="stop-color:#828282"/>
	<stop  offset="0.8243" style="stop-color:#A7A7A7"/>
	<stop  offset="1" style="stop-color:#FFFFFF"/>
</linearGradient>
<path opacity="0.6" fill="url(#SVGID_7_)" d="M18.289,2.581c2.085,2.214,3.857,19.501,4.3,20.83
	c0.213,0.641,0.089-3.719,0.443-2.658c-1.329-3.986-1.2-14.186-2.528-18.172c0,0-0.877,0.013-1.234,0.013
	c-0.541,0-0.939-0.004-1.109-0.013H18.289z"/>
<linearGradient id="SVGID_8_" gradientUnits="userSpaceOnUse" x1="-277.2407" y1="323.374" x2="-277.0716" y2="323.374" gradientTransform="matrix(0 247.2094 247.2094 0 -79916.5859 68536.4063)">
	<stop  offset="0" style="stop-color:#F2F9FD"/>
	<stop  offset="0.1541" style="stop-color:#F2F9FD"/>
	<stop  offset="0.1973" style="stop-color:#646464"/>
	<stop  offset="0.3892" style="stop-color:#747474"/>
	<stop  offset="0.7" style="stop-color:#828282"/>
	<stop  offset="0.8243" style="stop-color:#A7A7A7"/>
	<stop  offset="1" style="stop-color:#FFFFFF"/>
</linearGradient>
<path fill="url(#SVGID_8_)" d="M26.132,24.36c-0.443,2.658-1.185,8.703-1.329,9.745c-0.146,1.041,0.347,4.353-1.328,4.429v-0.442
	c-0.886-1.082-0.886-2.658-0.886-2.658l0,0c0.014,0.209,0,0.351,0,0.886c0,0.886,0,0.246,0.443,1.329
	c0.202,0.494-0.443,0.443,0,0.886c0.347,0.347,0.497,0.833,0.886,0.886c0.261,0.035,0.667-2.009,0.886-3.101
	c0.443-2.214,0.443-4.872,0.443-4.872L26.132,24.36z"/>
<linearGradient id="SVGID_9_" gradientUnits="userSpaceOnUse" x1="23.0322" y1="19.874" x2="23.0322" y2="40.2106">
	<stop  offset="0" style="stop-color:#F2F9FD"/>
	<stop  offset="0.1541" style="stop-color:#F2F9FD"/>
	<stop  offset="0.1973" style="stop-color:#646464"/>
	<stop  offset="0.3892" style="stop-color:#747474"/>
	<stop  offset="0.7" style="stop-color:#828282"/>
	<stop  offset="0.8243" style="stop-color:#A7A7A7"/>
	<stop  offset="1" style="stop-color:#FFFFFF"/>
</linearGradient>
<path fill="url(#SVGID_9_)" d="M20.817,26.132c0.443,3.101,0.951,12.468,2.214,13.73c0.886,0.886,1.771-0.012,1.771-1.623
	c0-0.148,0.443-4.135,0.443-4.135c-0.443,1.771-0.771,5.758-1.329,5.758C22.822,39.862,21.703,36.319,20.817,26.132z"/>
<path fill="#404040" d="M24.309,46.306c-0.558,0.145-1.404,0.053-1.618-0.175c-0.048-0.051-0.068-0.124-0.044-0.18l-0.028,0.004
	c-0.028,0.07-0.014,0.14,0.043,0.199c0.226,0.244,1.045,0.379,1.626,0.229c0.33-0.088,0.54-0.239,0.583-0.44h-0.01
	C24.813,46.178,24.528,46.249,24.309,46.306z"/>
<linearGradient id="SVGID_10_" gradientUnits="userSpaceOnUse" x1="21.3594" y1="43.7197" x2="24.5512" y2="43.7197">
	<stop  offset="0" style="stop-color:#828282"/>
	<stop  offset="0.3967" style="stop-color:#A7A7A7"/>
	<stop  offset="1" style="stop-color:#FFFFFF"/>
</linearGradient>
<path fill="url(#SVGID_10_)" d="M23.031,41.634c-0.313-0.313,0.443-0.442,0.443,0.443v1.328l0.279,1.724c0,0-0.558,1.43-0.558,0.714
	C23.196,45.129,23.475,42.077,23.031,41.634z"/>
<rect y="49.113" opacity="0" fill="#FFFFFF" width="45.177" height="0.987"/>
<rect opacity="0" fill="#FFFFFF" width="45.177" height="1.035"/>
</svg>
