<?xml version="1.0" encoding="utf-8"?>
<!-- Generator: Adobe Illustrator 13.0.0, SVG Export Plug-In  -->
<!DOCTYPE svg PUBLIC "-//W3C//DTD SVG 1.1//EN" "http://www.w3.org/Graphics/SVG/1.1/DTD/svg11.dtd" [
	<!ENTITY ns_flows "http://ns.adobe.com/Flows/1.0/">
]>
<svg version="1.1"
	 xmlns="http://www.w3.org/2000/svg" xmlns:xlink="http://www.w3.org/1999/xlink" xmlns:a="http://ns.adobe.com/AdobeSVGViewerExtensions/3.0/"
	 x="0px" y="0px" width="45px" height="50px" viewBox="0 0.132 45 50" enable-background="new 0 0.132 45 50" xml:space="preserve">
<defs>
</defs>
<g>
	<linearGradient id="SVGID_1_" gradientUnits="userSpaceOnUse" x1="12.8945" y1="25.248" x2="34.5508" y2="25.248">
		<stop  offset="0" style="stop-color:#999999"/>
		<stop  offset="0.1025" style="stop-color:#C8CFC8"/>
		<stop  offset="0.2" style="stop-color:#E9EAED"/>
		<stop  offset="0.2173" style="stop-color:#EBECEF"/>
		<stop  offset="0.375" style="stop-color:#FAFAFB"/>
		<stop  offset="0.5054" style="stop-color:#FFFFFF"/>
		<stop  offset="0.5138" style="stop-color:#FDFDFD"/>
		<stop  offset="0.5906" style="stop-color:#EEEFF1"/>
		<stop  offset="0.6541" style="stop-color:#E9EAED"/>
		<stop  offset="0.6704" style="stop-color:#E9EAEC"/>
		<stop  offset="0.8402" style="stop-color:#E9EBE7"/>
		<stop  offset="0.877" style="stop-color:#E9EBE7"/>
		<stop  offset="1" style="stop-color:#999999"/>
	</linearGradient>
	<path fill="url(#SVGID_1_)" d="M14.543,40.826V40.75v-0.443v-0.074h0.072c0.084-0.002,8.341-0.236,8.341-3.471v-0.428
		c0-0.418,0.002-0.986,0-1.787c0-0.588-0.124-0.811-0.241-1.025c-0.099-0.178-0.189-0.344-0.2-0.678
		c-0.186-0.025-0.444-0.154-0.444-0.51c-0.039-0.061-0.456-0.201-0.899-0.352c-1.967-0.666-6.576-2.227-7.958-6.715
		c-1.475-4.794,2.619-15.443,2.66-15.551l15.572-0.047c0.111,0.146,4.365,10.279,2.729,15.598c-1.323,4.303-5.627,5.818-7.695,6.549
		c-0.545,0.191-1.161,0.408-1.161,0.518c0,0.355-0.26,0.484-0.445,0.51c-0.011,0.334-0.102,0.5-0.198,0.678
		c-0.118,0.215-0.241,0.438-0.241,1.025v2.215c0,3.232,8.257,3.469,8.342,3.471h0.071v0.074v0.441v0.076l-0.074-0.002l-9.023-0.047
		l-9.134,0.049L14.543,40.826L14.543,40.826z"/>
	<path fill="#D9DBDC" d="M31.447,9.744c0,0,4.305,10.148,2.657,15.502c-1.771,5.758-8.858,6.461-8.858,7.088
		c0,0.441-0.443,0.441-0.443,0.441c0,0.787-0.441,0.656-0.442,1.771c0.001,0.557,0,1.773,0,2.215c0,3.346,8.415,3.543,8.415,3.543
		v0.443l-9.024-0.045l-9.135,0.045v-0.441c0,0,8.415-0.199,8.415-3.545c0-0.441,0.003-1.1,0-2.215c0-1.115-0.443-0.984-0.443-1.771
		c0,0-0.443,0-0.443-0.441c0-0.443-7.086-1.33-8.858-7.088c-1.485-4.827,2.657-15.502,2.657-15.502H31.447 M31.547,9.594h-0.1
		H15.945h-0.103L15.805,9.69c-0.17,0.438-4.144,10.778-2.661,15.601c1.393,4.525,6.026,6.094,8.005,6.764
		c0.367,0.123,0.747,0.252,0.847,0.322c0.019,0.322,0.24,0.48,0.446,0.531c0.021,0.311,0.115,0.482,0.207,0.65
		c0.114,0.207,0.232,0.42,0.232,0.988c0.002,0.803,0.001,1.367,0,1.787l0,0.428c0,3.162-8.186,3.393-8.269,3.395l-0.146,0.004v0.146
		v0.441v0.15h0.151l9.135-0.045l9.022,0.045h0.151v-0.15v-0.443v-0.146l-0.146-0.004c-0.083-0.002-8.269-0.23-8.269-3.393v-0.523
		v-1.691c0-0.568,0.117-0.781,0.231-0.988c0.092-0.168,0.186-0.34,0.206-0.65c0.216-0.053,0.448-0.223,0.448-0.574
		c0.058-0.076,0.593-0.266,1.109-0.447c2.08-0.732,6.407-2.258,7.742-6.596c1.645-5.346-2.486-15.189-2.663-15.605L31.547,9.594
		L31.547,9.594z"/>
</g>
<g>
	<linearGradient id="SVGID_2_" gradientUnits="userSpaceOnUse" x1="13.8521" y1="20.374" x2="33.5947" y2="20.374">
		<stop  offset="0" style="stop-color:#999999"/>
		<stop  offset="0.0246" style="stop-color:#C8CFC8"/>
		<stop  offset="0.2" style="stop-color:#E9EAED"/>
		<stop  offset="0.2173" style="stop-color:#EBECEF"/>
		<stop  offset="0.375" style="stop-color:#FAFAFB"/>
		<stop  offset="0.5054" style="stop-color:#FFFFFF"/>
		<stop  offset="0.5138" style="stop-color:#FDFDFD"/>
		<stop  offset="0.5906" style="stop-color:#EEEFF1"/>
		<stop  offset="0.6541" style="stop-color:#E9EAED"/>
		<stop  offset="0.6723" style="stop-color:#E9EAEC"/>
		<stop  offset="0.8622" style="stop-color:#E9EBE7"/>
		<stop  offset="0.959" style="stop-color:#E9EBE7"/>
		<stop  offset="1" style="stop-color:#999999"/>
	</linearGradient>
	<path fill="url(#SVGID_2_)" d="M22.146,31.004c0,0-6.201,0-7.972-5.758c-1.485-4.827,2.658-15.502,2.658-15.502h13.73
		c0,0,4.305,10.148,2.657,15.502c-1.771,5.758-7.973,5.758-7.973,5.758H22.146z"/>
</g>
<g opacity="0.3">
	<path fill="#FFFFFF" d="M22.146,31.004c0,0-6.201,0-7.972-5.758c-1.485-4.827,2.658-15.502,2.658-15.502h13.73
		c0,0,4.305,10.148,2.657,15.502c-1.771,5.758-7.973,5.758-7.973,5.758H22.146z"/>
</g>
<rect x="16.831" y="9.744" fill="#8C8C8C" width="13.73" height="0.127"/>
<linearGradient id="SVGID_3_" gradientUnits="userSpaceOnUse" x1="23.6162" y1="41.4785" x2="23.9668" y2="37.4716">
	<stop  offset="0" style="stop-color:#828282"/>
	<stop  offset="0.3967" style="stop-color:#A7A7A7"/>
	<stop  offset="1" style="stop-color:#FFFFFF"/>
</linearGradient>
<path fill="url(#SVGID_3_)" d="M15.163,40.311c-0.088,0.002-0.227,0.41,0.111,0.438c0.336,0.025,3.945-0.047,8.821-0.006
	c0,0,6.32,0.145,8.068,0.006c0.366-0.041,0.026-0.438,0.026-0.438c-5.91,0-7.269-1.797-7.269-1.797
	c0.589,0.557-0.592,0.557-1.183,0.557c-1.255,0,0.065-0.557-1.182-0.557C22.557,38.514,19.908,40.271,15.163,40.311z"/>
<linearGradient id="SVGID_4_" gradientUnits="userSpaceOnUse" x1="17.7168" y1="39.3955" x2="23.3848" y2="39.3955">
	<stop  offset="0" style="stop-color:#828282"/>
	<stop  offset="0.3967" style="stop-color:#A7A7A7"/>
	<stop  offset="1" style="stop-color:#FFFFFF"/>
</linearGradient>
<path fill="url(#SVGID_4_)" d="M22.792,38.486l0.593,0.152l-2.851,1.664c0,0-3.153-0.016-2.788,0
	C19.977,40.389,22.792,38.486,22.792,38.486z"/>
<linearGradient id="SVGID_5_" gradientUnits="userSpaceOnUse" x1="30.1182" y1="39.5449" x2="23.916" y2="39.5449">
	<stop  offset="0" style="stop-color:#828282"/>
	<stop  offset="0.3967" style="stop-color:#A7A7A7"/>
	<stop  offset="1" style="stop-color:#FFFFFF"/>
</linearGradient>
<path fill="url(#SVGID_5_)" d="M24.781,38.844l-0.865-0.059l3.904,1.52c0,0,2.631-0.098,2.263-0.088
	C27.262,40.305,24.781,38.844,24.781,38.844z"/>
<path fill="#C0C0C0" d="M26.132,39.42c0,0-1.871,0.686-3.182,0.246C21.64,39.234,23.635,40.914,26.132,39.42z"/>
<linearGradient id="SVGID_6_" gradientUnits="userSpaceOnUse" x1="24.1377" y1="29.0146" x2="23.4343" y2="33.5872">
	<stop  offset="0" style="stop-color:#F2F9FD"/>
	<stop  offset="0.1541" style="stop-color:#F2F9FD"/>
	<stop  offset="0.1973" style="stop-color:#646464"/>
	<stop  offset="0.3892" style="stop-color:#747474"/>
	<stop  offset="0.7" style="stop-color:#828282"/>
	<stop  offset="0.8243" style="stop-color:#A7A7A7"/>
	<stop  offset="1" style="stop-color:#FFFFFF"/>
</linearGradient>
<path fill="url(#SVGID_6_)" d="M24.359,33.219c0,0-1.32-0.559-1.383,0c0.139-1.234-0.376-0.443-0.831-1.328c0,0,1.329,1.328,3.101,0
	C24.378,32.541,24.424,32.602,24.359,33.219z"/>
<path fill="#1E1E1E" d="M25.407,39.172c0,0-0.434,0.383-1.505,0.23c0,0-1.273-0.117-1.525-0.367s-0.231,0.385-0.231,0.385
	l0.931,0.188c0,0-0.123-0.145,0.417-0.139s0.331,0.074,0.194,0.109C23.551,39.611,25.639,39.736,25.407,39.172z"/>
<linearGradient id="SVGID_7_" gradientUnits="userSpaceOnUse" x1="17.6646" y1="-1.9834" x2="17.6645" y2="24.7996">
	<stop  offset="0" style="stop-color:#F2F9FD"/>
	<stop  offset="0.1541" style="stop-color:#F2F9FD"/>
	<stop  offset="0.1973" style="stop-color:#646464"/>
	<stop  offset="0.3892" style="stop-color:#747474"/>
	<stop  offset="0.7" style="stop-color:#828282"/>
	<stop  offset="0.8243" style="stop-color:#A7A7A7"/>
	<stop  offset="1" style="stop-color:#FFFFFF"/>
</linearGradient>
<path opacity="0.6" fill="url(#SVGID_7_)" d="M18.289,10.553c-2.354,5.032-3.715,10.446-0.885,14.693
	c0.375,0.563-1.042-3.909,1.173-0.809c-2.443-3.421-0.989-8.416,0.912-13.808c0,0,0.138-0.064-0.22-0.064
	c-0.541,0-0.939-0.004-1.109-0.013H18.289z"/>
<linearGradient id="SVGID_8_" gradientUnits="userSpaceOnUse" x1="-277.1362" y1="323.373" x2="-277.1117" y2="323.373" gradientTransform="matrix(0 247.2094 247.2094 0 -79916.5859 68536.4063)">
	<stop  offset="0" style="stop-color:#F2F9FD"/>
	<stop  offset="0.1541" style="stop-color:#F2F9FD"/>
	<stop  offset="0.1973" style="stop-color:#646464"/>
	<stop  offset="0.3892" style="stop-color:#747474"/>
	<stop  offset="0.7" style="stop-color:#828282"/>
	<stop  offset="0.8243" style="stop-color:#A7A7A7"/>
	<stop  offset="1" style="stop-color:#FFFFFF"/>
</linearGradient>
<path fill="url(#SVGID_8_)" d="M29.232,29.232c-1.771,1.328-2.215,0.443-2.657,1.33c-0.47,0.939-1.869,0.365-3.544,0.441
	l-1.329-0.441c-0.886-0.443-1.771-0.443-1.771-0.443l-0.886-0.443c0.014,0.209,1.771,0.887,2.657,1.328c0.792,0.396,0.443,0,1.329,0
	c0.534,0,0.703-0.627,1.329,0c0.442,0.443,0.054,0.391,0.442,0.443c0.344,0.047,0.887,0,1.772-0.443
	c0.886-0.441,1.771-0.885,1.771-0.885L29.232,29.232z"/>
<linearGradient id="SVGID_9_" gradientUnits="userSpaceOnUse" x1="23.5508" y1="22.293" x2="23.5508" y2="31.8907">
	<stop  offset="0" style="stop-color:#F2F9FD"/>
	<stop  offset="0.1541" style="stop-color:#F2F9FD"/>
	<stop  offset="0.1973" style="stop-color:#646464"/>
	<stop  offset="0.3892" style="stop-color:#747474"/>
	<stop  offset="0.7" style="stop-color:#828282"/>
	<stop  offset="0.8243" style="stop-color:#A7A7A7"/>
	<stop  offset="1" style="stop-color:#FFFFFF"/>
</linearGradient>
<path fill="url(#SVGID_9_)" d="M14.173,25.246c1.329,4.43,7.072,6.645,8.858,6.645c1.771,0,6.199-1.33,7.973-3.102
	c1.329-1.328,1.771-2.213,1.771-2.213c0.886-2.215-2.06,4.871-8.858,4.871C22.822,31.447,17.717,31.447,14.173,25.246z"/>
<path fill="#404040" d="M24.309,38.334c-0.558,0.145-1.404,0.053-1.618-0.176c-0.048-0.051-0.068-0.123-0.044-0.18l-0.028,0.004
	c-0.028,0.07-0.014,0.141,0.043,0.199c0.226,0.244,1.045,0.379,1.626,0.229c0.33-0.088,0.54-0.238,0.583-0.439h-0.01
	C24.813,38.205,24.528,38.277,24.309,38.334z"/>
<linearGradient id="SVGID_10_" gradientUnits="userSpaceOnUse" x1="21.3594" y1="35.749" x2="24.5512" y2="35.749">
	<stop  offset="0" style="stop-color:#828282"/>
	<stop  offset="0.3967" style="stop-color:#A7A7A7"/>
	<stop  offset="1" style="stop-color:#FFFFFF"/>
</linearGradient>
<path fill="url(#SVGID_10_)" d="M23.031,33.662c-0.313-0.314,0.443-0.443,0.443,0.443v1.328l0.279,1.723c0,0-0.558,1.43-0.558,0.715
	S23.475,34.105,23.031,33.662z"/>
<rect y="49.113" opacity="0" fill="#FFFFFF" width="45.177" height="0.987"/>
<rect opacity="0" fill="#FFFFFF" width="45.177" height="1.035"/>
</svg>
