<?xml version="1.0" encoding="utf-8"?>
<!-- Generator: Adobe Illustrator 13.0.0, SVG Export Plug-In . SVG Version: 6.00 Build 14948)  -->
<!DOCTYPE svg PUBLIC "-//W3C//DTD SVG 1.1//EN" "http://www.w3.org/Graphics/SVG/1.1/DTD/svg11.dtd">
<svg version="1.1" xmlns="http://www.w3.org/2000/svg" xmlns:xlink="http://www.w3.org/1999/xlink" x="0px" y="0px" width="45px"
	 height="50px" viewBox="0 0 45 50" enable-background="new 0 0 45 50" xml:space="preserve">
<g id="Calque_4" display="none">
	
		<image display="inline" overflow="visible" width="1200" height="1200" xlink:href="186628_anytime_coupe_a_champagne_01.jpg"  transform="matrix(0.0306 0 0 0.0306 4.0869 8.4946)">
	</image>
</g>
<g id="Calque_2">
	<g>
		<linearGradient id="SVGID_1_" gradientUnits="userSpaceOnUse" x1="9.6704" y1="26.2109" x2="34.6211" y2="26.2109">
			<stop  offset="0" style="stop-color:#999999"/>
			<stop  offset="0.0246" style="stop-color:#C8CFC8"/>
			<stop  offset="0.2" style="stop-color:#E9EAED"/>
			<stop  offset="0.2173" style="stop-color:#EBECEF"/>
			<stop  offset="0.375" style="stop-color:#FAFAFB"/>
			<stop  offset="0.5054" style="stop-color:#FFFFFF"/>
			<stop  offset="0.5138" style="stop-color:#FDFDFD"/>
			<stop  offset="0.5906" style="stop-color:#EEEFF1"/>
			<stop  offset="0.6541" style="stop-color:#E9EAED"/>
			<stop  offset="0.6723" style="stop-color:#E9EAEC"/>
			<stop  offset="0.8622" style="stop-color:#E9EBE7"/>
			<stop  offset="0.959" style="stop-color:#E9EBE7"/>
			<stop  offset="1" style="stop-color:#999999"/>
		</linearGradient>
		<path fill="url(#SVGID_1_)" d="M30.636,42.673h-0.074h-7.973h-8.414H14.1v-0.074v-0.556c0.125-0.087,6.642-1.298,6.642-2.989
			c0-0.223,0.175-0.347,0.361-0.479c0.245-0.173,0.525-0.369,0.525-0.849c0-0.126-0.037-1.173-0.089-2.668
			c-0.132-3.886-0.354-10.386-0.354-12.391c0-0.824-0.818-1.254-1.255-1.254c-1.047,0-10.26-2.522-10.26-11.589V9.75h0.074h24.802
			h0.074v0.074c0,9.43-8.53,11.589-9.817,11.589c-0.438,0-1.255,0.43-1.255,1.254v15.059c0,0.479,0.28,0.676,0.525,0.849
			c0.186,0.132,0.36,0.256,0.36,0.479c0,1.691,6.08,2.902,6.142,2.915l0.06,0.63V42.673L30.636,42.673z"/>
		<path fill="#D9DBDC" d="M34.547,9.823c0,9.301-8.415,11.516-9.744,11.516c-0.442,0-1.328,0.443-1.328,1.329
			c0,2.8,0,14.617,0,15.058c0,0.887,0.886,0.885,0.886,1.328c0,1.773,6.201,2.989,6.201,2.989V42.6h-7.973h-8.416v-0.557
			c0,0,6.644-1.216,6.644-2.989c0-0.443,0.886-0.441,0.886-1.328c0-0.441-0.443-12.258-0.443-15.058
			c0-0.886-0.886-1.329-1.329-1.329c-1.329,0-10.187-2.657-10.187-11.516H34.547 M34.697,9.673h-0.15H9.744h-0.15v0.15
			c0,8.626,8.512,11.666,10.337,11.666c0.4,0,1.179,0.417,1.179,1.179c0,2.007,0.223,8.512,0.356,12.399
			c0.05,1.473,0.087,2.536,0.087,2.659c0,0.441-0.25,0.618-0.492,0.789c-0.193,0.137-0.394,0.277-0.394,0.539
			c0,1.353-4.707,2.51-6.521,2.842l-0.123,0.022v0.125V42.6v0.15h0.15h8.416h7.973h0.15V42.6v-0.557V41.92l-0.121-0.024
			c-1.691-0.331-6.08-1.488-6.08-2.842c0-0.262-0.2-0.402-0.394-0.539c-0.242-0.171-0.492-0.348-0.492-0.789V22.667
			c0-0.763,0.778-1.179,1.178-1.179c1.297,0,9.895-2.174,9.895-11.666V9.673L34.697,9.673z"/>
	</g>
	<linearGradient id="SVGID_2_" gradientUnits="userSpaceOnUse" x1="10.187" y1="14.9902" x2="34.1045" y2="14.9902">
		<stop  offset="0" style="stop-color:#999999"/>
		<stop  offset="0.0246" style="stop-color:#C8CFC8"/>
		<stop  offset="0.2" style="stop-color:#E9EAED"/>
		<stop  offset="0.2173" style="stop-color:#EBECEF"/>
		<stop  offset="0.375" style="stop-color:#FAFAFB"/>
		<stop  offset="0.5054" style="stop-color:#FFFFFF"/>
		<stop  offset="0.5138" style="stop-color:#FDFDFD"/>
		<stop  offset="0.5906" style="stop-color:#EEEFF1"/>
		<stop  offset="0.6541" style="stop-color:#E9EAED"/>
		<stop  offset="0.6723" style="stop-color:#E9EAEC"/>
		<stop  offset="0.8622" style="stop-color:#E9EBE7"/>
		<stop  offset="0.959" style="stop-color:#E9EBE7"/>
		<stop  offset="1" style="stop-color:#999999"/>
	</linearGradient>
	<path fill="url(#SVGID_2_)" d="M22.146,19.235c0-0.443-2.214,1.218-4.872-0.554c-2.58-1.72-6.644-1.329-7.086-8.416h23.917
		c-0.442,6.201-3.819,6.431-6.201,8.416c-2.657,2.214-5.315,0.111-5.315,0.554S22.146,19.678,22.146,19.235z"/>
	<linearGradient id="SVGID_3_" gradientUnits="userSpaceOnUse" x1="10.6299" y1="15.5908" x2="33.6611" y2="15.5908">
		<stop  offset="0" style="stop-color:#999999"/>
		<stop  offset="0.0246" style="stop-color:#C8CFC8"/>
		<stop  offset="0.2" style="stop-color:#E9EAED"/>
		<stop  offset="0.2173" style="stop-color:#EBECEF"/>
		<stop  offset="0.375" style="stop-color:#FAFAFB"/>
		<stop  offset="0.5054" style="stop-color:#FFFFFF"/>
		<stop  offset="0.5138" style="stop-color:#FDFDFD"/>
		<stop  offset="0.5906" style="stop-color:#EEEFF1"/>
		<stop  offset="0.6541" style="stop-color:#E9EAED"/>
		<stop  offset="0.6723" style="stop-color:#E9EAEC"/>
		<stop  offset="0.8622" style="stop-color:#E9EBE7"/>
		<stop  offset="0.959" style="stop-color:#E9EBE7"/>
		<stop  offset="1" style="stop-color:#999999"/>
	</linearGradient>
	<path fill="url(#SVGID_3_)" d="M22.146,20.01c0,0-1.329,1.23-1.329,0.443c0-0.886-0.886,1.771-3.986-0.443
		c-3.603-2.573-6.201-3.542-6.201-9.744h23.031c0,6.203-2.698,7.192-5.758,9.744c-2.657,2.217-3.986-0.443-4.04,0.443
		c-0.048,0.785-1.272-0.443-1.275-0.443H22.146z"/>
	<path opacity="0.3" fill="#FFFFFF" d="M21.703,19.567c0,0-0.886,1.329-0.886,0.443c0-0.443-2.214,0.443-3.986-0.443
		c-2.377-1.188-5.758-2.657-6.201-9.301h23.031c0,6.201-3.178,7.582-5.758,9.301c-1.329,0.886-3.986,0-3.986,0.443
		c0,0.886-0.883-0.443-0.886-0.443H21.703z"/>
	<rect x="10.63" y="10.266" fill="#8C8C8C" width="23.031" height="0.127"/>
</g>
<g id="Calque_3">
	<linearGradient id="SVGID_4_" gradientUnits="userSpaceOnUse" x1="22.2324" y1="43.2656" x2="22.5862" y2="39.2217">
		<stop  offset="0" style="stop-color:#828282"/>
		<stop  offset="0.3967" style="stop-color:#A7A7A7"/>
		<stop  offset="1" style="stop-color:#FFFFFF"/>
	</linearGradient>
	<path fill="url(#SVGID_4_)" d="M14.616,42.156c-0.084,0-0.318,0.416,0,0.443c0.317,0.025,3.847-0.207,8.451-0.166
		c0,0,5.24,0.137,6.893,0c0.346-0.041,0.158-0.277,0.158-0.277c-3.116-0.125-5.315-1.772-5.315-1.772
		c-0.886,0.443-1.658,0.443-2.214,0.443c-1.186,0-1.037-0.443-2.214-0.443C20.374,40.384,17.273,42.156,14.616,42.156z"/>
	<linearGradient id="SVGID_5_" gradientUnits="userSpaceOnUse" x1="16.8306" y1="40.9727" x2="21.2598" y2="40.9727">
		<stop  offset="0" style="stop-color:#828282"/>
		<stop  offset="0.3967" style="stop-color:#A7A7A7"/>
		<stop  offset="1" style="stop-color:#FFFFFF"/>
	</linearGradient>
	<path fill="url(#SVGID_5_)" d="M20.667,40.231l0.593,0.152l-2.019,1.324c0,0-2.743-0.014-2.376,0.002
		C19.096,41.798,20.667,40.231,20.667,40.231z"/>
	<linearGradient id="SVGID_6_" gradientUnits="userSpaceOnUse" x1="27.0449" y1="40.8271" x2="23.4746" y2="40.8271">
		<stop  offset="0" style="stop-color:#828282"/>
		<stop  offset="0.3967" style="stop-color:#A7A7A7"/>
		<stop  offset="1" style="stop-color:#FFFFFF"/>
	</linearGradient>
	<path fill="url(#SVGID_6_)" d="M23.935,39.941h-0.46l1.325,1.771c0,0,2.532,0,2.218,0C24.804,41.713,23.935,39.941,23.935,39.941z"
		/>
	<path fill="#737373" d="M24.345,39.055c0,0-0.66,0.641-1.713,0.486c0,0-1.711,0.031-1.807-0.352c-0.1-0.4,0.091,0.395,0.091,0.395
		l0.903,0.162c0,0-0.122-0.145,0.411-0.139c0.529,0.006,0.326,0.074,0.191,0.109C22.284,39.75,24.569,39.623,24.345,39.055z"/>
	<path fill="#C0C0C0" d="M23.475,21.584h-1.772C21.998,22.027,23.18,21.584,23.475,21.584z"/>
	<linearGradient id="SVGID_7_" gradientUnits="userSpaceOnUse" x1="23.168" y1="18.1245" x2="22.6867" y2="21.2533">
		<stop  offset="0" style="stop-color:#F2F9FD"/>
		<stop  offset="0.1541" style="stop-color:#F2F9FD"/>
		<stop  offset="0.1973" style="stop-color:#646464"/>
		<stop  offset="0.3892" style="stop-color:#747474"/>
		<stop  offset="0.7" style="stop-color:#828282"/>
		<stop  offset="0.8243" style="stop-color:#A7A7A7"/>
		<stop  offset="1" style="stop-color:#FFFFFF"/>
	</linearGradient>
	<path fill="url(#SVGID_7_)" d="M22.588,20.896c0,0-0.886,0-0.443,0c-1.329,0-2.214-0.443-2.214-0.443s3.524-0.782,5.758,0
		C24.425,20.01,22.588,21.339,22.588,20.896z"/>
	<linearGradient id="SVGID_8_" gradientUnits="userSpaceOnUse" x1="13.3145" y1="-3.8042" x2="15.4781" y2="17.4022">
		<stop  offset="0" style="stop-color:#F2F9FD"/>
		<stop  offset="0.1541" style="stop-color:#F2F9FD"/>
		<stop  offset="0.1973" style="stop-color:#646464"/>
		<stop  offset="0.3892" style="stop-color:#747474"/>
		<stop  offset="0.7" style="stop-color:#828282"/>
		<stop  offset="0.8243" style="stop-color:#A7A7A7"/>
		<stop  offset="1" style="stop-color:#FFFFFF"/>
	</linearGradient>
	<path opacity="0.6" fill="url(#SVGID_8_)" d="M11.427,10.405c0.532,6.201,4.075,7.833,6.742,9.148
		c0.606,0.299,1.495,1.069,0.434,0.153c-2.215-1.911-6.093-2.215-6.394-9.301c0.02,0.457,0.215,0.005-0.143,0.005
		c-0.542,0,0.935,0.004,0.765-0.005H11.427z"/>
	
		<linearGradient id="SVGID_9_" gradientUnits="userSpaceOnUse" x1="-277.2241" y1="324.7764" x2="-277.1573" y2="324.7764" gradientTransform="matrix(0 247.2094 247.2094 0 -80264.4609 68537.8125)">
		<stop  offset="0" style="stop-color:#F2F9FD"/>
		<stop  offset="0.1541" style="stop-color:#F2F9FD"/>
		<stop  offset="0.1973" style="stop-color:#646464"/>
		<stop  offset="0.3892" style="stop-color:#747474"/>
		<stop  offset="0.7" style="stop-color:#828282"/>
		<stop  offset="0.8243" style="stop-color:#A7A7A7"/>
		<stop  offset="1" style="stop-color:#FFFFFF"/>
	</linearGradient>
	<path fill="url(#SVGID_9_)" d="M28.347,18.238c-2.108,0.843-2.07,0.286-2.215,1.329c-0.145,1.041-0.017,0.273-1.693,0.347
		l-0.504,0.303c-1.672,0-1.789,0.235-3.118,0.235c-2.524,0-5.314-1.771-5.758-1.771c0,0-1.947-1.481-1.329-0.886
		c1.293,1.244,6.201,3.543,8.416,3.1c0.523-0.104,0.495,0.347,1.443-0.131c0.439-0.223,0.165,0,0.56,0
		c1.461,0,3.792-1.562,4.719-2.179c1.329-0.886,1.329-0.886,3.986-3.543C32.854,15.042,30.562,17.353,28.347,18.238z"/>
	<linearGradient id="SVGID_10_" gradientUnits="userSpaceOnUse" x1="22.9326" y1="37.2266" x2="23.964" y2="37.2266">
		<stop  offset="0" style="stop-color:#828282"/>
		<stop  offset="0.3967" style="stop-color:#A7A7A7"/>
		<stop  offset="1" style="stop-color:#FFFFFF"/>
	</linearGradient>
	<path fill="url(#SVGID_10_)" d="M23.475,38.169c0-0.885,0.045-3.053,0.014-2.738c-0.225,2.215-0.9,1.883-0.9,1.883
		c0.675,1.328,1.33,1.741,1.33,1.741C24.143,39.055,23.475,38.583,23.475,38.169z"/>
	<rect x="0" y="44.268" opacity="0" fill="#FFFFFF" width="45.176" height="0.988"/>
	<rect x="0" y="-0.048" opacity="0" fill="#FFFFFF" width="45.176" height="1.035"/>
	<linearGradient id="SVGID_11_" gradientUnits="userSpaceOnUse" x1="23.4746" y1="22.4458" x2="21.2612" y2="22.4458">
		<stop  offset="0" style="stop-color:#828282"/>
		<stop  offset="0.3967" style="stop-color:#A7A7A7"/>
		<stop  offset="1" style="stop-color:#FFFFFF"/>
	</linearGradient>
	<path fill="url(#SVGID_11_)" d="M21.261,22.224h0.885l1.329-0.443c0,0-0.608,1.183-0.886,1.329
		C22.589,23.11,22.147,22.667,21.261,22.224z"/>
</g>
</svg>
